<svg width="176" height="176" viewBox="0 0 176 176" fill="none" xmlns="http://www.w3.org/2000/svg">
<path d="M128.267 108.12C119.34 97.8287 109.923 88.0807 99.8973 78.8582C99.3422 78.3448 98.2669 78.3185 97.8884 79.1043C96.9154 81.1548 96.1049 83.2279 95.4059 85.336C88.3692 75.4774 103.4 63.4863 113.76 67.3769C114.948 67.825 115.704 66.3755 115.264 65.4364C113.346 61.3673 115.852 56.9238 114.065 53.0087C113.958 52.7775 113.683 52.6629 113.45 52.6557C113.245 52.648 113.043 52.6316 112.847 52.6266C112.457 52.6079 112.315 52.9403 112.38 53.2434C97.0869 47.2965 81.4589 42.0266 65.484 38.1931C65.7477 36.8719 63.9664 35.5216 62.679 36.6819C54.7817 43.8345 49.9965 53.6217 48.8253 63.8736C48.6317 63.86 48.4261 63.9745 48.3937 64.2282C47.2558 75.8757 47.6919 88.0923 53.7986 98.4224C56.833 103.558 61.547 107.364 66.2308 110.906C71.9493 115.235 77.9999 119.526 85.2334 120.618C85.4586 120.651 85.6603 120.638 85.8529 120.595C85.9213 120.767 86.0376 120.908 86.1763 121.036C84.8641 123.837 84.3996 126.82 84.0368 129.929C83.9302 130.809 84.9615 131.397 85.7088 131.207C96.042 128.635 106.267 125.567 116.517 122.658C118.73 122.032 123.385 121.552 124.745 119.199C126.248 116.598 127.028 113.423 127.486 110.4L127.665 110.371C128.736 110.199 128.848 108.792 128.267 108.12ZM94.4886 88.4404C94.3475 88.9803 94.1919 89.5063 94.068 90.0516C92.1767 89.2322 90.3767 88.2718 88.7915 87.0773C89.6155 86.8835 90.4631 86.7348 91.3144 86.6343C91.95 86.5605 91.9848 85.6385 91.3133 85.6163C90.0814 85.5785 88.8969 85.81 87.7841 86.2336C86.5244 85.1129 85.4263 83.8073 84.6102 82.2038C86.4794 81.6218 88.3892 81.2409 90.3097 80.8258C90.4202 80.8039 90.5077 80.7654 90.5834 80.7043C90.6294 83.7717 91.804 86.6654 94.4886 88.4404ZM113.067 56.7003C112.916 58.4433 112.487 60.3817 112.412 61.1024C112.3 62.1508 112.357 63.1678 112.481 64.1864C107.581 63.0451 101.745 64.7384 97.4266 67.8407C97.3569 67.7623 97.2648 67.6957 97.1334 67.664C93.8362 66.9406 90.7659 67.7772 88.1768 69.9331C87.5379 70.4677 88.3617 71.5364 89.0503 71.0834C91.1274 69.7186 93.5685 68.9956 96.0551 68.9087C95.0216 69.8 94.1061 70.7661 93.3654 71.8057C91.7948 73.9891 90.7754 76.7882 90.5911 79.5383C90.525 79.4752 90.4468 79.4263 90.3611 79.3946C90.2755 79.3629 90.1842 79.349 90.093 79.3538C87.953 79.4174 85.9244 79.9966 83.9445 80.7512C82.1438 75.5881 85.7709 70.2432 89.2914 66.8906C90.7705 65.4795 92.472 64.2606 94.3042 63.1959C94.0358 63.4509 94.2562 64.01 94.7122 63.908C100.236 62.7293 105.759 62.6055 111.338 61.9433C111.916 61.8704 111.923 61.0997 111.33 61.0363C105.723 60.4365 99.8903 61.6691 94.4814 63.0818C94.4615 63.085 94.4476 63.0995 94.425 63.1112C100.097 59.8399 107.062 58.0298 113.067 56.7003ZM52.7675 89.8447C51.5212 86.7588 50.6644 83.5125 50.0995 80.207C50.5157 81.7038 50.9914 83.1911 51.5803 84.6479C52.2821 86.3756 53.1133 88.0215 54.0485 89.6058C53.6146 89.6675 53.1865 89.7405 52.7675 89.8447ZM55.5793 95.4192C54.8155 94.188 54.1308 92.9094 53.5293 91.5913C54.0716 91.5447 54.6161 91.4611 55.1488 91.3549C56.043 92.6975 57.0174 93.9849 58.0666 95.2101C57.2979 95.3176 56.5388 95.4846 55.7721 95.7058C55.7164 95.613 55.6436 95.5148 55.5793 95.4192ZM56.4441 96.7176C57.3201 96.5683 58.1966 96.4475 59.0817 96.3294C60.6272 98.0109 62.3123 99.5478 64.1145 100.952L62.7354 101.113C61.6401 101.24 61.8673 102.829 62.9381 102.599C63.8163 102.413 64.6859 102.224 65.5614 102.046C67.2378 103.251 68.9974 104.34 70.8344 105.302C69.065 105.746 67.2898 106.179 65.5178 106.631C61.9812 103.637 58.8618 100.275 56.4441 96.7176ZM66.4009 107.36C68.4681 107.198 70.5217 106.75 72.4806 106.092C74.5884 107.092 76.7698 107.918 79.0024 108.581C76.2106 109.25 73.4305 109.942 70.6136 110.481C69.1602 109.498 67.7513 108.462 66.4009 107.36ZM86.4129 118.029C86.2864 117.951 86.154 117.863 85.9798 117.818C84.005 117.264 81.9989 116.541 80.01 115.672C80.0754 115.673 80.1355 115.692 80.2036 115.685C82.4785 115.372 84.6645 115.012 86.8861 114.418C87.7692 114.186 87.6023 112.796 86.6701 112.823C84.2801 112.903 81.9966 113.214 79.6374 113.585C78.6761 113.736 78.6744 114.763 79.2134 115.328C76.914 114.274 74.6844 113.074 72.5383 111.735C75.6781 111.128 78.7988 110.401 81.8051 109.319C84.0405 109.822 86.3158 110.168 88.6074 110.312C88.0285 112.939 87.2947 115.488 86.4129 118.029ZM90.7205 106.971C74.8736 106.664 60.3485 96.887 54.3398 82.1591C48.4708 67.767 53.2445 50.7773 63.9475 40.0574C78.7171 44.5492 93.3626 49.2565 107.772 54.7755C97.4742 57.5662 86.1344 62.5364 81.8693 72.4679C79.2179 78.6372 81.361 83.7004 85.33 87.5085C84.9913 87.8074 85.3371 88.387 85.7766 88.1574C85.833 88.1279 85.8952 88.1098 85.9516 88.0803C88.4592 90.2992 91.5756 92.0495 94.6716 93.2939C95.3417 93.5607 96.2359 92.9931 96.3717 92.3196C96.5966 91.2123 96.8644 90.1185 97.1466 89.0386C97.4312 88.7322 97.5679 88.2662 97.4697 87.8585C98.0286 85.8666 98.6818 83.9043 99.452 81.9599C108.325 90.222 116.749 98.954 124.687 108.118C112.683 109.95 101.402 113.289 90.022 117.427C91.0065 114.74 91.7909 111.999 92.3743 109.148C92.6078 108.043 91.8811 106.995 90.7205 106.971ZM108.092 121.88C104.887 122.788 101.664 123.689 98.4556 124.605C102.896 121.984 107.076 119.083 111.078 115.788C111.739 115.241 110.872 114.102 110.172 114.589C105.505 117.874 100.652 120.969 95.7003 123.807C94.9994 124.209 95.0961 125.012 95.5333 125.45C92.6308 126.293 89.7342 127.146 86.8498 128.05C87.1059 125.822 87.5476 123.633 87.9035 121.417C87.9657 121.399 88.0397 121.404 88.1073 121.368C98.4532 116.473 109.812 113.393 121.151 111.4C116.937 114.62 112.672 117.795 108.382 120.925C108.037 121.185 107.993 121.566 108.092 121.88ZM123.097 115.77C122.113 119.089 114.727 120.343 110.685 121.214C114.651 118.425 118.402 115.447 122.024 112.192C122.391 111.864 122.193 111.444 121.852 111.299C122.779 111.138 123.706 110.976 124.63 110.824C124.056 112.443 123.593 114.098 123.097 115.77Z" fill="white" fill-opacity="0.7"/>
<path d="M89.4902 73.7674C87.6763 74.2632 85.9015 74.8748 84.1266 75.4865C83.3776 75.7415 83.6831 76.9303 84.4492 76.6807C86.2445 76.0943 88.023 75.5309 89.7792 74.8286C90.4145 74.5756 90.192 73.573 89.4902 73.7674ZM100.436 116.522C98.0084 118.012 95.7138 119.62 93.409 121.29C91.4804 122.692 88.572 124.004 87.4069 126.126C87.3628 126.206 87.4131 126.316 87.5183 126.311C89.9234 126.124 92.2599 123.992 94.2275 122.706C96.6814 121.101 98.9659 119.406 101.152 117.453C101.65 117.006 101.007 116.173 100.436 116.522Z" fill="white" fill-opacity="0.7"/>
</svg>
