<svg width="178" height="178" viewBox="0 0 178 178" fill="none" xmlns="http://www.w3.org/2000/svg">
<path d="M88.8714 33.3095C87.8406 32.2199 85.7854 33.2102 86.2107 34.7369C86.2298 34.8019 86.2409 34.8635 86.26 34.9285C86.1751 35.0807 86.1152 35.2627 86.0836 35.4664C85.1145 43.1762 83.8523 50.7116 82.1486 58.1313C81.9701 58.3469 81.8971 58.6461 81.9552 58.9265C80.4342 65.4233 78.5786 71.8413 76.2427 78.2118C76.0732 78.1667 75.9037 78.1215 75.7376 78.0685C75.3782 77.9599 75.1211 78.1605 75.0266 78.422C67.6542 76.5876 60.2103 75.5069 52.8861 73.2775C51.9659 73.0015 50.6991 73.9176 51.09 74.9568C52.7099 79.289 54.2271 83.6617 55.8926 87.9759C55.4646 88.4616 55.2942 89.1818 55.6229 89.8631C62.9387 104.87 67.793 120.823 74.0331 136.261C74.3657 137.086 75.6571 136.549 75.4567 135.725C71.8982 120.664 65.6582 106.294 59.9695 91.9173C63.6427 93.2354 67.3883 94.3863 71.1446 95.4473C74.009 96.254 78.6145 98.4961 81.6985 97.7059C87.855 96.13 89.8824 87.5272 91.2282 82.0888C94.6797 68.1289 93.7845 54.0337 90.7438 40.1995C105.684 58.1611 115.266 80.5217 110.173 104.244C109.984 105.117 110.363 106.075 111.29 106.335L119.485 108.583C112.688 113.209 105.89 117.834 99.125 122.493C92.2254 127.244 84.8026 134.293 76.6185 136.512C74.8193 136.999 75.4265 139.72 77.2628 139.344C85.9669 137.539 93.5891 130.445 100.759 125.527C108.57 120.178 116.347 114.776 124.124 109.375C125.221 108.611 125.334 106.779 123.819 106.349C120.454 105.411 117.085 104.461 113.72 103.522C118.8 77.2324 106.817 52.1672 88.8714 33.3095ZM76.7585 84.873C72.3524 83.1522 67.9736 81.4338 63.6871 79.4151C66.0218 79.9828 68.3761 80.4833 70.7331 80.8905C73.4827 81.3733 75.2689 82.9228 76.7585 84.873ZM82.6649 93.1429C81.4768 94.0082 80.1008 94.3476 78.4856 93.8649C71.714 91.8655 65.0186 89.625 58.2308 87.6849C57.6736 85.8948 57.102 84.1093 56.5161 82.3284C61.9006 86.2411 67.8465 89.3383 74.3719 90.815C75.3277 91.0308 75.7685 89.6432 74.8119 89.342C68.2253 87.2432 61.9103 84.7138 56.0695 80.9815C55.6139 79.6118 55.1583 78.2422 54.7106 76.8759C56.2768 77.3846 57.8567 77.8615 59.4425 78.3031C59.3674 78.5636 59.4334 78.8475 59.7539 79.0242C65.7374 82.3835 72.0677 85.619 78.6637 87.6746C79.8448 89.595 81.037 91.5771 82.6649 93.1429ZM84.1355 91.6912C83.5406 90.403 82.8693 89.1383 82.1752 87.8827C82.3089 87.4869 82.1697 87.0011 81.6535 86.7963L81.55 86.7514L80.8095 85.4284C82.6842 86.2504 84.7037 86.7382 86.7198 86.6668C86.0251 88.5967 85.1739 90.3641 84.1355 91.6912ZM88.1024 81.9723C87.8753 82.9326 87.6138 83.9064 87.3206 84.8664C84.4625 84.4595 81.8347 84.001 79.3142 82.6627C78.9503 81.9756 78.5795 81.3044 78.2498 80.6037C78.1708 80.4371 78.0814 80.2944 77.9806 80.1562C81.2379 81.2561 84.7286 82.0791 88.1024 81.9723ZM79.8769 74.9092C82.6484 76.1483 86.1423 76.7458 89.2191 76.3212C89.024 77.5128 88.7768 78.8898 88.4552 80.3953C85.0692 79.854 81.7256 79.5202 78.402 78.7696C78.9072 77.495 79.3921 76.2021 79.8769 74.9092ZM81.6251 69.9383C84.3351 70.6214 87.1478 71.2639 89.9192 71.1512C89.9385 71.1502 89.9499 71.1457 89.9693 71.1446C89.857 72.1452 89.7333 73.1503 89.5777 74.1417C88.111 74.1015 86.6336 74.1512 85.1775 74.021C83.5848 73.8789 82.0268 73.5912 80.4482 73.3512C80.8446 72.2185 81.2445 71.0779 81.6251 69.9383ZM84.5166 60.3015C86.3819 60.8832 88.3803 61.2673 90.2245 60.8945C90.2861 60.8833 90.3466 60.8528 90.407 60.8223C90.4786 63.9068 90.4021 66.9837 90.0957 70.0461C87.4666 69.3508 84.7297 69.1003 82.0369 68.661C82.3495 67.6999 82.6576 66.7274 82.9543 65.7595C85.1648 66.3301 87.3308 66.3709 89.5783 65.7002C90.2625 65.4958 90.2491 64.3272 89.4517 64.3786C87.4785 64.5253 85.4186 64.436 83.4683 64.0065C83.8595 62.777 84.188 61.5393 84.5166 60.3015ZM85.0497 58.33C85.4364 56.8055 85.7992 55.2706 86.1381 53.7254C87.3133 53.7621 88.4758 53.85 89.6337 53.643C89.7374 53.6218 89.8287 53.5857 89.9041 53.5427C90.1036 55.4159 90.2724 57.2946 90.3558 59.1741C90.3319 59.1638 90.3115 59.1455 90.2841 59.1431C88.5569 58.7442 86.7989 58.6345 85.0497 58.33ZM88.1342 42.4905C88.8114 45.6389 89.3438 48.8379 89.7405 52.0444L89.6928 52.0237C88.654 51.7814 87.6165 51.776 86.5551 51.7602C87.1953 48.6913 87.7331 45.5968 88.1342 42.4905Z" fill="white" fill-opacity="0.7"/>
</svg>
