<svg width="44" height="44" viewBox="0 0 44 44" fill="none" xmlns="http://www.w3.org/2000/svg">
    <rect width="44" height="44" rx="22" fill="#5EB14A" fill-opacity="0.08"/>
    <path d="M17.4833 15.2595C16.3389 15.3874 15.4229 16.2906 15.2904 17.4227C14.9348 20.4639 14.9348 23.5361 15.2904 26.5773C15.4229 27.7094 16.3389 28.6126 17.4833 28.7405C20.4602 29.0732 23.5398 29.0732 26.5166 28.7405C27.6611 28.6126 28.5771 27.7094 28.7095 26.5773C28.9651 24.3921 29.037 22.1909 28.9253 19.9967C28.9224 19.9401 28.9436 19.8848 28.9837 19.8447L30.0225 18.8059C30.1427 18.6857 30.3482 18.7609 30.3609 18.9304C30.557 21.5353 30.5031 24.1544 30.1994 26.7515C29.9845 28.5885 28.5096 30.0271 26.6832 30.2313C23.5957 30.5763 20.4043 30.5763 17.3167 30.2313C15.4904 30.0271 14.0155 28.5885 13.8006 26.7515C13.4314 23.5946 13.4314 20.4054 13.8006 17.2485C14.0155 15.4115 15.4904 13.9729 17.3167 13.7688C20.4043 13.4237 23.5957 13.4237 26.6832 13.7688C27.3265 13.8407 27.9261 14.0657 28.4425 14.4073C28.5441 14.4745 28.5542 14.6174 28.468 14.7035L27.6652 15.5064C27.5995 15.5721 27.4976 15.5831 27.4158 15.5393C27.1423 15.3928 26.8385 15.2955 26.5166 15.2595C23.5398 14.9268 20.4602 14.9268 17.4833 15.2595Z" fill="#5EB14A"/>
    <path d="M31.0303 16.0303C31.3232 15.7374 31.3232 15.2626 31.0303 14.9697C30.7374 14.6768 30.2625 14.6768 29.9696 14.9697L21.5 23.4393L19.0303 20.9697C18.7374 20.6768 18.2625 20.6768 17.9696 20.9697C17.6767 21.2626 17.6767 21.7374 17.9696 22.0303L20.9696 25.0303C21.2625 25.3232 21.7374 25.3232 22.0303 25.0303L31.0303 16.0303Z" fill="#5EB14A"/>
</svg>
