<svg width="32" height="32" viewBox="0 0 32 32" fill="none" xmlns="http://www.w3.org/2000/svg">
<path fill-rule="evenodd" clip-rule="evenodd" d="M6.80732 25.1921C3.2926 21.6774 3.2926 15.9789 6.80732 12.4642L14.3498 4.92169C16.8231 2.44837 20.8332 2.44837 23.3065 4.92169C25.7798 7.39501 25.7798 11.4051 23.3065 13.8784L15.6293 21.5555C14.1974 22.9875 11.8758 22.9875 10.4439 21.5555C9.01195 20.1236 9.01195 17.802 10.4439 16.3701L17.8517 8.9623C18.2422 8.57178 18.8753 8.57178 19.2659 8.9623C19.6564 9.35283 19.6564 9.98599 19.2659 10.3765L11.8581 17.7843C11.2072 18.4352 11.2072 19.4904 11.8581 20.1413C12.509 20.7922 13.5642 20.7922 14.2151 20.1413L21.8923 12.4642C23.5845 10.7719 23.5845 8.02818 21.8923 6.33591C20.2 4.64363 17.4563 4.64363 15.764 6.3359L8.22153 13.8784C5.48786 16.612 5.48786 21.0442 8.22153 23.7779C10.9552 26.5115 15.3874 26.5115 18.121 23.7779L25.3941 16.5048C25.7847 16.1142 26.4178 16.1142 26.8083 16.5048C27.1989 16.8953 27.1989 17.5285 26.8083 17.919L19.5352 25.1921C16.0205 28.7068 10.322 28.7068 6.80732 25.1921Z" fill="white"/>
</svg>
