<svg width="32" height="32" viewBox="0 0 32 32" fill="none" xmlns="http://www.w3.org/2000/svg">
<path fill-rule="evenodd" clip-rule="evenodd" d="M15.2203 3.19331C15.7285 3.03713 16.2718 3.03713 16.78 3.19331L20.761 4.41687C22.8378 5.05519 24.8102 5.99367 26.6156 7.20255C28.0198 8.1428 27.3542 10.3331 25.6643 10.3331H6.33604C4.6461 10.3331 3.98051 8.1428 5.38471 7.20255C7.19009 5.99367 9.16248 5.05519 11.2393 4.41687L15.2203 3.19331ZM16.1924 5.10505C16.0671 5.06655 15.9332 5.06655 15.8079 5.10505L11.8269 6.32861C10.2525 6.81251 8.74404 7.48589 7.33442 8.33313H24.6659C23.2563 7.48589 21.7478 6.81251 20.1734 6.32861L16.1924 5.10505Z" fill="white"/>
<path d="M5.66683 27.9998C5.66683 27.4475 6.11454 26.9998 6.66683 26.9998H25.3335C25.8858 26.9998 26.3335 27.4475 26.3335 27.9998C26.3335 28.5521 25.8858 28.9998 25.3335 28.9998H6.66683C6.11454 28.9998 5.66683 28.5521 5.66683 27.9998Z" fill="white"/>
<path d="M8.3335 22.6665C8.3335 23.2187 8.78121 23.6665 9.3335 23.6665C9.88578 23.6665 10.3335 23.2187 10.3335 22.6665L10.3335 14.6665C10.3335 14.1142 9.88578 13.6665 9.3335 13.6665C8.78121 13.6665 8.3335 14.1142 8.3335 14.6665L8.3335 22.6665Z" fill="white"/>
<path d="M16.0002 23.6665C15.4479 23.6665 15.0002 23.2187 15.0002 22.6665L15.0002 14.6665C15.0002 14.1142 15.4479 13.6665 16.0002 13.6665C16.5524 13.6665 17.0002 14.1142 17.0002 14.6665V22.6665C17.0002 23.2187 16.5524 23.6665 16.0002 23.6665Z" fill="white"/>
<path d="M21.6668 22.6665C21.6668 23.2187 22.1145 23.6665 22.6668 23.6665C23.2191 23.6665 23.6668 23.2187 23.6668 22.6665V14.6665C23.6668 14.1142 23.2191 13.6665 22.6668 13.6665C22.1145 13.6665 21.6668 14.1142 21.6668 14.6665V22.6665Z" fill="white"/>
</svg>
