<svg width="60" height="59" viewBox="0 0 60 59" fill="none" xmlns="http://www.w3.org/2000/svg">
<path fill-rule="evenodd" clip-rule="evenodd" d="M20.3477 31.4524C20.3477 26.3747 24.4453 22.2585 29.5 22.2585C34.5547 22.2585 38.6523 26.3747 38.6523 31.4524C38.6523 36.53 34.5547 40.6462 29.5 40.6462C24.4453 40.6462 20.3477 36.53 20.3477 31.4524ZM29.5 25.936C26.4672 25.936 24.0086 28.4058 24.0086 31.4524C24.0086 34.4989 26.4672 36.9687 29.5 36.9687C32.5328 36.9687 34.9914 34.4989 34.9914 31.4524C34.9914 28.4058 32.5328 25.936 29.5 25.936Z" fill="white"/>
<path fill-rule="evenodd" clip-rule="evenodd" d="M26.1225 13.6775C23.5717 13.6775 21.5038 15.7548 21.5038 18.3173C21.5038 19.95 20.2561 21.3093 18.6361 21.4414L13.1945 21.8854C12.126 21.9725 11.2474 22.7662 11.0479 23.8242C9.95273 29.6348 9.87106 35.5923 10.8066 41.4309L11.0439 42.9122C11.2681 44.3112 12.4143 45.3755 13.8202 45.4902L18.5607 45.877C25.8416 46.471 33.1584 46.471 40.4393 45.877L45.1798 45.4902C46.5857 45.3755 47.7319 44.3112 47.9561 42.9122L48.1934 41.4309C49.1289 35.5923 49.0473 29.6348 47.9521 23.8242C47.7526 22.7662 46.874 21.9725 45.8055 21.8854L40.3639 21.4414C38.7439 21.3093 37.4962 19.95 37.4962 18.3173C37.4962 15.7548 35.4283 13.6775 32.8775 13.6775H26.1225ZM17.8577 17.8153C18.1161 13.4555 21.7176 10 26.1225 10H32.8775C37.2824 10 40.8839 13.4555 41.1423 17.8153L46.1019 18.2199C48.8132 18.4411 51.043 20.4552 51.5491 23.1401C52.7232 29.3693 52.8107 35.756 51.8078 42.0153L51.5705 43.4966C51.0784 46.5676 48.5623 48.9039 45.4761 49.1557L40.7356 49.5424C33.2575 50.1525 25.7425 50.1525 18.2643 49.5424L13.5239 49.1557C10.4377 48.9039 7.92159 46.5676 7.42954 43.4966L7.19219 42.0153C6.18926 35.756 6.27681 29.3693 7.45092 23.1401C7.95699 20.4552 10.1868 18.4411 12.8981 18.2199L17.8577 17.8153Z" fill="white"/>
</svg>
