<svg width="32" height="32" viewBox="0 0 32 32" fill="none" xmlns="http://www.w3.org/2000/svg">
<path fill-rule="evenodd" clip-rule="evenodd" d="M25.5791 6.54966L16.0008 6.33301L6.42251 6.54966C4.64763 6.58981 3.14483 7.87063 2.82391 9.61672C2.04828 13.8369 2.04828 18.163 2.82391 22.3831C3.14483 24.1292 4.64763 25.4101 6.42251 25.4502L16.0008 25.6669L25.5791 25.4502C27.354 25.4101 28.8568 24.1292 29.1777 22.3831C29.9533 18.163 29.9533 13.8369 29.1777 9.61672C28.8568 7.87063 27.354 6.58981 25.5791 6.54966ZM6.46773 8.54915L16.0008 8.33352L25.5339 8.54915C26.3609 8.56785 27.0611 9.16466 27.2106 9.97825C27.415 11.0902 27.5623 12.21 27.6525 13.3333H4.34909C4.4393 12.21 4.58659 11.0902 4.79096 9.97825C4.9405 9.16466 5.64073 8.56785 6.46773 8.54915ZM4.24219 15.9999C4.24219 18.0155 4.42511 20.0311 4.79096 22.0216C4.9405 22.8352 5.64073 23.432 6.46773 23.4507L16.0008 23.6663L25.5339 23.4507C26.3609 23.432 27.0611 22.8352 27.2106 22.0216C27.5765 20.0311 27.7594 18.0155 27.7594 15.9999H4.24219Z" fill="white"/>
</svg>
