<svg width="96" height="21" viewBox="0 0 96 21" fill="none" xmlns="http://www.w3.org/2000/svg">
    <path d="M0.207892 2.04186L3.1875 0.5L4.46941 2.62061L5.95921 1.84968L7.88208 5.03059L9.37188 4.25966L11.6152 7.97072L13.105 7.19979L15.3484 10.9109L16.8382 10.1399L18.4406 12.7907L14.7161 14.718L13.7546 13.1276L11.5199 14.284L10.5585 12.6935L7.57888 14.2354L8.54031 15.8258L6.30561 16.9822L7.26704 18.5727L3.54253 20.5L1.94014 17.8492L3.42995 17.0783L1.1866 13.3672L2.67641 12.5963L0.433063 8.88525L1.92287 8.11432L0 4.9334L1.4898 4.16247L0.207892 2.04186Z" fill="white"/>
    <path d="M23.8704 15.4141V5.40651H29.0225C30.0243 5.40651 30.8114 5.64955 31.3839 6.13564C31.9563 6.62172 32.2426 7.23647 32.2426 7.97989C32.2426 8.69472 31.9802 9.25705 31.4554 9.66689C31.2074 9.83845 30.945 9.96712 30.6683 10.0529V10.1244C31.0022 10.1911 31.3219 10.3245 31.6272 10.5247C32.276 10.9536 32.6003 11.6065 32.6003 12.4833C32.6003 13.3411 32.276 14.0464 31.6272 14.5992C30.9879 15.1425 30.0959 15.4141 28.951 15.4141H23.8704ZM26.0171 9.33807H28.7363C29.1465 9.33807 29.4614 9.24752 29.6808 9.06643C29.9098 8.87581 30.0243 8.63277 30.0243 8.33731C30.0243 8.04184 29.9098 7.80357 29.6808 7.62248C29.4614 7.43186 29.1465 7.33655 28.7363 7.33655H26.0171V9.33807ZM26.0171 13.4841H28.8078C29.3326 13.4841 29.7238 13.3792 29.9814 13.1695C30.2485 12.9599 30.3821 12.6835 30.3821 12.3403C30.3821 11.9972 30.2485 11.7208 29.9814 11.5111C29.7238 11.3015 29.3326 11.1966 28.8078 11.1966H26.0171V13.4841Z" fill="white"/>
    <path d="M34.0309 15.4141V5.40651H36.1776V13.4126H41.115V15.4141H34.0309Z" fill="white"/>
    <path d="M41.3342 15.4141L43.9817 5.40651H48.4898L51.1374 15.4141H48.9192L48.3467 13.1981H44.1249L43.5524 15.4141H41.3342ZM44.6258 11.1966H47.8458L46.844 7.40803H45.6275L44.6258 11.1966Z" fill="white"/>
    <path d="M52.9804 14.1989C51.95 13.1886 51.4348 11.9257 51.4348 10.4103C51.4348 8.89487 51.95 7.63678 52.9804 6.63602C54.0204 5.62573 55.3418 5.12058 56.9447 5.12058C58.7479 5.12058 60.1313 5.75439 61.0949 7.02202C61.5338 7.58435 61.8439 8.2134 62.0252 8.90917H59.8069C59.6829 8.58511 59.4921 8.28965 59.2345 8.02278C58.6334 7.42233 57.8701 7.1221 56.9447 7.1221C56.0097 7.1221 55.2369 7.43186 54.6262 8.05138C54.0252 8.66136 53.7246 9.44767 53.7246 10.4103C53.7246 11.4111 54.0156 12.2117 54.5976 12.8121C55.1891 13.4031 55.9715 13.6985 56.9447 13.6985C57.9178 13.6985 58.7002 13.3649 59.2917 12.6978C59.5589 12.3832 59.7544 12.0496 59.8785 11.697H62.0967C61.8773 12.45 61.5481 13.1171 61.1092 13.6985C60.0788 15.0329 58.6906 15.7 56.9447 15.7C55.3418 15.7 54.0204 15.1997 52.9804 14.1989Z" fill="white"/>
    <path d="M63.4502 15.4141V5.40651H65.5969V9.33807H67.028L69.7471 5.40651H72.1801L68.8885 10.1959L72.3947 15.4141H69.8902L67.0995 11.3396H65.5969V15.4141H63.4502Z" fill="white"/>
    <path d="M77.2583 15.4141V5.40651H79.405V9.33807H80.8362L83.5553 5.40651H85.9882L82.6966 10.1959L86.2029 15.4141H83.6984L80.9077 11.3396H79.405V15.4141H77.2583Z" fill="white"/>
    <path d="M87.0554 15.4141V5.40651H89.2021V9.33807H90.6333L93.3524 5.40651H95.7853L92.4937 10.1959L96 15.4141H93.4955L90.7048 11.3396H89.2021V15.4141H87.0554Z" fill="white"/>
</svg>
