<svg width="40" height="41" viewBox="0 0 40 41" fill="none" xmlns="http://www.w3.org/2000/svg">
<g opacity="0.1">
<path d="M21.2406 11.7959C21.2406 11.0979 20.6809 10.5321 19.9906 10.5321C19.3002 10.5321 18.7406 11.0979 18.7406 11.7959V20.2216C18.7406 20.6574 18.9626 21.0624 19.3281 21.2933L24.3281 24.453C24.9135 24.8229 25.6847 24.643 26.0506 24.0511C26.4164 23.4592 26.2385 22.6794 25.6531 22.3095L21.2406 19.5211V11.7959Z" fill="white"/>
<path fill-rule="evenodd" clip-rule="evenodd" d="M19.9906 5.47668C11.9364 5.47668 5.40723 12.0782 5.40723 20.2216C5.40723 28.365 11.9364 34.9665 19.9906 34.9665C28.0447 34.9665 34.5739 28.365 34.5739 20.2216C34.5739 12.0782 28.0447 5.47668 19.9906 5.47668ZM7.90723 20.2216C7.90723 13.4742 13.3171 8.00439 19.9906 8.00439C26.664 8.00439 32.0739 13.4742 32.0739 20.2216C32.0739 26.969 26.664 32.4388 19.9906 32.4388C13.3171 32.4388 7.90723 26.969 7.90723 20.2216Z" fill="white"/>
</g>
</svg>
