<svg width="25" height="25" viewBox="0 0 25 25" fill="none" xmlns="http://www.w3.org/2000/svg">
<path fill-rule="evenodd" clip-rule="evenodd" d="M4.92977 9.49632C4.83578 9.40059 4.75253 9.29173 4.68219 9.16849C4.21012 8.34138 4.59147 7.3432 5.17069 6.54339C5.78292 5.698 6.76467 4.84775 7.96094 4.16499C9.1572 3.48224 10.3886 3.06936 11.4278 2.97218C12.4111 2.88024 13.4645 3.05955 13.9365 3.88667C13.9739 3.95217 14.0059 4.01874 14.0329 4.0862L15.0019 5.69482L15.0052 5.70055C15.5187 6.60028 15.3102 7.67967 14.7693 8.61483C14.2205 9.56383 13.2766 10.4751 12.0831 11.1562C10.8897 11.8373 9.62508 12.1866 8.52883 12.1765C7.45754 12.1667 6.43035 11.8033 5.91254 10.9197L4.92977 9.49632ZM5.61675 8.51829C5.54803 8.27775 5.61586 7.83989 6.07862 7.2009C6.57743 6.51212 7.42621 5.76092 8.5166 5.13859C9.607 4.51625 10.6855 4.1675 11.5322 4.08832C12.2771 4.01866 12.6857 4.16279 12.8727 4.33265L13.0069 4.55536C13.067 4.79953 12.9912 5.23131 12.5401 5.85426C12.0413 6.54305 11.1925 7.29424 10.1021 7.91658C9.01172 8.53891 7.93326 8.88767 7.08651 8.96685C6.37746 9.03315 5.97316 8.90575 5.77454 8.74683L5.61675 8.51829ZM6.71208 10.1047L6.86134 10.3209L6.87325 10.3418C7.10691 10.7512 7.65815 11.0475 8.53913 11.0556C9.40413 11.0635 10.4753 10.7831 11.5275 10.1826C12.5796 9.58212 13.3658 8.80241 13.7989 8.0536C14.2382 7.29411 14.265 6.67083 14.0345 6.26133L13.8214 5.90757C13.7143 6.11698 13.5869 6.32008 13.448 6.51178C12.8358 7.35716 11.8541 8.20741 10.6578 8.89017C9.46152 9.57293 8.23013 9.9858 7.19088 10.083C7.0322 10.0978 6.87168 10.1056 6.71208 10.1047Z" fill="#5F5F5F"/>
<path fill-rule="evenodd" clip-rule="evenodd" d="M19.1142 18.6472C19.1772 18.5601 19.2325 18.4653 19.2787 18.3622C19.6724 17.4859 19.193 16.5192 18.5307 15.769C17.8312 14.9766 16.7583 14.2149 15.4851 13.643C14.2119 13.0711 12.93 12.7749 11.873 12.7783C10.8723 12.7815 9.83117 13.0652 9.43753 13.9416C9.40893 14.0052 9.38495 14.0693 9.3653 14.1338L9.36094 14.1323L8.69452 16.0954C8.30365 17.0008 8.68061 18.004 9.32041 18.8207C9.98455 19.6685 11.0303 20.4596 12.29 21.0255C13.5498 21.5913 14.8358 21.8476 15.9107 21.781C16.9562 21.7162 17.9659 21.3249 18.3757 20.4126L18.3787 20.4059L19.1142 18.6472ZM11.8766 13.8993C10.9567 13.9023 10.562 14.174 10.4601 14.4009C10.3582 14.6279 10.4172 15.1033 11.026 15.793C11.5975 16.4404 12.5285 17.1163 13.6905 17.6383C14.8525 18.1602 15.976 18.4073 16.8397 18.4045C17.5626 18.4022 17.9611 18.2339 18.1481 18.0518L18.1853 17.9629L18.2144 17.9751C18.2317 17.9508 18.2455 17.9266 18.2562 17.9029C18.3581 17.676 18.2991 17.2005 17.6903 16.5108C17.1188 15.8634 16.1878 15.1875 15.0258 14.6655C13.8638 14.1436 12.7402 13.8965 11.8766 13.8993ZM17.5544 19.4715C17.3212 19.5081 17.0811 19.5247 16.8433 19.5255C15.7863 19.5289 14.5043 19.2327 13.2311 18.6608C11.9579 18.0889 10.8851 17.3273 10.1856 16.5348C10.0724 16.4067 9.96463 16.2722 9.86561 16.1329L9.73962 16.5041L9.72872 16.5283C9.57452 16.8716 9.65371 17.4283 10.2029 18.1294C10.7339 18.8073 11.6213 19.4962 12.7494 20.0029C13.8774 20.5096 14.9818 20.7154 15.8413 20.6622C16.7252 20.6074 17.1937 20.2999 17.3505 19.9589L17.5544 19.4715Z" fill="#5F5F5F"/>
</svg>
