<svg width="21" height="26" viewBox="0 0 21 26" fill="none" xmlns="http://www.w3.org/2000/svg">
<path fill-rule="evenodd" clip-rule="evenodd" d="M0.906443 8.99481C0.781115 8.86717 0.670121 8.72203 0.576335 8.55771C-0.0530895 7.45488 0.455377 6.12398 1.22767 5.05756C2.04397 3.93039 3.35297 2.79672 4.948 1.88637C6.54302 0.97603 8.18486 0.425533 9.57053 0.295957C10.8815 0.173366 12.286 0.412454 12.9155 1.51528C12.9653 1.60261 13.008 1.69137 13.044 1.78131L14.3359 3.92615L14.3403 3.93378C15.025 5.13342 14.747 6.57261 14.0258 7.81949C13.294 9.08483 12.0355 10.2998 10.4443 11.208C8.85302 12.1162 7.16685 12.5819 5.70519 12.5684C4.27679 12.5553 2.90721 12.0707 2.2168 10.8927L0.906443 8.99481ZM1.82241 7.69078C1.73079 7.37005 1.82122 6.78624 2.43823 5.93425C3.10333 5.01587 4.23502 4.01428 5.68889 3.1845C7.14275 2.35472 8.5807 1.88971 9.70969 1.78414C10.7029 1.69126 11.2476 1.88343 11.4971 2.10992L11.6759 2.40686C11.7561 2.73242 11.6551 3.30813 11.0536 4.13873C10.3885 5.05711 9.25677 6.05871 7.8029 6.88848C6.34904 7.71826 4.91109 8.18327 3.78209 8.28884C2.8367 8.37725 2.29763 8.20739 2.0328 7.99549L1.82241 7.69078ZM3.28285 9.80601L3.48187 10.0942L3.49774 10.1221C3.8093 10.6679 4.54428 11.063 5.71893 11.0738C6.87225 11.0844 8.30052 10.7105 9.70337 9.90987C11.1062 9.10921 12.1545 8.0696 12.732 7.07118C13.3176 6.05853 13.3534 5.22749 13.046 4.68149L12.7619 4.20982C12.6192 4.48902 12.4492 4.75982 12.2641 5.01542C11.4478 6.14259 10.1388 7.27627 8.54379 8.18661C6.94877 9.09695 5.30693 9.64745 3.92126 9.77703C3.70968 9.79681 3.49566 9.80717 3.28285 9.80601Z" fill="white"/>
<path fill-rule="evenodd" clip-rule="evenodd" d="M19.819 21.196C19.9031 21.0798 19.9767 20.9534 20.0384 20.816C20.5633 19.6476 19.9241 18.3586 19.041 17.3583C18.1083 16.3018 16.6779 15.2862 14.9803 14.5237C13.2827 13.7611 11.5734 13.3663 10.1641 13.3708C8.82978 13.3751 7.44164 13.7534 6.91678 14.9218C6.87866 15.0067 6.84668 15.0922 6.82049 15.1781L6.81467 15.1762L5.9261 17.7936C5.40494 19.0008 5.90757 20.3383 6.76063 21.4273C7.64615 22.5577 9.04046 23.6125 10.7201 24.367C12.3998 25.1215 14.1144 25.4632 15.5476 25.3744C16.9417 25.288 18.2879 24.7662 18.8343 23.5498L18.8383 23.5409L19.819 21.196ZM10.1689 14.8655C8.94231 14.8694 8.41614 15.2317 8.28021 15.5343C8.14429 15.8369 8.22295 16.4708 9.03469 17.3903C9.79678 18.2536 11.038 19.1548 12.5874 19.8507C14.1367 20.5467 15.6348 20.8761 16.7863 20.8724C17.7502 20.8693 18.2816 20.6449 18.5309 20.4021L18.5805 20.2836L18.6193 20.2999C18.6423 20.2674 18.6608 20.2352 18.675 20.2036C18.8109 19.901 18.7322 19.267 17.9205 18.3475C17.1584 17.4842 15.9172 16.5831 14.3678 15.8871C12.8185 15.1912 11.3204 14.8618 10.1689 14.8655ZM17.7393 22.295C17.4284 22.3439 17.1082 22.366 16.7911 22.367C15.3818 22.3715 13.6725 21.9767 11.9749 21.2142C10.2773 20.4516 8.84686 19.436 7.91416 18.3795C7.76332 18.2086 7.61959 18.0293 7.48756 17.8436L7.31958 18.3385L7.30504 18.3708C7.09944 18.8285 7.20502 19.5708 7.93726 20.5056C8.64532 21.4094 9.82852 22.3279 11.3326 23.0036C12.8366 23.6792 14.3092 23.9536 15.4552 23.8826C16.6337 23.8095 17.2584 23.3996 17.4675 22.9449L17.7393 22.295Z" fill="white"/>
</svg>
