<svg width="18" height="18" viewBox="0 0 18 18" fill="none" xmlns="http://www.w3.org/2000/svg">
<path d="M6.5 0.75C3.32436 0.75 0.75 3.32436 0.75 6.5V13.6069C0.75 14.0211 1.08579 14.3569 1.5 14.3569C1.91421 14.3569 2.25 14.0211 2.25 13.6069V6.5C2.25 4.15279 4.15279 2.25 6.5 2.25H13.5129C13.9271 2.25 14.2629 1.91421 14.2629 1.5C14.2629 1.08579 13.9271 0.75 13.5129 0.75H6.5Z" fill="white" fill-opacity="0.3"/>
<path fill-rule="evenodd" clip-rule="evenodd" d="M15.9026 4.29326C12.6616 3.93104 9.33843 3.93104 6.09748 4.29326C5.1742 4.39645 4.43227 5.12304 4.32344 6.05348C3.93906 9.33996 3.93906 12.66 4.32344 15.9465C4.43227 16.877 5.1742 17.6035 6.09748 17.7067C9.33843 18.069 12.6616 18.069 15.9026 17.7067C16.8258 17.6035 17.5678 16.877 17.6766 15.9465C18.061 12.66 18.061 9.33996 17.6766 6.05348C17.5678 5.12304 16.8258 4.39645 15.9026 4.29326ZM6.26409 5.78398C9.39431 5.43413 12.6057 5.43413 15.7359 5.78398C15.9733 5.8105 16.1599 5.99821 16.1867 6.22773C16.5576 9.39843 16.5576 12.6016 16.1867 15.7723C16.1599 16.0018 15.9733 16.1895 15.7359 16.216C12.6057 16.5659 9.39431 16.5659 6.26409 16.216C6.02674 16.1895 5.84013 16.0018 5.81329 15.7723C5.44245 12.6016 5.44245 9.39844 5.81329 6.22773C5.84013 5.99821 6.02674 5.8105 6.26409 5.78398Z" fill="white" fill-opacity="0.3"/>
</svg>
