<svg width="40" height="40" viewBox="0 0 40 40" fill="none" xmlns="http://www.w3.org/2000/svg">
<path d="M15.0033 5.41589C9.71053 5.41589 5.41992 9.7065 5.41992 14.9992V26.844C5.41992 27.5344 5.97957 28.094 6.66992 28.094C7.36028 28.094 7.91992 27.5344 7.91992 26.844V14.9992C7.91992 11.0872 11.0912 7.91589 15.0033 7.91589H26.6913C27.3817 7.91589 27.9413 7.35625 27.9413 6.66589C27.9413 5.97554 27.3817 5.41589 26.6913 5.41589H15.0033Z" fill="white" fill-opacity="0.1"/>
<path fill-rule="evenodd" clip-rule="evenodd" d="M30.6742 11.3213C25.2726 10.7176 19.734 10.7176 14.3324 11.3213C12.7936 11.4933 11.557 12.7043 11.3757 14.255C10.735 19.7325 10.735 25.266 11.3757 30.7434C11.557 32.2941 12.7936 33.5051 14.3324 33.6771C19.734 34.2808 25.2726 34.2808 30.6742 33.6771C32.213 33.5051 33.4495 32.2941 33.6309 30.7434C34.2715 25.266 34.2715 19.7325 33.6309 14.255C33.4495 12.7043 32.213 11.4933 30.6742 11.3213ZM14.6101 13.8059C19.8271 13.2228 25.1795 13.2228 30.3965 13.8059C30.7921 13.8501 31.1031 14.1629 31.1478 14.5454C31.7659 19.83 31.7659 25.1685 31.1478 30.453C31.1031 30.8355 30.7921 31.1484 30.3965 31.1926C25.1795 31.7757 19.8271 31.7757 14.6101 31.1926C14.2145 31.1484 13.9035 30.8355 13.8587 30.453C13.2407 25.1685 13.2407 19.83 13.8587 14.5454C13.9035 14.1629 14.2145 13.8501 14.6101 13.8059Z" fill="white" fill-opacity="0.1"/>
</svg>
