<svg width="25" height="25" viewBox="0 0 25 25" fill="none" xmlns="http://www.w3.org/2000/svg">
<path d="M9.5 3.75C6.32436 3.75 3.75 6.32436 3.75 9.5V16.6069C3.75 17.0211 4.08579 17.3569 4.5 17.3569C4.91421 17.3569 5.25 17.0211 5.25 16.6069V9.5C5.25 7.15279 7.15279 5.25 9.5 5.25H16.5129C16.9271 5.25 17.2629 4.91421 17.2629 4.5C17.2629 4.08579 16.9271 3.75 16.5129 3.75H9.5Z" fill="#5F5F5F"/>
<path fill-rule="evenodd" clip-rule="evenodd" d="M18.9026 7.29326C15.6616 6.93104 12.3384 6.93104 9.09748 7.29326C8.1742 7.39645 7.43227 8.12304 7.32344 9.05348C6.93906 12.34 6.93906 15.66 7.32344 18.9465C7.43227 19.877 8.1742 20.6035 9.09748 20.7067C12.3384 21.069 15.6616 21.069 18.9026 20.7067C19.8258 20.6035 20.5678 19.877 20.6766 18.9465C21.061 15.66 21.061 12.34 20.6766 9.05348C20.5678 8.12304 19.8258 7.39645 18.9026 7.29326ZM9.26409 8.78398C12.3943 8.43413 15.6057 8.43413 18.7359 8.78398C18.9733 8.8105 19.1599 8.99821 19.1867 9.22773C19.5576 12.3984 19.5576 15.6016 19.1867 18.7723C19.1599 19.0018 18.9733 19.1895 18.7359 19.216C15.6057 19.5659 12.3943 19.5659 9.26409 19.216C9.02674 19.1895 8.84013 19.0018 8.81329 18.7723C8.44245 15.6016 8.44245 12.3984 8.81329 9.22773C8.84013 8.99821 9.02674 8.8105 9.26409 8.78398Z" fill="#5F5F5F"/>
</svg>
