<svg width="181" height="44" viewBox="0 0 181 44" fill="none" xmlns="http://www.w3.org/2000/svg">
<path fill-rule="evenodd" clip-rule="evenodd" d="M29.8273 12C28.9436 12 28.2273 12.7163 28.2273 13.6V18.8027C27.3448 18.2922 26.3202 18 25.2273 18C21.9136 18 19.2273 20.6863 19.2273 24C19.2273 27.3137 21.9136 30 25.2273 30C26.3874 30 27.4705 29.6708 28.3885 29.1007C28.6483 29.6332 29.1949 30 29.8273 30C30.7109 30 31.4273 29.2837 31.4273 28.4V13.6C31.4273 12.7163 30.7109 12 29.8273 12ZM28.2273 24C28.2273 22.3431 26.8841 21 25.2273 21C23.5704 21 22.2273 22.3431 22.2273 24C22.2273 25.6569 23.5704 27 25.2273 27C26.8841 27 28.2273 25.6569 28.2273 24Z" fill="white" fill-opacity="0.5"/>
<circle cx="38.9275" cy="24" r="4.5" stroke="white" stroke-opacity="0.5" stroke-width="3"/>
<path fill-rule="evenodd" clip-rule="evenodd" d="M53.4275 23V28.5C53.4275 29.3284 54.0991 30 54.9275 30C55.7559 30 56.4275 29.3284 56.4275 28.5V23C56.4275 20.2386 54.1889 18 51.4275 18C48.6661 18 46.4275 20.2386 46.4275 23V28.5C46.4275 29.3284 47.0991 30 47.9275 30C48.7559 30 49.4275 29.3284 49.4275 28.5V23C49.4275 21.8954 50.3229 21 51.4275 21C52.5321 21 53.4275 21.8954 53.4275 23Z" fill="white" fill-opacity="0.5"/>
<path fill-rule="evenodd" clip-rule="evenodd" d="M66.9275 23.5C66.9275 25.433 65.3605 27 63.4275 27C61.4945 27 59.9275 25.433 59.9275 23.5C59.9275 21.567 61.4945 20 63.4275 20C65.3605 20 66.9275 21.567 66.9275 23.5ZM67.9275 26.6631C66.9321 28.0766 65.2876 29 63.4275 29C60.3899 29 57.9275 26.5376 57.9275 23.5C57.9275 20.4624 60.3899 18 63.4275 18C65.2876 18 66.9321 18.9234 67.9275 20.3369V20C67.9275 19.4477 68.3752 19 68.9275 19C69.4798 19 69.9275 19.4477 69.9275 20V28C69.9275 28.5523 69.4798 29 68.9275 29C68.3752 29 67.9275 28.5523 67.9275 28V26.6631Z" fill="white" fill-opacity="0.5"/>
<path fill-rule="evenodd" clip-rule="evenodd" d="M72.7275 16.0016C72.7275 15.6426 72.4365 15.3516 72.0775 15.3516C71.7185 15.3516 71.4275 15.6426 71.4275 16.0016V19.5016V27.0016C71.4275 27.5093 71.6482 28.1843 72.2359 28.7285C72.8333 29.2817 73.7552 29.6516 75.0775 29.6516C75.4365 29.6516 75.7275 29.3605 75.7275 29.0016C75.7275 28.6426 75.4365 28.3516 75.0775 28.3516C73.9998 28.3516 73.4217 28.0548 73.1191 27.7746C72.8068 27.4854 72.7275 27.1605 72.7275 27.0016V20.1516H75.0775C75.4365 20.1516 75.7275 19.8605 75.7275 19.5016C75.7275 19.1426 75.4365 18.8516 75.0775 18.8516H72.7275V16.0016Z" fill="white" fill-opacity="0.5"/>
<path d="M77.2409 24H86.1011C86.1011 22.5 85.2011 19.5 81.6011 19.5C78.0011 19.5 77.1012 23 77.2411 24.5C77.3809 26 78.4011 28.5 81.6011 28.5C83.1013 28.5 84.7011 27.4 85.1011 27" stroke="white" stroke-opacity="0.5" stroke-width="1.1" stroke-linecap="round"/>
<circle cx="91.7273" cy="27.5" r="3.5" fill="white" fill-opacity="0.5"/>
<path fill-rule="evenodd" clip-rule="evenodd" d="M152.755 29C151.927 29 151.255 28.3284 151.255 27.5V22C151.255 20.8954 150.36 20 149.255 20C148.151 20 147.255 20.8954 147.255 22V27.5C147.255 28.3284 146.584 29 145.755 29C144.927 29 144.255 28.3284 144.255 27.5V22C144.255 19.2386 146.494 17 149.255 17C150.618 17 151.853 17.5452 152.755 18.4293C153.657 17.5452 154.892 17 156.255 17C159.017 17 161.255 19.2386 161.255 22V27.5C161.255 28.3284 160.584 29 159.755 29C158.927 29 158.255 28.3284 158.255 27.5V22C158.255 20.8954 157.36 20 156.255 20C155.151 20 154.255 20.8954 154.255 22V27.5C154.255 28.3284 153.584 29 152.755 29Z" fill="white" fill-opacity="0.5"/>
<path fill-rule="evenodd" clip-rule="evenodd" d="M139.255 22.5C139.255 24.433 137.688 26 135.755 26C133.822 26 132.255 24.433 132.255 22.5C132.255 20.567 133.822 19 135.755 19C137.688 19 139.255 20.567 139.255 22.5ZM140.255 25.6631C139.26 27.0766 137.615 28 135.755 28C132.718 28 130.255 25.5376 130.255 22.5C130.255 19.4624 132.718 17 135.755 17C137.615 17 139.26 17.9234 140.255 19.3369V19C140.255 18.4477 140.703 18 141.255 18C141.807 18 142.255 18.4477 142.255 19V27C142.255 27.5523 141.807 28 141.255 28C140.703 28 140.255 27.5523 140.255 27V25.6631Z" fill="white" fill-opacity="0.5"/>
<path fill-rule="evenodd" clip-rule="evenodd" d="M108.505 16.0081C108.509 15.6491 108.221 15.3552 107.862 15.3516C107.503 15.348 107.209 15.6361 107.205 15.9951L107.105 25.9951H107.105V26.0016C107.105 26.6088 107.261 27.3265 107.895 27.8701C108.503 28.3919 109.439 28.6516 110.755 28.6516C111.114 28.6516 111.405 28.3605 111.405 28.0016C111.405 27.6426 111.114 27.3516 110.755 27.3516C109.571 27.3516 109.007 27.1112 108.741 26.883C108.501 26.6772 108.406 26.3957 108.405 26.0046L108.457 20.8H110.855C111.214 20.8 111.505 20.509 111.505 20.15C111.505 19.791 111.214 19.5 110.855 19.5H108.47L108.505 16.0081Z" fill="white" fill-opacity="0.5"/>
<path d="M116.863 18C115.363 18 113.863 18 113.363 20.0024C113.121 20.9703 113.363 25.5 113.363 28" stroke="white" stroke-opacity="0.5" stroke-width="1.5" stroke-linecap="round"/>
<path d="M119.269 22.5H128.129C128.129 21 127.229 18 123.629 18C120.029 18 119.129 21.5 119.269 23C119.409 24.5 120.429 27 123.629 27C125.129 27 126.729 25.9 127.129 25.5" stroke="white" stroke-opacity="0.5" stroke-width="2" stroke-linecap="round"/>
<path d="M104.254 19.5C103.755 18.5 102.756 18 101.255 18V18C98.7928 18 97.8821 21.2277 100.15 22.1871C100.616 22.3844 101.149 22.595 101.756 22.819C102.088 22.9412 102.431 23.0272 102.767 23.135C103.718 23.4401 105.087 24.1711 104.755 25.5C104.255 27.5 102.255 27.5 101.755 27.5C101.255 27.5 99.2542 27.5 98.2542 25.5" stroke="white" stroke-opacity="0.5" stroke-width="1.1" stroke-linecap="round"/>
<rect x="0.227295" width="180" height="44" rx="12" fill="white" fill-opacity="0.1"/>
</svg>
