<svg width="57" height="56" viewBox="0 0 57 56" fill="none" xmlns="http://www.w3.org/2000/svg">
<rect x="0.5" width="56" height="56" rx="28" fill="white"/>
<path fill-rule="evenodd" clip-rule="evenodd" d="M21.5 32.25C21.9142 32.25 22.25 32.5858 22.25 33V35C22.25 35.1381 22.3619 35.25 22.5 35.25H34.5C34.6381 35.25 34.75 35.1381 34.75 35V33C34.75 32.5858 35.0858 32.25 35.5 32.25C35.9142 32.25 36.25 32.5858 36.25 33V35C36.25 35.9665 35.4665 36.75 34.5 36.75H22.5C21.5335 36.75 20.75 35.9665 20.75 35V33C20.75 32.5858 21.0858 32.25 21.5 32.25Z" fill="#874AB0"/>
<path d="M27.2379 19.75C26.7236 19.75 26.2945 20.1431 26.2495 20.6555C26.0959 22.4083 26.0688 24.1696 26.1684 25.9258C25.9214 25.9395 25.6745 25.9553 25.4277 25.9733L23.9382 26.0819C23.3639 26.1237 23.0429 26.7641 23.3529 27.2493C24.415 28.9114 25.7834 30.3563 27.3854 31.5071L27.9821 31.9358C28.2916 32.1581 28.7085 32.1581 29.018 31.9358L29.6147 31.5071C31.2167 30.3563 32.5851 28.9114 33.6472 27.2493C33.9572 26.7641 33.6362 26.1237 33.0619 26.0819L31.5724 25.9733C31.3256 25.9553 31.0787 25.9395 30.8317 25.9258C30.9313 24.1696 30.9042 22.4083 30.7506 20.6555C30.7056 20.1431 30.2765 19.75 29.7622 19.75H27.2379Z" fill="#874AB0"/>
</svg>
