<svg width="18" height="18" viewBox="0 0 18 18" fill="none" xmlns="http://www.w3.org/2000/svg">
<path fill-rule="evenodd" clip-rule="evenodd" d="M8.05348 2.4375C7.47327 2.4375 6.98928 2.88092 6.93861 3.45892C6.83268 4.66738 6.80587 5.88123 6.85827 7.0927C6.79502 7.09693 6.73178 7.10136 6.66855 7.10596L5.55142 7.1874C4.83739 7.23945 4.43823 8.03562 4.82372 8.63891C5.64585 9.92554 6.70519 11.0441 7.94527 11.9349L8.39283 12.2564C8.75569 12.517 9.24443 12.517 9.60729 12.2564L10.0548 11.9349C11.2949 11.0441 12.3543 9.92554 13.1764 8.63891C13.5619 8.03562 13.1627 7.23945 12.4487 7.1874L11.3316 7.10596C11.2683 7.10136 11.2051 7.09693 11.1418 7.0927C11.1942 5.88123 11.1674 4.66738 11.0615 3.45891C11.0108 2.88092 10.5268 2.4375 9.94664 2.4375H8.05348ZM8.01118 7.58605C7.92589 6.24563 7.94182 4.90063 8.05885 3.5625H9.94127C10.0583 4.90063 10.0742 6.24563 9.98894 7.58605C9.97938 7.73632 10.0305 7.88416 10.1308 7.99646C10.2311 8.10877 10.3722 8.17617 10.5226 8.18358C10.7651 8.19553 11.0075 8.21033 11.2498 8.22799L12.0611 8.28713C11.3414 9.3471 10.4403 10.2728 9.3985 11.0212L9.00006 11.3074L8.60162 11.0212C7.55979 10.2728 6.65868 9.3471 5.93902 8.28713L6.75034 8.22799C6.99258 8.21033 7.23498 8.19553 7.47749 8.18358C7.62789 8.17617 7.76903 8.10877 7.86934 7.99646C7.96965 7.88416 8.02074 7.73632 8.01118 7.58605Z" fill="white"/>
<path d="M4.3125 12.75C4.3125 12.4393 4.06066 12.1875 3.75 12.1875C3.43934 12.1875 3.1875 12.4393 3.1875 12.75V14.25C3.1875 14.9749 3.77513 15.5625 4.5 15.5625H13.5C14.2249 15.5625 14.8125 14.9749 14.8125 14.25V12.75C14.8125 12.4393 14.5607 12.1875 14.25 12.1875C13.9393 12.1875 13.6875 12.4393 13.6875 12.75V14.25C13.6875 14.3536 13.6036 14.4375 13.5 14.4375H4.5C4.39645 14.4375 4.3125 14.3536 4.3125 14.25V12.75Z" fill="white"/>
</svg>
