<svg width="18" height="19" viewBox="0 0 18 19" fill="none" xmlns="http://www.w3.org/2000/svg">
<path d="M9 8.25C9.41421 8.25 9.75 8.58579 9.75 9V14C9.75 14.4142 9.41421 14.75 9 14.75C8.58579 14.75 8.25 14.4142 8.25 14V9C8.25 8.58579 8.58579 8.25 9 8.25Z" fill="#DE3452"/>
<path d="M9 6.5C9.55228 6.5 10 6.05228 10 5.5C10 4.94772 9.55228 4.5 9 4.5C8.44772 4.5 8 4.94772 8 5.5C8 6.05228 8.44772 6.5 9 6.5Z" fill="#DE3452"/>
<path fill-rule="evenodd" clip-rule="evenodd" d="M0.25 9.5C0.25 4.66751 4.16751 0.75 9 0.75C13.8325 0.75 17.75 4.66751 17.75 9.5C17.75 14.3325 13.8325 18.25 9 18.25C4.16751 18.25 0.25 14.3325 0.25 9.5ZM9 2.25C4.99594 2.25 1.75 5.49594 1.75 9.5C1.75 13.5041 4.99594 16.75 9 16.75C13.0041 16.75 16.25 13.5041 16.25 9.5C16.25 5.49594 13.0041 2.25 9 2.25Z" fill="#DE3452"/>
</svg>
