<svg width="32" height="32" viewBox="0 0 32 32" fill="none" xmlns="http://www.w3.org/2000/svg">
<path fill-rule="evenodd" clip-rule="evenodd" d="M5.6665 6.66667C5.6665 4.64162 7.30813 3 9.33317 3H19.9823C20.7339 3 21.4396 3.3621 21.8779 3.97273L25.8954 9.56993C26.1801 9.96651 26.3332 10.4424 26.3332 10.9305V25.3333C26.3332 27.3584 24.6915 29 22.6665 29H9.33317C7.30813 29 5.6665 27.3584 5.6665 25.3333V6.66667ZM9.33317 5C8.4127 5 7.6665 5.74619 7.6665 6.66667V25.3333C7.6665 26.2538 8.4127 27 9.33317 27H22.6665C23.587 27 24.3332 26.2538 24.3332 25.3333V11.8627H19.9998C19.4476 11.8627 18.9998 11.415 18.9998 10.8627V5H9.33317Z" fill="white"/>
</svg>
