<svg width="24" height="25" viewBox="0 0 24 25" fill="none" xmlns="http://www.w3.org/2000/svg">
<path fill-rule="evenodd" clip-rule="evenodd" d="M4.25 5.5C4.25 3.98122 5.48122 2.75 7 2.75H14.9868C15.5506 2.75 16.0798 3.02157 16.4085 3.47955L19.4217 7.67745C19.6352 7.97488 19.75 8.33178 19.75 8.6979V19.5C19.75 21.0188 18.5188 22.25 17 22.25H7C5.48122 22.25 4.25 21.0188 4.25 19.5V5.5ZM7 4.25C6.30964 4.25 5.75 4.80964 5.75 5.5V19.5C5.75 20.1904 6.30964 20.75 7 20.75H17C17.6904 20.75 18.25 20.1904 18.25 19.5V9.39705H15C14.5858 9.39705 14.25 9.06126 14.25 8.64705V4.25H7Z" fill="white" fill-opacity="0.3"/>
</svg>
