<svg width="28" height="28" viewBox="0 0 28 28" fill="none" xmlns="http://www.w3.org/2000/svg">
<rect width="28" height="28" rx="4" fill="white" fill-opacity="0.05"/>
<g opacity="0.5">
<path fill-rule="evenodd" clip-rule="evenodd" d="M8.25 7.5C8.25 5.70507 9.70507 4.25 11.5 4.25C12.5052 4.25 13.4038 4.70637 14 5.42322C14.5962 4.70637 15.4948 4.25 16.5 4.25C18.2949 4.25 19.75 5.70507 19.75 7.5C19.75 8.14432 19.5625 8.74485 19.2391 9.25H20C21.5188 9.25 22.75 10.4812 22.75 12V14C22.75 14.8042 22.2076 15.4816 21.4687 15.6865C21.6128 17.5131 21.5293 19.3517 21.2195 21.1597C21.0345 22.2394 20.1576 23.0665 19.069 23.1881L18.1545 23.2903C15.3934 23.5989 12.6066 23.5989 9.84548 23.2903L8.93101 23.1881C7.84239 23.0665 6.96552 22.2394 6.78052 21.1597C6.47069 19.3517 6.38724 17.5131 6.53131 15.6865C5.7924 15.4816 5.25 14.8042 5.25 14V12C5.25 10.4812 6.48122 9.25 8 9.25H8.76091C8.4375 8.74485 8.25 8.14432 8.25 7.5ZM13.25 7.5C13.25 6.5335 12.4665 5.75 11.5 5.75C10.5335 5.75 9.75 6.5335 9.75 7.5C9.75 8.4665 10.5335 9.25 11.5 9.25C12.4665 9.25 13.25 8.4665 13.25 7.5ZM16.5 9.25C17.4665 9.25 18.25 8.4665 18.25 7.5C18.25 6.5335 17.4665 5.75 16.5 5.75C15.5335 5.75 14.75 6.5335 14.75 7.5C14.75 8.4665 15.5335 9.25 16.5 9.25ZM6.75 12C6.75 11.3096 7.30964 10.75 8 10.75H13.25V14.25H7C6.86193 14.25 6.75 14.1381 6.75 14V12ZM14.75 15.75H19.969C20.1093 17.4706 20.0329 19.203 19.741 20.9064C19.6689 21.3274 19.3269 21.65 18.9024 21.6974L17.9879 21.7996C16.9116 21.9199 15.8312 21.9914 14.75 22.014V15.75ZM14.75 14.25H21C21.1381 14.25 21.25 14.1381 21.25 14V12C21.25 11.3096 20.6904 10.75 20 10.75H14.75V14.25ZM13.25 15.75V22.014C12.1688 21.9914 11.0884 21.9199 10.0121 21.7996L9.09762 21.6974C8.67308 21.65 8.33112 21.3274 8.25897 20.9064C7.96708 19.203 7.89074 17.4706 8.03103 15.75H13.25Z" fill="white"/>
</g>
</svg>
