<svg width="25" height="25" viewBox="0 0 25 25" fill="none" xmlns="http://www.w3.org/2000/svg">
<path fill-rule="evenodd" clip-rule="evenodd" d="M14.0579 6.03423C13.1873 5.19887 11.8128 5.19887 10.9422 6.03423L6.3158 10.4736C6.20245 10.5823 6.1262 10.724 6.09787 10.8785C5.54373 13.9004 5.50283 16.994 5.97687 20.0295L6.08939 20.75H9.06585V14.5387C9.06585 14.1244 9.40164 13.7887 9.81585 13.7887H15.1843C15.5985 13.7887 15.9343 14.1244 15.9343 14.5387V20.75H18.9107L19.0232 20.0295C19.4973 16.994 19.4564 13.9004 18.9023 10.8785C18.8739 10.724 18.7977 10.5823 18.6843 10.4736L14.0579 6.03423ZM9.90369 4.95191C11.3546 3.55965 13.6455 3.55965 15.0964 4.95191L19.7229 9.39125C20.0634 9.71804 20.2925 10.1437 20.3777 10.608C20.9622 13.7956 21.0053 17.059 20.5053 20.2609L20.3245 21.4184C20.2498 21.8971 19.8375 22.25 19.353 22.25H15.1843C14.7701 22.25 14.4343 21.9142 14.4343 21.5V15.2887H10.5659V21.5C10.5659 21.9142 10.2301 22.25 9.81585 22.25H5.64712C5.16264 22.25 4.75035 21.8971 4.6756 21.4184L4.49484 20.2609C3.99479 17.059 4.03794 13.7956 4.62247 10.608C4.7076 10.1437 4.93668 9.71804 5.27725 9.39125L9.90369 4.95191Z" fill="#5F5F5F"/>
</svg>
