<svg width="195" height="291" viewBox="0 0 195 291" fill="none" xmlns="http://www.w3.org/2000/svg">
<path d="M58.4999 206.516C58.4999 194.09 68.5735 184.016 80.9999 184.016C93.4264 184.016 103.5 194.09 103.5 206.516C103.5 218.943 93.4264 229.016 80.9999 229.016C68.5735 229.016 58.4999 218.943 58.4999 206.516Z" fill="white" fill-opacity="0.05"/>
<path fill-rule="evenodd" clip-rule="evenodd" d="M15.3247 125.473L10.5931 82.8888C9.98647 77.4292 9.98647 71.9191 10.5931 66.4594L10.9346 63.3859C14.5569 30.7851 40.1859 4.99022 72.7627 1.15766C78.2351 0.513853 83.7641 0.513853 89.2365 1.15766C121.813 4.99023 147.442 30.7851 151.065 63.386L151.406 66.4594C152.013 71.9191 152.013 77.4291 151.406 82.8888L146.674 125.473L156.973 126.296C173.214 127.592 186.476 139.801 189.109 155.879C194.6 189.414 194.6 223.619 189.109 257.153C186.476 273.232 173.214 285.44 156.973 286.737L134.532 288.529C98.9008 291.373 63.0999 291.373 27.4692 288.529L5.02721 286.737C-11.2137 285.44 -24.4753 273.232 -27.108 257.153C-32.5991 223.619 -32.5991 189.414 -27.108 155.879C-24.4753 139.801 -11.2137 127.592 5.02721 126.296L15.3247 125.473ZM75.3917 23.5036C79.1174 23.0652 82.8818 23.0652 86.6075 23.5036C108.787 26.1129 126.236 43.6749 128.702 65.8707L129.044 68.9441C129.467 72.7524 129.467 76.5958 129.044 80.4041L124.226 123.761C95.4383 121.907 66.5609 121.907 37.7729 123.761L32.9555 80.4041C32.5323 76.5958 32.5323 72.7524 32.9555 68.9441L33.297 65.8707C35.7632 43.6749 53.2123 26.1129 75.3917 23.5036ZM132.741 146.933C98.302 144.183 63.6987 144.183 29.2597 146.933L6.81773 148.724C0.893795 149.197 -3.94341 153.65 -4.90371 159.515C-10.0005 190.642 -10.0005 222.391 -4.90371 253.518C-3.94341 259.382 0.893803 263.835 6.81774 264.308L29.2597 266.1C63.6987 268.849 98.3021 268.849 132.741 266.1L155.183 264.308C161.107 263.835 165.944 259.382 166.904 253.518C172.001 222.391 172.001 190.642 166.904 159.515C165.944 153.65 161.107 149.197 155.183 148.724L132.741 146.933Z" fill="white" fill-opacity="0.05"/>
</svg>
