<svg width="24" height="25" viewBox="0 0 24 25" fill="none" xmlns="http://www.w3.org/2000/svg">
<path d="M10.4998 16.5001C10.4998 15.6717 11.1714 15.0001 11.9998 15.0001C12.8282 15.0001 13.4998 15.6717 13.4998 16.5001C13.4998 17.3285 12.8282 18.0001 11.9998 18.0001C11.1714 18.0001 10.4998 17.3285 10.4998 16.5001Z" fill="white" fill-opacity="0.3"/>
<path fill-rule="evenodd" clip-rule="evenodd" d="M7.62147 11.0973L7.30603 8.25828C7.26559 7.8943 7.26559 7.52696 7.30603 7.16298L7.32879 6.95809C7.57028 4.7847 9.27888 3.06504 11.4507 2.80953C11.8155 2.76661 12.1841 2.76661 12.5489 2.80953C14.7207 3.06504 16.4293 4.7847 16.6708 6.95809L16.6936 7.16298C16.734 7.52696 16.734 7.8943 16.6936 8.25828L16.3781 11.0972L17.0647 11.1521C18.1474 11.2385 19.0316 12.0524 19.2071 13.1243C19.5731 15.3599 19.5731 17.6403 19.2071 19.8759C19.0316 20.9478 18.1474 21.7617 17.0647 21.8482L15.5686 21.9676C13.1932 22.1572 10.8065 22.1572 8.4311 21.9676L6.93497 21.8482C5.85224 21.7617 4.96814 20.9478 4.79262 19.8759C4.42655 17.6403 4.42655 15.3599 4.79262 13.1243C4.96814 12.0524 5.85224 11.2385 6.93497 11.1521L7.62147 11.0973ZM11.6259 4.29926C11.8743 4.27004 12.1253 4.27004 12.3737 4.29926C13.8523 4.47322 15.0156 5.64402 15.18 7.12373L15.2027 7.32863C15.2309 7.58252 15.2309 7.83874 15.2027 8.09263L14.8816 10.9831C12.9624 10.8595 11.0372 10.8595 9.11801 10.9831L8.79685 8.09263C8.76864 7.83875 8.76864 7.58252 8.79685 7.32863L8.81962 7.12373C8.98403 5.64402 10.1473 4.47322 11.6259 4.29926ZM15.4492 12.5279C13.1533 12.3446 10.8464 12.3446 8.55047 12.5279L7.05434 12.6473C6.65941 12.6788 6.33693 12.9757 6.27291 13.3667C5.93312 15.4418 5.93312 17.5584 6.27291 19.6335C6.33693 20.0245 6.65941 20.3214 7.05434 20.3529L8.55047 20.4723C10.8464 20.6556 13.1533 20.6556 15.4492 20.4723L16.9454 20.3529C17.3403 20.3214 17.6628 20.0245 17.7268 19.6335C18.0666 17.5584 18.0666 15.4418 17.7268 13.3667C17.6628 12.9757 17.3403 12.6788 16.9454 12.6473L15.4492 12.5279Z" fill="white" fill-opacity="0.3"/>
</svg>
