<svg width="17" height="16" viewBox="0 0 17 16" fill="none"
    xmlns="http://www.w3.org/2000/svg">
    <path
        d="M9.00033 13.7292C8.62063 13.7292 8.31283 14.037 8.31283 14.4167C8.31283 14.7964 8.62063 15.1042 9.00033 15.1042H14.5003C15.3863 15.1042 16.1045 14.386 16.1045 13.5V2.50004C16.1045 1.61408 15.3863 0.895874 14.5003 0.895874H9.00032C8.62063 0.895874 8.31282 1.20368 8.31282 1.58337C8.31282 1.96307 8.62063 2.27087 9.00032 2.27087L14.5003 2.27087C14.6269 2.27087 14.7295 2.37348 14.7295 2.50004L14.7295 13.5C14.7295 13.6266 14.6269 13.7292 14.5003 13.7292H9.00033Z"
        fill="#767679" />
    <path fill-rule="evenodd" clip-rule="evenodd"
        d="M0.979492 9.02233C0.979492 9.65515 1.4925 10.1682 2.12533 10.1682H6.35354C6.35952 10.2355 6.36578 10.3027 6.37232 10.37L6.42184 10.8796C6.4974 11.657 7.32296 12.1226 8.02734 11.785C9.52538 11.0671 10.9725 9.98971 12.1215 8.79002C12.547 8.34574 12.547 7.64509 12.1215 7.20081L12.0306 7.10587C10.8815 5.90617 9.52538 4.92374 8.02734 4.20581C7.32296 3.86824 6.4974 4.33383 6.42184 5.11126L6.37232 5.62082C6.36578 5.68809 6.35952 5.75538 6.35354 5.82269L2.12533 5.82269C1.4925 5.82269 0.979492 6.33569 0.979492 6.96852V9.02233ZM7.6741 9.40317C7.63515 9.05763 7.34237 8.79316 6.99097 8.79316H2.35449V7.19769H6.99096C7.35404 7.19769 7.65453 6.91536 7.67713 6.55298C7.69376 6.28634 7.71501 6.01992 7.74087 5.75383L7.75524 5.60593C8.95134 6.22234 10.04 7.0292 10.9782 7.99542C10.5865 8.39884 10.1685 8.77448 9.72746 9.12008C9.11217 9.6022 8.45194 10.0259 7.75524 10.3849L7.74087 10.237C7.71501 9.97092 7.69376 9.7045 7.67713 9.43786C7.67641 9.42621 7.67539 9.41465 7.6741 9.40317Z"
        fill="#767679" />
</svg>