<svg width="144" height="40" viewBox="0 0 144 40" fill="none" xmlns="http://www.w3.org/2000/svg">
<path d="M6.78147 9.27678C5.59999 8.54871 3.8788 9.33222 4.00674 10.7493L4.04406 11.1626C4.61337 17.4684 5.81745 23.7154 7.64165 29.8279C8.07609 31.2837 10.2595 31.4091 10.9224 30.0598L13.667 24.4731C13.9294 23.9391 14.5665 23.5962 15.2579 23.6645L22.0483 24.3354C23.6069 24.4893 24.7084 22.7338 23.4593 21.6214C18.4451 17.1561 12.9912 13.1034 7.16366 9.51229L6.78147 9.27678Z" fill="white"/>
<path d="M39.4922 24.7266C38.6641 24.7266 37.8958 24.5885 37.1875 24.3125C36.4844 24.0312 35.8802 23.6406 35.375 23.1406C34.875 22.6406 34.4844 22.026 34.2031 21.2969C33.9219 20.5677 33.7812 19.7682 33.7812 18.8984C33.7812 17.737 34.0234 16.7135 34.5078 15.8281C34.9974 14.9427 35.6719 14.263 36.5312 13.7891C37.3958 13.3151 38.3828 13.0781 39.4922 13.0781C40.9401 13.0781 42.1667 13.4792 43.1719 14.2812C44.1771 15.0833 44.8177 16.1693 45.0938 17.5391H42.4375C42.2083 16.8516 41.8438 16.3203 41.3438 15.9453C40.849 15.5703 40.2318 15.3828 39.4922 15.3828C38.513 15.3828 37.7318 15.7031 37.1484 16.3438C36.5703 16.9792 36.2812 17.8307 36.2812 18.8984C36.2812 19.9714 36.5729 20.8281 37.1562 21.4688C37.7396 22.1042 38.5182 22.4219 39.4922 22.4219C40.2318 22.4219 40.849 22.2344 41.3438 21.8594C41.8438 21.4792 42.2083 20.9453 42.4375 20.2578H45.0938C44.8177 21.6276 44.1771 22.7161 43.1719 23.5234C42.1667 24.3255 40.9401 24.7266 39.4922 24.7266ZM49.1719 24.5C48.2656 24.5 47.6094 24.2969 47.2031 23.8906C46.8021 23.4792 46.6016 22.8177 46.6016 21.9062V13.2969H48.9531V21.7188C48.9531 21.9427 48.9922 22.0938 49.0703 22.1719C49.1484 22.25 49.2995 22.2891 49.5234 22.2891H50.4844V24.5H49.1719ZM54.2344 15.2031C53.974 15.4167 53.638 15.5234 53.2266 15.5234C52.8151 15.5234 52.4766 15.4167 52.2109 15.2031C51.9505 14.9896 51.8203 14.7031 51.8203 14.3438C51.8203 13.9792 51.9505 13.6875 52.2109 13.4688C52.4766 13.25 52.8151 13.1406 53.2266 13.1406C53.638 13.1406 53.974 13.25 54.2344 13.4688C54.5 13.6875 54.6328 13.9792 54.6328 14.3438C54.6328 14.7031 54.5 14.9896 54.2344 15.2031ZM52.0469 24.5V16.4062H54.3984V24.5H52.0469ZM60.3438 24.7266C59.0833 24.7266 58.0651 24.3411 57.2891 23.5703C56.513 22.7995 56.125 21.7604 56.125 20.4531C56.125 19.1458 56.513 18.1068 57.2891 17.3359C58.0651 16.5651 59.0833 16.1797 60.3438 16.1797C60.8385 16.1797 61.3073 16.2448 61.75 16.375C62.1927 16.5052 62.6042 16.7005 62.9844 16.9609C63.3698 17.2214 63.6979 17.5729 63.9688 18.0156C64.2396 18.4531 64.4297 18.9609 64.5391 19.5391H62.0938C61.75 18.7266 61.1667 18.3203 60.3438 18.3203C59.776 18.3203 59.3229 18.5104 58.9844 18.8906C58.6458 19.2708 58.4766 19.7917 58.4766 20.4531C58.4766 21.1094 58.6432 21.625 58.9766 22C59.3151 22.375 59.7708 22.5625 60.3438 22.5625C61.1719 22.5625 61.7552 22.1641 62.0938 21.3672H64.5391C64.4297 21.9401 64.2396 22.4479 63.9688 22.8906C63.6979 23.3281 63.3724 23.6797 62.9922 23.9453C62.612 24.2057 62.1979 24.401 61.75 24.5312C61.3073 24.6615 60.8385 24.7266 60.3438 24.7266ZM65.9141 24.5V13.2969H68.2656V19.2969H69.2422L71.5625 16.4062H74.375L71.1953 20.3594L74.5391 24.5H71.6406L69.1641 21.3984H68.2656V24.5H65.9141ZM81.1953 24.7266C80.3672 24.7266 79.599 24.5885 78.8906 24.3125C78.1875 24.0312 77.5833 23.6406 77.0781 23.1406C76.5781 22.6406 76.1875 22.026 75.9062 21.2969C75.625 20.5677 75.4844 19.7682 75.4844 18.8984C75.4844 17.737 75.7266 16.7135 76.2109 15.8281C76.7005 14.9427 77.375 14.263 78.2344 13.7891C79.099 13.3151 80.0859 13.0781 81.1953 13.0781C82.6432 13.0781 83.8698 13.4792 84.875 14.2812C85.8802 15.0833 86.5208 16.1693 86.7969 17.5391H84.1406C83.9115 16.8516 83.5469 16.3203 83.0469 15.9453C82.5521 15.5703 81.9349 15.3828 81.1953 15.3828C80.2161 15.3828 79.4349 15.7031 78.8516 16.3438C78.2734 16.9792 77.9844 17.8307 77.9844 18.8984C77.9844 19.9714 78.276 20.8281 78.8594 21.4688C79.4427 22.1042 80.2214 22.4219 81.1953 22.4219C81.9349 22.4219 82.5521 22.2344 83.0469 21.8594C83.5469 21.4792 83.9115 20.9453 84.1406 20.2578H86.7969C86.5208 21.6276 85.8802 22.7161 84.875 23.5234C83.8698 24.3255 82.6432 24.7266 81.1953 24.7266ZM92.2734 24.7266C91.0182 24.7266 89.987 24.3359 89.1797 23.5547C88.3724 22.7734 87.9688 21.7396 87.9688 20.4531C87.9688 19.1615 88.3698 18.1276 89.1719 17.3516C89.9792 16.5703 91.013 16.1797 92.2734 16.1797C93.5391 16.1797 94.5755 16.5703 95.3828 17.3516C96.1901 18.1276 96.5938 19.1615 96.5938 20.4531C96.5938 21.7396 96.1901 22.7734 95.3828 23.5547C94.5755 24.3359 93.5391 24.7266 92.2734 24.7266ZM90.8672 21.9922C91.237 22.3724 91.7057 22.5625 92.2734 22.5625C92.8411 22.5625 93.3099 22.3724 93.6797 21.9922C94.0495 21.612 94.2344 21.099 94.2344 20.4531C94.2344 19.8021 94.0495 19.2839 93.6797 18.8984C93.3099 18.513 92.8411 18.3203 92.2734 18.3203C91.7109 18.3203 91.2448 18.513 90.875 18.8984C90.5052 19.2839 90.3203 19.8021 90.3203 20.4531C90.3203 21.099 90.5026 21.612 90.8672 21.9922ZM98.0703 24.5V16.4062H100.422V17.2969H100.484C101.229 16.5521 102.094 16.1797 103.078 16.1797C103.969 16.1797 104.708 16.4792 105.297 17.0781C105.885 17.6719 106.18 18.5286 106.18 19.6484V24.5H103.812V20.0859C103.812 19.7682 103.763 19.4922 103.664 19.2578C103.57 19.0182 103.443 18.8385 103.281 18.7188C103.125 18.5938 102.958 18.5026 102.781 18.4453C102.604 18.388 102.419 18.3594 102.227 18.3594C101.727 18.3594 101.299 18.5365 100.945 18.8906C100.596 19.2448 100.422 19.7656 100.422 20.4531V24.5H98.0703ZM111.711 24.5C109.909 24.5 109.008 23.599 109.008 21.7969V18.5469H107.234V16.4062H109.008V13.9062H111.359V16.4062H115.164V18.5469H111.359V21.6172C111.359 21.8828 111.411 22.0703 111.516 22.1797C111.625 22.2891 111.812 22.3438 112.078 22.3438H115.164V24.5H111.711ZM120.438 24.7266C119.651 24.7266 118.938 24.5547 118.297 24.2109C117.661 23.862 117.156 23.3594 116.781 22.7031C116.406 22.0469 116.219 21.2969 116.219 20.4531C116.219 19.6094 116.406 18.8594 116.781 18.2031C117.161 17.5469 117.669 17.0469 118.305 16.7031C118.945 16.3542 119.656 16.1797 120.438 16.1797C121.224 16.1797 121.93 16.3464 122.555 16.6797C123.185 17.013 123.682 17.5026 124.047 18.1484C124.417 18.7891 124.602 19.5312 124.602 20.375L124.57 21.2031H118.602C118.706 21.7083 118.919 22.1068 119.242 22.3984C119.57 22.6901 119.969 22.8359 120.438 22.8359C120.766 22.8359 121.062 22.7682 121.328 22.6328C121.599 22.4922 121.815 22.2943 121.977 22.0391H124.422C124.156 22.7943 123.674 23.4323 122.977 23.9531C122.279 24.4688 121.432 24.7266 120.438 24.7266ZM118.633 19.5078H122.188C122.073 19.0807 121.87 18.7344 121.578 18.4688C121.292 18.2031 120.911 18.0703 120.438 18.0703C119.99 18.0703 119.609 18.1979 119.297 18.4531C118.984 18.7031 118.763 19.0547 118.633 19.5078ZM126.07 24.5V16.4062H128.422V17.2969H128.484C129.229 16.5521 130.094 16.1797 131.078 16.1797C131.969 16.1797 132.708 16.4792 133.297 17.0781C133.885 17.6719 134.18 18.5286 134.18 19.6484V24.5H131.812V20.0859C131.812 19.7682 131.763 19.4922 131.664 19.2578C131.57 19.0182 131.443 18.8385 131.281 18.7188C131.125 18.5938 130.958 18.5026 130.781 18.4453C130.604 18.388 130.419 18.3594 130.227 18.3594C129.727 18.3594 129.299 18.5365 128.945 18.8906C128.596 19.2448 128.422 19.7656 128.422 20.4531V24.5H126.07ZM139.711 24.5C137.909 24.5 137.008 23.599 137.008 21.7969V18.5469H135.234V16.4062H137.008V13.9062H139.359V16.4062H143.164V18.5469H139.359V21.6172C139.359 21.8828 139.411 22.0703 139.516 22.1797C139.625 22.2891 139.812 22.3438 140.078 22.3438H143.164V24.5H139.711Z" fill="white"/>
</svg>
