<svg width="241" height="226" viewBox="0 0 241 226" fill="none" xmlns="http://www.w3.org/2000/svg">
<path fill-rule="evenodd" clip-rule="evenodd" d="M-37.9446 58.2995C-42.1467 97.343 -41.9594 142.373 -36.112 181.258C-32.8766 202.774 -15.3165 219.268 6.35951 221.152L29.013 223.122C76.2487 227.228 123.752 227.228 170.987 223.122L193.641 221.152C215.317 219.268 232.877 202.774 236.112 181.258C241.96 142.373 242.147 97.3455 237.945 58.3019C237.402 53.7755 236.791 49.2552 236.112 44.7424C232.877 23.2266 215.317 6.73189 193.641 4.84764L170.987 2.87841C123.752 -1.2277 76.2487 -1.2277 29.013 2.87841L6.3595 4.84764C-15.3165 6.73189 -32.8766 23.2266 -36.112 44.7424C-36.7905 49.2544 -37.4014 53.7739 -37.9446 58.2995ZM30.9615 25.2939C76.9006 21.3005 123.1 21.3005 169.039 25.2939L191.692 27.2631C203.007 28.2467 212.174 36.8569 213.863 48.0883C214.038 49.2546 214.209 50.4215 214.374 51.5889L130.959 97.9306C111.705 108.627 88.2938 108.627 69.0399 97.9306L-14.3742 51.5895C-14.2083 50.4219 -14.0376 49.2548 -13.8622 48.0883C-12.1733 36.8569 -3.0069 28.2467 8.30803 27.2631L30.9615 25.2939ZM217.128 75.7984C220.037 109.815 218.949 144.087 213.862 177.912C212.174 189.143 203.007 197.753 191.692 198.737L169.039 200.706C123.1 204.7 76.9006 204.7 30.9615 200.706L8.30804 198.737C-3.0069 197.753 -12.1733 189.143 -13.8622 177.912C-18.9485 144.088 -20.037 109.815 -17.1274 75.799L58.1129 117.599C84.1623 132.071 115.837 132.071 141.886 117.599L217.128 75.7984Z" fill="white" fill-opacity="0.05"/>
</svg>
