<svg width="123" height="102" viewBox="0 0 123 102" fill="none" xmlns="http://www.w3.org/2000/svg">
<path d="M33.6663 36.2916C28.7763 36.2916 24.8122 40.2558 24.8122 45.1458C24.8122 50.0358 28.7763 54 33.6663 54C38.5564 54 42.5205 50.0358 42.5205 45.1458C42.5205 40.2558 38.5564 36.2916 33.6663 36.2916Z" fill="white" fill-opacity="0.07"/>
<path d="M61.9997 36.2916C57.1097 36.2916 53.1455 40.2558 53.1455 45.1458C53.1455 50.0358 57.1097 54 61.9997 54C66.8897 54 70.8538 50.0358 70.8538 45.1458C70.8538 40.2558 66.8897 36.2916 61.9997 36.2916Z" fill="white" fill-opacity="0.07"/>
<path d="M81.4788 45.1458C81.4788 40.2558 85.443 36.2916 90.333 36.2916C95.223 36.2916 99.1872 40.2558 99.1872 45.1458C99.1872 50.0358 95.223 54 90.333 54C85.443 54 81.4788 50.0358 81.4788 45.1458Z" fill="white" fill-opacity="0.07"/>
<path fill-rule="evenodd" clip-rule="evenodd" d="M91.0465 1.53223C71.9626 -0.0952295 52.779 -0.189678 33.6801 1.2498L32.3114 1.35296C14.098 2.7257 0.0205078 17.9041 0.0205078 36.1692V96.5C0.0205078 98.3691 1.00272 100.101 2.60698 101.06C4.21123 102.019 6.20146 102.064 7.84786 101.18L35.5493 86.2924C36.8378 85.5999 38.2779 85.2375 39.7407 85.2375H103.324C111.343 85.2375 118.215 79.5043 119.652 71.6152C122.565 55.6265 122.796 39.2642 120.333 23.1999L119.608 18.4659C118.286 9.84724 111.236 3.25397 102.548 2.51308L91.0465 1.53223ZM34.4786 11.8448C53.0111 10.448 71.6258 10.5396 90.1437 12.1188L101.645 13.0997C105.444 13.4236 108.527 16.3068 109.105 20.0757L109.831 24.8097C112.114 39.708 111.901 54.8825 109.199 69.7107C108.682 72.5495 106.209 74.6125 103.324 74.6125H39.7407C36.5225 74.6125 33.3544 75.4099 30.5196 76.9333L10.6455 87.6139V36.1692C10.6455 23.4623 20.439 12.9029 33.1099 11.9479L34.4786 11.8448Z" fill="white" fill-opacity="0.07"/>
</svg>
