<svg width="110" height="121" viewBox="0 0 110 121" fill="none" xmlns="http://www.w3.org/2000/svg">
<path fill-rule="evenodd" clip-rule="evenodd" d="M24.8962 30.125C24.8962 13.499 38.3743 0.020874 55.0003 0.020874C71.6264 0.020874 85.1045 13.499 85.1045 30.125C85.1045 46.7511 71.6264 60.2292 55.0003 60.2292C38.3743 60.2292 24.8962 46.7511 24.8962 30.125ZM55.0003 10.6459C44.2423 10.6459 35.5212 19.367 35.5212 30.125C35.5212 40.8831 44.2423 49.6042 55.0003 49.6042C65.7584 49.6042 74.4795 40.8831 74.4795 30.125C74.4795 19.367 65.7584 10.6459 55.0003 10.6459Z" fill="white" fill-opacity="0.07"/>
<path fill-rule="evenodd" clip-rule="evenodd" d="M26.667 81.4792C17.865 81.4792 10.7295 88.6147 10.7295 97.4167V105.834C10.7295 105.962 10.8224 106.071 10.9489 106.092C40.1234 110.855 69.8773 110.855 99.0518 106.092C99.1783 106.071 99.2712 105.962 99.2712 105.834V97.4167C99.2712 88.6147 92.1357 81.4792 83.3337 81.4792H80.9192C80.7325 81.4792 80.547 81.5087 80.3695 81.5667L74.2388 83.5685C61.7379 87.6505 48.2627 87.6505 35.7619 83.5685L29.6311 81.5667C29.4537 81.5087 29.2682 81.4792 29.0815 81.4792H26.667ZM0.104492 97.4167C0.104492 82.7467 11.9969 70.8542 26.667 70.8542H29.0815C30.3883 70.8542 31.6869 71.0609 32.9292 71.4665L39.0599 73.4684C49.4177 76.8505 60.5829 76.8505 70.9408 73.4684L77.0715 71.4665C78.3137 71.0609 79.6124 70.8542 80.9192 70.8542H83.3337C98.0037 70.8542 109.896 82.7466 109.896 97.4167V105.834C109.896 111.169 106.029 115.718 100.764 116.578C70.4555 121.526 39.5452 121.526 9.23683 116.578C3.97117 115.718 0.104492 111.169 0.104492 105.834V97.4167Z" fill="white" fill-opacity="0.07"/>
</svg>
