<svg width="52" height="50" viewBox="0 0 52 50" fill="none" xmlns="http://www.w3.org/2000/svg">
<rect width="52" height="50" rx="25" fill="#302635"/>
<path d="M34 16H22C20.8954 16 20 16.8954 20 18V21C20 21.5523 19.5523 22 19 22C17.3431 22 16 23.3431 16 25C16 26.6569 17.3431 28 19 28C19.5523 28 20 28.4477 20 29V32C20 33.1046 20.8954 34 22 34H24C24.5523 34 25 33.5523 25 33C25 31.3431 26.3431 30 28 30C29.6569 30 31 31.3431 31 33C31 33.5523 31.4477 34 32 34H34C35.1046 34 36 33.1046 36 32V29C36 28.4477 35.5523 28 35 28C33.3431 28 32 26.6569 32 25C32 23.3431 33.3431 22 35 22C35.5523 22 36 21.5523 36 21V18C36 16.8954 35.1046 16 34 16Z" stroke="white" stroke-linejoin="round"/>
</svg>
