<svg width="32" height="32" viewBox="0 0 32 32" fill="none" xmlns="http://www.w3.org/2000/svg">
<path fill-rule="evenodd" clip-rule="evenodd" d="M10.3327 10.0002C10.3327 6.87055 12.8697 4.3335 15.9993 4.3335C19.129 4.3335 21.666 6.87055 21.666 10.0002C21.666 13.1298 19.129 15.6668 15.9993 15.6668C12.8697 15.6668 10.3327 13.1298 10.3327 10.0002ZM15.9993 6.3335C13.9743 6.3335 12.3327 7.97512 12.3327 10.0002C12.3327 12.0252 13.9743 13.6668 15.9993 13.6668C18.0244 13.6668 19.666 12.0252 19.666 10.0002C19.666 7.97512 18.0244 6.3335 15.9993 6.3335Z" fill="white"/>
<path fill-rule="evenodd" clip-rule="evenodd" d="M10.666 19.6668C9.00916 19.6668 7.66602 21.01 7.66602 22.6668V24.2512C7.66602 24.2753 7.6835 24.2959 7.70731 24.2998C13.199 25.1964 18.7997 25.1964 24.2914 24.2998C24.3152 24.2959 24.3327 24.2753 24.3327 24.2512V22.6668C24.3327 21.01 22.9895 19.6668 21.3327 19.6668H20.8782C20.8431 19.6668 20.8081 19.6724 20.7747 19.6833L19.6207 20.0601C17.2676 20.8285 14.7311 20.8285 12.378 20.0601L11.224 19.6833C11.1906 19.6724 11.1556 19.6668 11.1205 19.6668H10.666ZM5.66602 22.6668C5.66602 19.9054 7.90459 17.6668 10.666 17.6668H11.1205C11.3665 17.6668 11.6109 17.7057 11.8448 17.7821L12.9988 18.1589C14.9485 18.7955 17.0502 18.7955 18.9999 18.1589L20.1539 17.7821C20.3878 17.7057 20.6322 17.6668 20.8782 17.6668H21.3327C24.0941 17.6668 26.3327 19.9054 26.3327 22.6668V24.2512C26.3327 25.2555 25.6048 26.1118 24.6137 26.2737C18.9086 27.2051 13.0901 27.2051 7.38504 26.2737C6.39386 26.1118 5.66602 25.2555 5.66602 24.2512V22.6668Z" fill="white"/>
</svg>
