<svg width="25" height="25" viewBox="0 0 25 25" fill="none" xmlns="http://www.w3.org/2000/svg">
<path d="M17.9995 14C18.8279 14 19.4995 13.3284 19.4995 12.5C19.4995 11.6716 18.8279 11 17.9995 11C17.1711 11 16.4995 11.6716 16.4995 12.5C16.4995 13.3284 17.1711 14 17.9995 14Z" fill="#5F5F5F"/>
<path fill-rule="evenodd" clip-rule="evenodd" d="M2.88416 7.49765C3.18778 6.18198 4.35932 5.25 5.70957 5.25H19.2894C20.6397 5.25 21.8112 6.18198 22.1148 7.49765C22.8744 10.7893 22.8744 14.2107 22.1148 17.5023C21.8112 18.818 20.6397 19.75 19.2894 19.75H5.70957C4.35932 19.75 3.18778 18.818 2.88416 17.5023C2.12455 14.2107 2.12455 10.7893 2.88416 7.49765ZM5.70957 6.75C5.05781 6.75 4.4923 7.19986 4.34576 7.83493C3.63737 10.9046 3.63737 14.0954 4.34576 17.1651C4.4923 17.8001 5.05781 18.25 5.70957 18.25H19.2894C19.9412 18.25 20.5067 17.8001 20.6532 17.1651C20.7234 16.8612 20.7866 16.556 20.8428 16.25H15.0244C14.0663 16.25 13.2487 15.5573 13.0912 14.6123C12.8581 13.2138 12.8581 11.7862 13.0912 10.3877C13.2487 9.44264 14.0663 8.75 15.0244 8.75H20.8428C20.7866 8.44395 20.7234 8.13884 20.6532 7.83493C20.5067 7.19986 19.9412 6.75 19.2894 6.75H5.70957ZM15.0244 10.25H21.0621C21.2253 11.7455 21.2253 13.2545 21.0621 14.75H15.0244C14.7996 14.75 14.6077 14.5875 14.5708 14.3657C14.3649 13.1304 14.3649 11.8696 14.5708 10.6343C14.6077 10.4125 14.7996 10.25 15.0244 10.25Z" fill="#5F5F5F"/>
</svg>
