<svg width="29" height="28" viewBox="0 0 29 28" fill="none" xmlns="http://www.w3.org/2000/svg">
<rect x="0.166626" width="28" height="28" rx="4" fill="white" fill-opacity="0.05"/>
<path fill-rule="evenodd" clip-rule="evenodd" d="M8.41663 6C7.17398 6 6.16663 7.00736 6.16663 8.25V11.2687C6.16663 12.5114 7.17399 13.5187 8.41663 13.5187H11.4353C12.678 13.5187 13.6853 12.5114 13.6853 11.2687V8.25C13.6853 7.00736 12.678 6 11.4353 6H8.41663ZM7.66663 8.25C7.66663 7.83579 8.00241 7.5 8.41663 7.5H11.4353C11.8495 7.5 12.1853 7.83579 12.1853 8.25V11.2687C12.1853 11.6829 11.8495 12.0187 11.4353 12.0187H8.41663C8.00241 12.0187 7.66663 11.6829 7.66663 11.2687V8.25ZM8.41663 14.5981C7.17398 14.5981 6.16663 15.6054 6.16663 16.8481V19.8668C6.16663 21.1095 7.17399 22.1168 8.41663 22.1168H11.4353C12.678 22.1168 13.6853 21.1095 13.6853 19.8668V16.8481C13.6853 15.6054 12.678 14.5981 11.4353 14.5981H8.41663ZM7.66663 16.8481C7.66663 16.4339 8.00241 16.0981 8.41663 16.0981H11.4353C11.8495 16.0981 12.1853 16.4339 12.1853 16.8481V19.8668C12.1853 20.281 11.8495 20.6168 11.4353 20.6168H8.41663C8.00241 20.6168 7.66663 20.281 7.66663 19.8668V16.8481ZM14.7648 8.25C14.7648 7.00736 15.7721 6 17.0148 6H20.0335C21.2761 6 22.2835 7.00736 22.2835 8.25V11.2687C22.2835 12.5114 21.2761 13.5187 20.0335 13.5187H17.0148C15.7721 13.5187 14.7648 12.5114 14.7648 11.2687V8.25ZM17.0148 7.5C16.6006 7.5 16.2648 7.83579 16.2648 8.25V11.2687C16.2648 11.6829 16.6006 12.0187 17.0148 12.0187H20.0335C20.4477 12.0187 20.7835 11.6829 20.7835 11.2687V8.25C20.7835 7.83579 20.4477 7.5 20.0335 7.5H17.0148ZM9.46667 8.80005C9.19053 8.80005 8.96667 9.02391 8.96667 9.30005V10.3C8.96667 10.5762 9.19053 10.8 9.46667 10.8H10.4667C10.7428 10.8 10.9667 10.5762 10.9667 10.3V9.30005C10.9667 9.02391 10.7428 8.80005 10.4667 8.80005H9.46667ZM8.96667 17.9C8.96667 17.6239 9.19053 17.4 9.46667 17.4H10.4667C10.7428 17.4 10.9667 17.6239 10.9667 17.9V18.9C10.9667 19.1762 10.7428 19.4 10.4667 19.4H9.46667C9.19053 19.4 8.96667 19.1762 8.96667 18.9V17.9ZM15.2666 20.6C14.9905 20.6 14.7666 20.8238 14.7666 21.1V21.6C14.7666 21.8761 14.9905 22.1 15.2666 22.1H15.7666C16.0427 22.1 16.2666 21.8761 16.2666 21.6V21.1C16.2666 20.8238 16.0427 20.6 15.7666 20.6H15.2666ZM17.3167 17.65C17.3167 17.3739 17.5405 17.15 17.8167 17.15H20.3167C20.5928 17.15 20.8167 17.3739 20.8167 17.65V20.15C20.8167 20.4262 20.5928 20.65 20.3167 20.65H17.8167C17.5405 20.65 17.3167 20.4262 17.3167 20.15V17.65ZM21.3167 14.6C21.0405 14.6 20.8167 14.8238 20.8167 15.1V15.6C20.8167 15.8761 21.0405 16.1 21.3167 16.1H21.8167C22.0928 16.1 22.3167 15.8761 22.3167 15.6V15.1C22.3167 14.8238 22.0928 14.6 21.8167 14.6H21.3167ZM17.5667 9.30005C17.5667 9.02391 17.7905 8.80005 18.0667 8.80005H19.0667C19.3428 8.80005 19.5667 9.02391 19.5667 9.30005V10.3C19.5667 10.5762 19.3428 10.8 19.0667 10.8H18.0667C17.7905 10.8 17.5667 10.5762 17.5667 10.3V9.30005ZM18.5166 16.1H18.9166C19.1928 16.1 19.4166 15.8761 19.4166 15.6V15.1C19.4166 14.8238 19.1928 14.6 18.9166 14.6H18.5166H18.4166H17.0166C15.774 14.6 14.7666 15.6073 14.7666 16.85V18.25V18.35V18.75C14.7666 19.0261 14.9905 19.25 15.2666 19.25H15.7666C16.0427 19.25 16.2666 19.0261 16.2666 18.75V18.35V18.25V16.85C16.2666 16.4358 16.6024 16.1 17.0166 16.1H18.4166H18.5166Z" fill="white" fill-opacity="0.7"/>
</svg>
