<svg width="19" height="18" viewBox="0 0 19 18" fill="none" xmlns="http://www.w3.org/2000/svg">
<path d="M7.88462 7.0897C7.88462 6.13528 8.6261 5.39535 9.5 5.39535C10.3739 5.39535 11.1154 6.13528 11.1154 7.0897C11.1154 7.83694 10.6567 8.45932 10.0368 8.68841C9.49396 8.88904 8.80769 9.4199 8.80769 10.2791C8.80769 10.6644 9.11765 10.9767 9.5 10.9767C9.88235 10.9767 10.1923 10.6644 10.1923 10.2791C10.1923 10.2645 10.196 10.2284 10.2488 10.1692C10.3052 10.1059 10.3987 10.0409 10.5136 9.99844C11.6801 9.5673 12.5 8.42084 12.5 7.0897C12.5 5.40196 11.1751 4 9.5 4C7.82489 4 6.5 5.40196 6.5 7.0897C6.5 7.47502 6.80996 7.78738 7.19231 7.78738C7.57466 7.78738 7.88462 7.47502 7.88462 7.0897Z" fill="white" fill-opacity="0.3"/>
<path d="M9.5 14C10.0098 14 10.4231 13.5835 10.4231 13.0698C10.4231 12.556 10.0098 12.1395 9.5 12.1395C8.9902 12.1395 8.57692 12.556 8.57692 13.0698C8.57692 13.5835 8.9902 14 9.5 14Z" fill="white" fill-opacity="0.3"/>
<path fill-rule="evenodd" clip-rule="evenodd" d="M18.5 9C18.5 13.9706 14.4706 18 9.5 18C4.52944 18 0.5 13.9706 0.5 9C0.5 4.02944 4.52944 0 9.5 0C14.4706 0 18.5 4.02944 18.5 9ZM17 9C17 13.1421 13.6421 16.5 9.5 16.5C5.35786 16.5 2 13.1421 2 9C2 4.85786 5.35786 1.5 9.5 1.5C13.6421 1.5 17 4.85786 17 9Z" fill="white" fill-opacity="0.3"/>
</svg>
