<svg width="24" height="24" viewBox="0 0 24 24" fill="none" xmlns="http://www.w3.org/2000/svg">
<path fill-rule="evenodd" clip-rule="evenodd" d="M12 4.25C7.71979 4.25 4.25 7.71979 4.25 12C4.25 16.2802 7.71979 19.75 12 19.75C13.8637 19.75 15.5747 19.0914 16.9112 17.9954L18.4737 19.5343C18.7688 19.825 19.2437 19.8214 19.5343 19.5263C19.825 19.2312 19.8214 18.7563 19.5263 18.4657L17.9742 16.937C19.0829 15.5967 19.75 13.8757 19.75 12C19.75 7.71979 16.2802 4.25 12 4.25ZM5.75 12C5.75 8.54822 8.54822 5.75 12 5.75C15.4518 5.75 18.25 8.54822 18.25 12C18.25 13.7332 17.5455 15.3004 16.4055 16.4333C15.2748 17.557 13.719 18.25 12 18.25C8.54822 18.25 5.75 15.4518 5.75 12Z" fill="#5F5F5F"/>
</svg>
