<svg width="32" height="32" viewBox="0 0 32 32" fill="none" xmlns="http://www.w3.org/2000/svg">
<path fill-rule="evenodd" clip-rule="evenodd" d="M9.66657 20.0678C9.65554 20.5266 9.95823 20.934 10.4007 21.0559C10.8431 21.1778 11.3118 20.9828 11.5373 20.5831L12.7403 18.4504C14.1671 15.9211 17.0074 14.5355 19.879 14.9676L20.0781 14.9976C20.1139 15.9014 20.1647 16.8048 20.2304 17.7073L20.3209 18.9482C20.3945 19.9573 21.5196 20.5214 22.3722 19.9766C25.1691 18.1894 27.6005 15.8866 29.537 13.191L30.1451 12.3444C30.3956 11.9957 30.3956 11.5262 30.1451 11.1775L29.537 10.331C27.6005 7.63528 25.1691 5.3325 22.3722 3.54535C21.5196 3.00057 20.3945 3.56466 20.3209 4.57376L20.2304 5.81461C20.1774 6.54224 20.1341 7.27042 20.1006 7.99892L18.743 7.99892C13.8567 7.99892 9.863 11.8977 9.74556 16.7826L9.66657 20.0678ZM20.1766 12.9899C16.9509 12.5044 13.7559 13.8031 11.7769 16.3077C12.1257 12.7568 15.1186 9.99892 18.743 9.99892L21.0612 9.99892C21.6002 9.99892 22.0422 9.57177 22.0606 9.03311C22.0957 8.00805 22.1505 6.98349 22.2252 5.96001L22.2324 5.86073C24.4237 7.40962 26.344 9.31414 27.9126 11.4978L28.1017 11.761L27.9126 12.0241C26.344 14.2078 24.4237 16.1123 22.2324 17.6612L22.2252 17.5619C22.1412 16.4101 22.0823 15.2569 22.0484 14.1031C22.0342 13.6196 21.676 13.2156 21.1976 13.1436L20.1766 12.9899Z" fill="white"/>
<path d="M26.1881 23.2152C26.3453 21.8708 26.4563 20.5223 26.5211 19.1722C26.5281 19.0261 26.5943 18.8891 26.704 18.7923C27.1885 18.3646 27.658 17.9202 28.1115 17.4598C28.2821 17.2867 28.5801 17.4078 28.5749 17.6508C28.5333 19.5867 28.3998 21.5211 28.1745 23.4475C27.8591 26.1443 25.6933 28.2576 23.0106 28.5574C18.3885 29.074 13.6107 29.074 8.98862 28.5574C6.30588 28.2576 4.1401 26.1443 3.82469 23.4475C3.27198 18.7218 3.27198 13.9478 3.82469 9.22203C4.1401 6.52533 6.30588 4.41198 8.98862 4.11214C12.0433 3.77074 15.1659 3.65497 18.2666 3.76481C18.5277 3.77406 18.7074 4.02963 18.6749 4.28882C18.6681 4.3428 18.6627 4.3974 18.6586 4.45259L18.5903 5.39101C18.5746 5.60647 18.3906 5.77039 18.1748 5.76282C15.1787 5.6577 12.1612 5.77002 9.21077 6.09977C7.43729 6.29798 6.01664 7.69747 5.81115 9.45437C5.27649 14.0257 5.27649 18.6438 5.81115 23.2152C6.01664 24.9721 7.43729 26.3716 9.21076 26.5698C13.6852 27.0699 18.314 27.0699 22.7885 26.5698C24.5619 26.3716 25.9826 24.9721 26.1881 23.2152Z" fill="white"/>
</svg>
