<svg width="110" height="120" viewBox="0 0 110 120" fill="none" xmlns="http://www.w3.org/2000/svg">
<path fill-rule="evenodd" clip-rule="evenodd" d="M59.5677 12.2849C56.7578 10.5929 53.2428 10.5929 50.4329 12.2849L46.7757 14.487C36.992 20.3783 26.0084 23.9934 14.6383 25.0646L12.3342 25.2817C11.4246 25.3674 10.7295 26.131 10.7295 27.0447V38.6889C10.7295 56.4506 17.9405 73.4513 30.7107 85.7964L53.7695 108.088C54.4559 108.751 55.5447 108.751 56.2311 108.088L79.2899 85.7965C92.0601 73.4513 99.2712 56.4506 99.2712 38.6889V27.0447C99.2712 26.131 98.576 25.3674 97.6664 25.2817L95.3623 25.0646C83.9922 23.9934 73.0086 20.3783 63.2249 14.487L59.5677 12.2849ZM44.952 3.18264C51.1338 -0.539718 58.8669 -0.539723 65.0486 3.18264L68.7058 5.38479C77.1243 10.454 86.5753 13.5647 96.3589 14.4864L98.663 14.7035C105.03 15.3034 109.896 20.6491 109.896 27.0447V38.6889C109.896 59.3309 101.516 79.0885 86.6747 93.4355L63.6159 115.727C58.8112 120.372 51.1894 120.372 46.3847 115.727L23.3259 93.4355C8.48488 79.0885 0.104492 59.3309 0.104492 38.6889V27.0447C0.104492 20.6491 4.97022 15.3034 11.3376 14.7035L13.6417 14.4864C23.4253 13.5647 32.8763 10.454 41.2948 5.3848L44.952 3.18264Z" fill="white" fill-opacity="0.07"/>
</svg>
