<svg width="24" height="24" viewBox="0 0 24 24" fill="none" xmlns="http://www.w3.org/2000/svg">
<path d="M11.9203 21.0439C12.3597 21.0439 12.6234 20.7451 12.6234 20.2969V18.4951L13.9505 19.2861C14.3021 19.5146 14.68 19.4971 14.9085 19.1455C15.1019 18.8291 15.014 18.4512 14.6449 18.2314L12.6234 17.0625V15.9727L12.43 12.9492L14.9876 14.6191L15.9281 15.1553L15.9369 17.4844C15.9369 17.915 16.2269 18.1963 16.5872 18.1787C17.0091 18.1611 17.2113 17.8447 17.1849 17.4229L17.1585 15.8672L18.7318 16.7812C19.1185 17.0098 19.514 16.9131 19.7249 16.5439C19.9271 16.166 19.8128 15.7617 19.4437 15.5508L17.8705 14.6455L19.2328 13.8809C19.6019 13.7051 19.7777 13.3535 19.5843 12.9932C19.3997 12.668 19.0306 12.5625 18.6527 12.7646L16.6312 13.9248L15.6908 13.3799L12.9486 12.0264L15.6908 10.6729L16.6312 10.1279L18.6527 11.2881C19.0218 11.499 19.4085 11.3848 19.5843 11.0596C19.7777 10.6992 19.6019 10.3477 19.224 10.1631L17.8792 9.40723L19.4437 8.50195C19.8304 8.28223 19.9359 7.89551 19.7249 7.50879C19.514 7.15723 19.1185 7.04297 18.7318 7.27148L17.1585 8.17676L17.1849 6.62988C17.2113 6.20801 17.0003 5.88281 16.5872 5.87402C16.2269 5.86523 15.9369 6.1377 15.9369 6.55957L15.9281 8.89746L14.9876 9.43359L12.43 11.1123L12.6234 8.08008V6.99023L14.6449 5.82129C15.014 5.60156 15.0931 5.21484 14.9085 4.90723C14.6888 4.55566 14.3021 4.5293 13.9505 4.7666L12.6234 5.55762V3.75586C12.6234 3.30762 12.3597 3 11.9203 3C11.4984 3 11.2083 3.30762 11.2083 3.75586V5.55762L9.87241 4.7666C9.52084 4.5293 9.1517 4.55566 8.92319 4.90723C8.72983 5.21484 8.81772 5.60156 9.19565 5.82129L11.2083 6.99023V8.08008L11.4017 11.1211L8.85287 9.43359L7.91244 8.88867L7.90366 6.55957C7.90366 6.1377 7.61362 5.86523 7.25326 5.87402C6.83139 5.8916 6.62045 6.20801 6.65561 6.62988L6.67319 8.17676L5.09994 7.27148C4.7308 7.05176 4.31772 7.15723 4.10678 7.50879C3.88705 7.89551 4.01889 8.29102 4.38803 8.50195L5.96127 9.40723L4.60776 10.1631C4.23862 10.3477 4.06283 10.6816 4.25619 11.0684C4.42319 11.3848 4.8099 11.499 5.18783 11.2881L7.20932 10.1279L8.14096 10.6729L10.8919 12.0264L8.14975 13.3799L7.20053 13.9248L5.17905 12.7646C4.8099 12.5537 4.43198 12.668 4.26498 12.9844C4.07162 13.3711 4.23862 13.6963 4.60776 13.8809L5.96127 14.6455L4.39682 15.5508C4.01889 15.7617 3.89584 16.1748 4.10678 16.5352C4.32651 16.9219 4.7308 17.001 5.09994 16.7812L6.67319 15.8848L6.64682 17.4229C6.62045 17.8447 6.83139 18.1699 7.25326 18.1787C7.61362 18.1875 7.90366 17.915 7.90366 17.4844L7.92123 15.1553L8.85287 14.6191L11.4017 12.9404L11.2083 15.9727V17.0625L9.19565 18.2314C8.81772 18.4512 8.72983 18.8291 8.92319 19.1455C9.1517 19.4971 9.52084 19.5146 9.87241 19.2861L11.2083 18.4863V20.2969C11.2083 20.7363 11.4984 21.0439 11.9203 21.0439Z" fill="white"/>
</svg>
