<svg width="603" height="189" viewBox="0 0 603 189" fill="none" xmlns="http://www.w3.org/2000/svg">
<line x1="529.5" y1="35.5" x2="30.5" y2="35.5" stroke="url(#paint0_linear_578_10078)" stroke-opacity="0.7" stroke-linecap="round" stroke-dasharray="4.26 4.26"/>
<line x1="16.5" y1="166.5" x2="16.5" y2="3.5" stroke="white" stroke-opacity="0.1" stroke-linecap="round"/>
<path opacity="0.7" d="M12.8594 176V171.289L11.6289 171.887L11.3867 171.312L13.2578 170.398H13.5469V176H12.8594ZM15.0703 174V173.406H17.8711V174H15.0703ZM19.3828 176L21.6875 171.07V171.039H18.582V170.398H22.4883V170.945L20.1367 176H19.3828ZM2.89062 186.098C2.77083 186.098 2.65755 186.09 2.55078 186.074C2.44401 186.061 2.32943 186.031 2.20703 185.984C2.08724 185.938 1.98307 185.876 1.89453 185.801C1.80859 185.725 1.73698 185.621 1.67969 185.488C1.6224 185.355 1.59375 185.201 1.59375 185.023C1.59375 184.867 1.61719 184.727 1.66406 184.602C1.71094 184.477 1.77083 184.374 1.84375 184.293C1.91667 184.21 2.01172 184.135 2.12891 184.07C2.2487 184.003 2.36328 183.949 2.47266 183.91C2.58464 183.871 2.71875 183.832 2.875 183.793L4.49219 183.375V183.266C4.49219 183.115 4.46224 182.984 4.40234 182.875C4.34245 182.763 4.26302 182.68 4.16406 182.625C4.0651 182.568 3.96354 182.527 3.85938 182.504C3.75521 182.478 3.64583 182.465 3.53125 182.465C3.25 182.465 3.0013 182.533 2.78516 182.668C2.57161 182.801 2.44661 182.988 2.41016 183.23H1.75391C1.80078 182.809 1.98568 182.482 2.30859 182.25C2.63151 182.018 3.03906 181.902 3.53125 181.902C3.67708 181.902 3.8151 181.913 3.94531 181.934C4.07552 181.952 4.21484 181.993 4.36328 182.059C4.51172 182.121 4.63802 182.203 4.74219 182.305C4.84896 182.406 4.9375 182.547 5.00781 182.727C5.07812 182.904 5.11328 183.109 5.11328 183.344V185.152C5.11328 185.249 5.13151 185.315 5.16797 185.352C5.20703 185.388 5.27474 185.406 5.37109 185.406H5.57812V186H5.12891C4.81901 186 4.6276 185.862 4.55469 185.586L4.50781 185.406H4.47266C4.29036 185.63 4.0625 185.802 3.78906 185.922C3.51823 186.039 3.21875 186.098 2.89062 186.098ZM2.96875 185.535C3.15885 185.535 3.34115 185.509 3.51562 185.457C3.69271 185.402 3.85547 185.324 4.00391 185.223C4.15234 185.118 4.27083 184.979 4.35938 184.805C4.44792 184.63 4.49219 184.431 4.49219 184.207V183.953L2.875 184.367C2.65104 184.424 2.48828 184.5 2.38672 184.594C2.28516 184.685 2.23438 184.812 2.23438 184.977C2.23438 185.349 2.47917 185.535 2.96875 185.535ZM6.60156 186V182H8.77734C9.19141 182 9.52474 182.098 9.77734 182.293C10.0299 182.486 10.1562 182.74 10.1562 183.055C10.1562 183.43 9.95833 183.712 9.5625 183.902V183.938C9.78646 184.026 9.95964 184.156 10.082 184.328C10.2044 184.497 10.2656 184.691 10.2656 184.91C10.2656 185.217 10.1458 185.477 9.90625 185.688C9.66927 185.896 9.34635 186 8.9375 186H6.60156ZM7.24219 183.648H8.77734C9.0013 183.648 9.17969 183.603 9.3125 183.512C9.44792 183.418 9.51562 183.285 9.51562 183.113C9.51562 182.941 9.44792 182.809 9.3125 182.715C9.17969 182.621 9.0013 182.574 8.77734 182.574H7.24219V183.648ZM7.24219 185.426H8.875C9.10417 185.426 9.28646 185.37 9.42188 185.258C9.55729 185.146 9.625 185.001 9.625 184.824C9.625 184.647 9.55729 184.503 9.42188 184.391C9.28646 184.279 9.10417 184.223 8.875 184.223H7.24219V185.426ZM11.3672 186V182H14.25V182.594H12.0078V186H11.3672ZM15.2109 187.602V187.008H15.8164C15.9753 187.008 16.1003 186.973 16.1914 186.902C16.2852 186.832 16.3685 186.712 16.4414 186.543L16.6914 185.953L14.8594 182H15.5625L17.0039 185.152H17.0352L18.3633 182H19.0508L17.0352 186.77C16.9049 187.079 16.7513 187.296 16.5742 187.418C16.3997 187.54 16.1471 187.602 15.8164 187.602H15.2109ZM21.5664 186.098C20.9727 186.098 20.4818 185.901 20.0938 185.508C19.7083 185.115 19.5156 184.612 19.5156 184C19.5156 183.388 19.7083 182.885 20.0938 182.492C20.4818 182.099 20.9727 181.902 21.5664 181.902C22.056 181.902 22.4779 182.042 22.832 182.32C23.1862 182.596 23.4193 182.97 23.5312 183.441H22.875C22.7708 183.134 22.6055 182.897 22.3789 182.73C22.1549 182.564 21.8841 182.48 21.5664 182.48C21.1445 182.48 20.8034 182.621 20.543 182.902C20.2852 183.184 20.1562 183.549 20.1562 184C20.1562 184.451 20.2852 184.816 20.543 185.098C20.8034 185.379 21.1445 185.52 21.5664 185.52C21.8841 185.52 22.1549 185.436 22.3789 185.27C22.6055 185.103 22.7708 184.866 22.875 184.559H23.5312C23.4193 185.03 23.1862 185.405 22.832 185.684C22.4779 185.96 22.056 186.098 21.5664 186.098ZM24.1094 182.574V182H27.9492V182.574H26.3477V186H25.7109V182.574H24.1094ZM29.7656 186.098C29.6458 186.098 29.5326 186.09 29.4258 186.074C29.319 186.061 29.2044 186.031 29.082 185.984C28.9622 185.938 28.8581 185.876 28.7695 185.801C28.6836 185.725 28.612 185.621 28.5547 185.488C28.4974 185.355 28.4688 185.201 28.4688 185.023C28.4688 184.867 28.4922 184.727 28.5391 184.602C28.5859 184.477 28.6458 184.374 28.7188 184.293C28.7917 184.21 28.8867 184.135 29.0039 184.07C29.1237 184.003 29.2383 183.949 29.3477 183.91C29.4596 183.871 29.5938 183.832 29.75 183.793L31.3672 183.375V183.266C31.3672 183.115 31.3372 182.984 31.2773 182.875C31.2174 182.763 31.138 182.68 31.0391 182.625C30.9401 182.568 30.8385 182.527 30.7344 182.504C30.6302 182.478 30.5208 182.465 30.4062 182.465C30.125 182.465 29.8763 182.533 29.6602 182.668C29.4466 182.801 29.3216 182.988 29.2852 183.23H28.6289C28.6758 182.809 28.8607 182.482 29.1836 182.25C29.5065 182.018 29.9141 181.902 30.4062 181.902C30.5521 181.902 30.6901 181.913 30.8203 181.934C30.9505 181.952 31.0898 181.993 31.2383 182.059C31.3867 182.121 31.513 182.203 31.6172 182.305C31.724 182.406 31.8125 182.547 31.8828 182.727C31.9531 182.904 31.9883 183.109 31.9883 183.344V185.152C31.9883 185.249 32.0065 185.315 32.043 185.352C32.082 185.388 32.1497 185.406 32.2461 185.406H32.4531V186H32.0039C31.694 186 31.5026 185.862 31.4297 185.586L31.3828 185.406H31.3477C31.1654 185.63 30.9375 185.802 30.6641 185.922C30.3932 186.039 30.0938 186.098 29.7656 186.098ZM29.8438 185.535C30.0339 185.535 30.2161 185.509 30.3906 185.457C30.5677 185.402 30.7305 185.324 30.8789 185.223C31.0273 185.118 31.1458 184.979 31.2344 184.805C31.3229 184.63 31.3672 184.431 31.3672 184.207V183.953L29.75 184.367C29.526 184.424 29.3633 184.5 29.2617 184.594C29.1602 184.685 29.1094 184.812 29.1094 184.977C29.1094 185.349 29.3542 185.535 29.8438 185.535Z" fill="white"/>
<line x1="130" y1="166.5" x2="130" y2="3.5" stroke="white" stroke-opacity="0.1" stroke-linecap="round"/>
<path opacity="0.7" d="M125.227 176C124.961 176.065 124.674 176.098 124.367 176.098C124.06 176.098 123.773 176.065 123.508 176C123.242 175.932 123.003 175.833 122.789 175.703C122.578 175.57 122.411 175.395 122.289 175.176C122.169 174.954 122.109 174.701 122.109 174.414C122.109 173.747 122.462 173.299 123.168 173.07V173.039C122.876 172.93 122.654 172.768 122.5 172.555C122.346 172.339 122.27 172.095 122.27 171.824C122.27 171.512 122.363 171.24 122.551 171.008C122.741 170.773 122.992 170.598 123.305 170.48C123.62 170.363 123.974 170.305 124.367 170.305C124.76 170.305 125.113 170.363 125.426 170.48C125.741 170.598 125.992 170.773 126.18 171.008C126.367 171.24 126.461 171.512 126.461 171.824C126.461 172.095 126.384 172.339 126.23 172.555C126.077 172.768 125.855 172.93 125.566 173.039V173.07C125.928 173.188 126.194 173.358 126.363 173.582C126.535 173.803 126.621 174.081 126.621 174.414C126.621 174.701 126.56 174.954 126.438 175.176C126.318 175.395 126.152 175.57 125.941 175.703C125.73 175.833 125.492 175.932 125.227 176ZM123.121 171.312C122.991 171.453 122.926 171.624 122.926 171.824C122.926 172.025 122.991 172.195 123.121 172.336C123.254 172.477 123.426 172.578 123.637 172.641C123.848 172.703 124.091 172.734 124.367 172.734C124.643 172.734 124.887 172.703 125.098 172.641C125.309 172.578 125.479 172.477 125.609 172.336C125.74 172.195 125.805 172.025 125.805 171.824C125.805 171.624 125.74 171.453 125.609 171.312C125.479 171.172 125.307 171.07 125.094 171.008C124.883 170.943 124.641 170.91 124.367 170.91C124.094 170.91 123.85 170.943 123.637 171.008C123.426 171.07 123.254 171.172 123.121 171.312ZM122.797 174.414C122.797 174.604 122.836 174.771 122.914 174.914C122.995 175.055 123.108 175.167 123.254 175.25C123.4 175.331 123.565 175.391 123.75 175.43C123.935 175.469 124.141 175.488 124.367 175.488C124.594 175.488 124.799 175.469 124.984 175.43C125.169 175.391 125.333 175.331 125.477 175.25C125.622 175.167 125.734 175.055 125.812 174.914C125.893 174.771 125.934 174.604 125.934 174.414C125.934 174.224 125.893 174.059 125.812 173.918C125.734 173.777 125.622 173.667 125.477 173.586C125.333 173.503 125.169 173.441 124.984 173.402C124.799 173.363 124.594 173.344 124.367 173.344C124.06 173.344 123.793 173.378 123.566 173.445C123.34 173.51 123.155 173.625 123.012 173.789C122.868 173.953 122.797 174.161 122.797 174.414ZM127.809 174V173.406H130.609V174H127.809ZM132.746 176V171.289L131.516 171.887L131.273 171.312L133.145 170.398H133.434V176H132.746ZM137.676 176V174.574H134.699V174.078L137.5 170.398H138.363V173.953H139.133V174.574H138.363V176H137.676ZM135.598 173.953H137.676V171.23H137.645L135.598 173.922V173.953ZM116.391 186.098C116.271 186.098 116.158 186.09 116.051 186.074C115.944 186.061 115.829 186.031 115.707 185.984C115.587 185.938 115.483 185.876 115.395 185.801C115.309 185.725 115.237 185.621 115.18 185.488C115.122 185.355 115.094 185.201 115.094 185.023C115.094 184.867 115.117 184.727 115.164 184.602C115.211 184.477 115.271 184.374 115.344 184.293C115.417 184.21 115.512 184.135 115.629 184.07C115.749 184.003 115.863 183.949 115.973 183.91C116.085 183.871 116.219 183.832 116.375 183.793L117.992 183.375V183.266C117.992 183.115 117.962 182.984 117.902 182.875C117.842 182.763 117.763 182.68 117.664 182.625C117.565 182.568 117.464 182.527 117.359 182.504C117.255 182.478 117.146 182.465 117.031 182.465C116.75 182.465 116.501 182.533 116.285 182.668C116.072 182.801 115.947 182.988 115.91 183.23H115.254C115.301 182.809 115.486 182.482 115.809 182.25C116.132 182.018 116.539 181.902 117.031 181.902C117.177 181.902 117.315 181.913 117.445 181.934C117.576 181.952 117.715 181.993 117.863 182.059C118.012 182.121 118.138 182.203 118.242 182.305C118.349 182.406 118.438 182.547 118.508 182.727C118.578 182.904 118.613 183.109 118.613 183.344V185.152C118.613 185.249 118.632 185.315 118.668 185.352C118.707 185.388 118.775 185.406 118.871 185.406H119.078V186H118.629C118.319 186 118.128 185.862 118.055 185.586L118.008 185.406H117.973C117.79 185.63 117.562 185.802 117.289 185.922C117.018 186.039 116.719 186.098 116.391 186.098ZM116.469 185.535C116.659 185.535 116.841 185.509 117.016 185.457C117.193 185.402 117.355 185.324 117.504 185.223C117.652 185.118 117.771 184.979 117.859 184.805C117.948 184.63 117.992 184.431 117.992 184.207V183.953L116.375 184.367C116.151 184.424 115.988 184.5 115.887 184.594C115.785 184.685 115.734 184.812 115.734 184.977C115.734 185.349 115.979 185.535 116.469 185.535ZM120.102 186V182H122.277C122.691 182 123.025 182.098 123.277 182.293C123.53 182.486 123.656 182.74 123.656 183.055C123.656 183.43 123.458 183.712 123.062 183.902V183.938C123.286 184.026 123.46 184.156 123.582 184.328C123.704 184.497 123.766 184.691 123.766 184.91C123.766 185.217 123.646 185.477 123.406 185.688C123.169 185.896 122.846 186 122.438 186H120.102ZM120.742 183.648H122.277C122.501 183.648 122.68 183.603 122.812 183.512C122.948 183.418 123.016 183.285 123.016 183.113C123.016 182.941 122.948 182.809 122.812 182.715C122.68 182.621 122.501 182.574 122.277 182.574H120.742V183.648ZM120.742 185.426H122.375C122.604 185.426 122.786 185.37 122.922 185.258C123.057 185.146 123.125 185.001 123.125 184.824C123.125 184.647 123.057 184.503 122.922 184.391C122.786 184.279 122.604 184.223 122.375 184.223H120.742V185.426ZM124.867 186V182H127.75V182.594H125.508V186H124.867ZM128.711 187.602V187.008H129.316C129.475 187.008 129.6 186.973 129.691 186.902C129.785 186.832 129.868 186.712 129.941 186.543L130.191 185.953L128.359 182H129.062L130.504 185.152H130.535L131.863 182H132.551L130.535 186.77C130.405 187.079 130.251 187.296 130.074 187.418C129.9 187.54 129.647 187.602 129.316 187.602H128.711ZM135.066 186.098C134.473 186.098 133.982 185.901 133.594 185.508C133.208 185.115 133.016 184.612 133.016 184C133.016 183.388 133.208 182.885 133.594 182.492C133.982 182.099 134.473 181.902 135.066 181.902C135.556 181.902 135.978 182.042 136.332 182.32C136.686 182.596 136.919 182.97 137.031 183.441H136.375C136.271 183.134 136.105 182.897 135.879 182.73C135.655 182.564 135.384 182.48 135.066 182.48C134.645 182.48 134.303 182.621 134.043 182.902C133.785 183.184 133.656 183.549 133.656 184C133.656 184.451 133.785 184.816 134.043 185.098C134.303 185.379 134.645 185.52 135.066 185.52C135.384 185.52 135.655 185.436 135.879 185.27C136.105 185.103 136.271 184.866 136.375 184.559H137.031C136.919 185.03 136.686 185.405 136.332 185.684C135.978 185.96 135.556 186.098 135.066 186.098ZM137.609 182.574V182H141.449V182.574H139.848V186H139.211V182.574H137.609ZM143.266 186.098C143.146 186.098 143.033 186.09 142.926 186.074C142.819 186.061 142.704 186.031 142.582 185.984C142.462 185.938 142.358 185.876 142.27 185.801C142.184 185.725 142.112 185.621 142.055 185.488C141.997 185.355 141.969 185.201 141.969 185.023C141.969 184.867 141.992 184.727 142.039 184.602C142.086 184.477 142.146 184.374 142.219 184.293C142.292 184.21 142.387 184.135 142.504 184.07C142.624 184.003 142.738 183.949 142.848 183.91C142.96 183.871 143.094 183.832 143.25 183.793L144.867 183.375V183.266C144.867 183.115 144.837 182.984 144.777 182.875C144.717 182.763 144.638 182.68 144.539 182.625C144.44 182.568 144.339 182.527 144.234 182.504C144.13 182.478 144.021 182.465 143.906 182.465C143.625 182.465 143.376 182.533 143.16 182.668C142.947 182.801 142.822 182.988 142.785 183.23H142.129C142.176 182.809 142.361 182.482 142.684 182.25C143.007 182.018 143.414 181.902 143.906 181.902C144.052 181.902 144.19 181.913 144.32 181.934C144.451 181.952 144.59 181.993 144.738 182.059C144.887 182.121 145.013 182.203 145.117 182.305C145.224 182.406 145.312 182.547 145.383 182.727C145.453 182.904 145.488 183.109 145.488 183.344V185.152C145.488 185.249 145.507 185.315 145.543 185.352C145.582 185.388 145.65 185.406 145.746 185.406H145.953V186H145.504C145.194 186 145.003 185.862 144.93 185.586L144.883 185.406H144.848C144.665 185.63 144.438 185.802 144.164 185.922C143.893 186.039 143.594 186.098 143.266 186.098ZM143.344 185.535C143.534 185.535 143.716 185.509 143.891 185.457C144.068 185.402 144.23 185.324 144.379 185.223C144.527 185.118 144.646 184.979 144.734 184.805C144.823 184.63 144.867 184.431 144.867 184.207V183.953L143.25 184.367C143.026 184.424 142.863 184.5 142.762 184.594C142.66 184.685 142.609 184.812 142.609 184.977C142.609 185.349 142.854 185.535 143.344 185.535Z" fill="white"/>
<line x1="244" y1="166.5" x2="244" y2="3.5" stroke="white" stroke-opacity="0.1" stroke-linecap="round"/>
<path opacity="0.7" d="M235.859 176V171.289L234.629 171.887L234.387 171.312L236.258 170.398H236.547V176H235.859ZM240.086 176.098C239.531 176.098 239.059 175.956 238.668 175.672C238.277 175.388 238.051 175.007 237.988 174.527H238.695C238.768 174.822 238.928 175.059 239.176 175.238C239.423 175.415 239.727 175.504 240.086 175.504C240.516 175.504 240.868 175.382 241.145 175.137C241.421 174.892 241.559 174.572 241.559 174.176C241.559 173.78 241.424 173.46 241.156 173.215C240.888 172.97 240.547 172.848 240.133 172.848C239.839 172.848 239.573 172.917 239.336 173.055C239.102 173.19 238.919 173.388 238.789 173.648H238.086L238.484 170.398H241.926V171.023H239.094L238.887 172.734H238.918C239.283 172.417 239.725 172.258 240.246 172.258C240.605 172.258 240.936 172.336 241.238 172.492C241.54 172.646 241.784 172.871 241.969 173.168C242.154 173.462 242.246 173.798 242.246 174.176C242.246 174.556 242.15 174.893 241.957 175.188C241.767 175.482 241.508 175.707 241.18 175.863C240.854 176.02 240.49 176.098 240.086 176.098ZM243.289 174V173.406H246.09V174H243.289ZM247.125 176V175.441L249.656 173.055C249.768 172.948 249.858 172.858 249.926 172.785C249.996 172.71 250.073 172.617 250.156 172.508C250.24 172.396 250.302 172.284 250.344 172.172C250.385 172.057 250.406 171.941 250.406 171.824C250.406 171.626 250.344 171.456 250.219 171.312C250.094 171.169 249.94 171.066 249.758 171.004C249.578 170.941 249.384 170.91 249.176 170.91C248.811 170.91 248.5 171.01 248.242 171.211C247.984 171.411 247.848 171.701 247.832 172.078H247.125C247.141 171.815 247.191 171.581 247.277 171.375C247.363 171.167 247.471 170.997 247.602 170.867C247.732 170.734 247.885 170.625 248.062 170.539C248.24 170.453 248.418 170.393 248.598 170.359C248.78 170.323 248.973 170.305 249.176 170.305C249.543 170.305 249.87 170.362 250.156 170.477C250.443 170.589 250.671 170.76 250.84 170.992C251.009 171.224 251.094 171.501 251.094 171.824C251.094 172.001 251.069 172.168 251.02 172.324C250.97 172.48 250.892 172.634 250.785 172.785C250.678 172.936 250.572 173.069 250.465 173.184C250.358 173.296 250.216 173.435 250.039 173.602L248.184 175.344V175.375H251.094V176H247.125ZM253.234 176V171.289L252.004 171.887L251.762 171.312L253.633 170.398H253.922V176H253.234ZM230.391 186.098C230.271 186.098 230.158 186.09 230.051 186.074C229.944 186.061 229.829 186.031 229.707 185.984C229.587 185.938 229.483 185.876 229.395 185.801C229.309 185.725 229.237 185.621 229.18 185.488C229.122 185.355 229.094 185.201 229.094 185.023C229.094 184.867 229.117 184.727 229.164 184.602C229.211 184.477 229.271 184.374 229.344 184.293C229.417 184.21 229.512 184.135 229.629 184.07C229.749 184.003 229.863 183.949 229.973 183.91C230.085 183.871 230.219 183.832 230.375 183.793L231.992 183.375V183.266C231.992 183.115 231.962 182.984 231.902 182.875C231.842 182.763 231.763 182.68 231.664 182.625C231.565 182.568 231.464 182.527 231.359 182.504C231.255 182.478 231.146 182.465 231.031 182.465C230.75 182.465 230.501 182.533 230.285 182.668C230.072 182.801 229.947 182.988 229.91 183.23H229.254C229.301 182.809 229.486 182.482 229.809 182.25C230.132 182.018 230.539 181.902 231.031 181.902C231.177 181.902 231.315 181.913 231.445 181.934C231.576 181.952 231.715 181.993 231.863 182.059C232.012 182.121 232.138 182.203 232.242 182.305C232.349 182.406 232.438 182.547 232.508 182.727C232.578 182.904 232.613 183.109 232.613 183.344V185.152C232.613 185.249 232.632 185.315 232.668 185.352C232.707 185.388 232.775 185.406 232.871 185.406H233.078V186H232.629C232.319 186 232.128 185.862 232.055 185.586L232.008 185.406H231.973C231.79 185.63 231.562 185.802 231.289 185.922C231.018 186.039 230.719 186.098 230.391 186.098ZM230.469 185.535C230.659 185.535 230.841 185.509 231.016 185.457C231.193 185.402 231.355 185.324 231.504 185.223C231.652 185.118 231.771 184.979 231.859 184.805C231.948 184.63 231.992 184.431 231.992 184.207V183.953L230.375 184.367C230.151 184.424 229.988 184.5 229.887 184.594C229.785 184.685 229.734 184.812 229.734 184.977C229.734 185.349 229.979 185.535 230.469 185.535ZM234.102 186V182H236.277C236.691 182 237.025 182.098 237.277 182.293C237.53 182.486 237.656 182.74 237.656 183.055C237.656 183.43 237.458 183.712 237.062 183.902V183.938C237.286 184.026 237.46 184.156 237.582 184.328C237.704 184.497 237.766 184.691 237.766 184.91C237.766 185.217 237.646 185.477 237.406 185.688C237.169 185.896 236.846 186 236.438 186H234.102ZM234.742 183.648H236.277C236.501 183.648 236.68 183.603 236.812 183.512C236.948 183.418 237.016 183.285 237.016 183.113C237.016 182.941 236.948 182.809 236.812 182.715C236.68 182.621 236.501 182.574 236.277 182.574H234.742V183.648ZM234.742 185.426H236.375C236.604 185.426 236.786 185.37 236.922 185.258C237.057 185.146 237.125 185.001 237.125 184.824C237.125 184.647 237.057 184.503 236.922 184.391C236.786 184.279 236.604 184.223 236.375 184.223H234.742V185.426ZM238.867 186V182H241.75V182.594H239.508V186H238.867ZM242.711 187.602V187.008H243.316C243.475 187.008 243.6 186.973 243.691 186.902C243.785 186.832 243.868 186.712 243.941 186.543L244.191 185.953L242.359 182H243.062L244.504 185.152H244.535L245.863 182H246.551L244.535 186.77C244.405 187.079 244.251 187.296 244.074 187.418C243.9 187.54 243.647 187.602 243.316 187.602H242.711ZM249.066 186.098C248.473 186.098 247.982 185.901 247.594 185.508C247.208 185.115 247.016 184.612 247.016 184C247.016 183.388 247.208 182.885 247.594 182.492C247.982 182.099 248.473 181.902 249.066 181.902C249.556 181.902 249.978 182.042 250.332 182.32C250.686 182.596 250.919 182.97 251.031 183.441H250.375C250.271 183.134 250.105 182.897 249.879 182.73C249.655 182.564 249.384 182.48 249.066 182.48C248.645 182.48 248.303 182.621 248.043 182.902C247.785 183.184 247.656 183.549 247.656 184C247.656 184.451 247.785 184.816 248.043 185.098C248.303 185.379 248.645 185.52 249.066 185.52C249.384 185.52 249.655 185.436 249.879 185.27C250.105 185.103 250.271 184.866 250.375 184.559H251.031C250.919 185.03 250.686 185.405 250.332 185.684C249.978 185.96 249.556 186.098 249.066 186.098ZM251.609 182.574V182H255.449V182.574H253.848V186H253.211V182.574H251.609ZM257.266 186.098C257.146 186.098 257.033 186.09 256.926 186.074C256.819 186.061 256.704 186.031 256.582 185.984C256.462 185.938 256.358 185.876 256.27 185.801C256.184 185.725 256.112 185.621 256.055 185.488C255.997 185.355 255.969 185.201 255.969 185.023C255.969 184.867 255.992 184.727 256.039 184.602C256.086 184.477 256.146 184.374 256.219 184.293C256.292 184.21 256.387 184.135 256.504 184.07C256.624 184.003 256.738 183.949 256.848 183.91C256.96 183.871 257.094 183.832 257.25 183.793L258.867 183.375V183.266C258.867 183.115 258.837 182.984 258.777 182.875C258.717 182.763 258.638 182.68 258.539 182.625C258.44 182.568 258.339 182.527 258.234 182.504C258.13 182.478 258.021 182.465 257.906 182.465C257.625 182.465 257.376 182.533 257.16 182.668C256.947 182.801 256.822 182.988 256.785 183.23H256.129C256.176 182.809 256.361 182.482 256.684 182.25C257.007 182.018 257.414 181.902 257.906 181.902C258.052 181.902 258.19 181.913 258.32 181.934C258.451 181.952 258.59 181.993 258.738 182.059C258.887 182.121 259.013 182.203 259.117 182.305C259.224 182.406 259.312 182.547 259.383 182.727C259.453 182.904 259.488 183.109 259.488 183.344V185.152C259.488 185.249 259.507 185.315 259.543 185.352C259.582 185.388 259.65 185.406 259.746 185.406H259.953V186H259.504C259.194 186 259.003 185.862 258.93 185.586L258.883 185.406H258.848C258.665 185.63 258.438 185.802 258.164 185.922C257.893 186.039 257.594 186.098 257.266 186.098ZM257.344 185.535C257.534 185.535 257.716 185.509 257.891 185.457C258.068 185.402 258.23 185.324 258.379 185.223C258.527 185.118 258.646 184.979 258.734 184.805C258.823 184.63 258.867 184.431 258.867 184.207V183.953L257.25 184.367C257.026 184.424 256.863 184.5 256.762 184.594C256.66 184.685 256.609 184.812 256.609 184.977C256.609 185.349 256.854 185.535 257.344 185.535Z" fill="white"/>
<line x1="357" y1="166.5" x2="357" y2="3.5" stroke="white" stroke-opacity="0.1" stroke-linecap="round"/>
<path opacity="0.7" d="M345.91 176V175.441L348.441 173.055C348.553 172.948 348.643 172.858 348.711 172.785C348.781 172.71 348.858 172.617 348.941 172.508C349.025 172.396 349.087 172.284 349.129 172.172C349.171 172.057 349.191 171.941 349.191 171.824C349.191 171.626 349.129 171.456 349.004 171.312C348.879 171.169 348.725 171.066 348.543 171.004C348.363 170.941 348.169 170.91 347.961 170.91C347.596 170.91 347.285 171.01 347.027 171.211C346.77 171.411 346.633 171.701 346.617 172.078H345.91C345.926 171.815 345.977 171.581 346.062 171.375C346.148 171.167 346.257 170.997 346.387 170.867C346.517 170.734 346.671 170.625 346.848 170.539C347.025 170.453 347.203 170.393 347.383 170.359C347.565 170.323 347.758 170.305 347.961 170.305C348.328 170.305 348.655 170.362 348.941 170.477C349.228 170.589 349.456 170.76 349.625 170.992C349.794 171.224 349.879 171.501 349.879 171.824C349.879 172.001 349.854 172.168 349.805 172.324C349.755 172.48 349.677 172.634 349.57 172.785C349.464 172.936 349.357 173.069 349.25 173.184C349.143 173.296 349.001 173.435 348.824 173.602L346.969 175.344V175.375H349.879V176H345.91ZM350.676 176V175.441L353.207 173.055C353.319 172.948 353.409 172.858 353.477 172.785C353.547 172.71 353.624 172.617 353.707 172.508C353.79 172.396 353.853 172.284 353.895 172.172C353.936 172.057 353.957 171.941 353.957 171.824C353.957 171.626 353.895 171.456 353.77 171.312C353.645 171.169 353.491 171.066 353.309 171.004C353.129 170.941 352.935 170.91 352.727 170.91C352.362 170.91 352.051 171.01 351.793 171.211C351.535 171.411 351.398 171.701 351.383 172.078H350.676C350.691 171.815 350.742 171.581 350.828 171.375C350.914 171.167 351.022 170.997 351.152 170.867C351.283 170.734 351.436 170.625 351.613 170.539C351.79 170.453 351.969 170.393 352.148 170.359C352.331 170.323 352.523 170.305 352.727 170.305C353.094 170.305 353.421 170.362 353.707 170.477C353.993 170.589 354.221 170.76 354.391 170.992C354.56 171.224 354.645 171.501 354.645 171.824C354.645 172.001 354.62 172.168 354.57 172.324C354.521 172.48 354.443 172.634 354.336 172.785C354.229 172.936 354.122 173.069 354.016 173.184C353.909 173.296 353.767 173.435 353.59 173.602L351.734 175.344V175.375H354.645V176H350.676ZM355.605 174V173.406H358.406V174H355.605ZM359.441 176V175.441L361.973 173.055C362.085 172.948 362.174 172.858 362.242 172.785C362.312 172.71 362.389 172.617 362.473 172.508C362.556 172.396 362.618 172.284 362.66 172.172C362.702 172.057 362.723 171.941 362.723 171.824C362.723 171.626 362.66 171.456 362.535 171.312C362.41 171.169 362.257 171.066 362.074 171.004C361.895 170.941 361.701 170.91 361.492 170.91C361.128 170.91 360.816 171.01 360.559 171.211C360.301 171.411 360.164 171.701 360.148 172.078H359.441C359.457 171.815 359.508 171.581 359.594 171.375C359.68 171.167 359.788 170.997 359.918 170.867C360.048 170.734 360.202 170.625 360.379 170.539C360.556 170.453 360.734 170.393 360.914 170.359C361.096 170.323 361.289 170.305 361.492 170.305C361.859 170.305 362.186 170.362 362.473 170.477C362.759 170.589 362.987 170.76 363.156 170.992C363.326 171.224 363.41 171.501 363.41 171.824C363.41 172.001 363.385 172.168 363.336 172.324C363.286 172.48 363.208 172.634 363.102 172.785C362.995 172.936 362.888 173.069 362.781 173.184C362.674 173.296 362.533 173.435 362.355 173.602L360.5 175.344V175.375H363.41V176H359.441ZM367.547 176C367.281 176.065 366.995 176.098 366.688 176.098C366.38 176.098 366.094 176.065 365.828 176C365.562 175.932 365.323 175.833 365.109 175.703C364.898 175.57 364.732 175.395 364.609 175.176C364.49 174.954 364.43 174.701 364.43 174.414C364.43 173.747 364.783 173.299 365.488 173.07V173.039C365.197 172.93 364.974 172.768 364.82 172.555C364.667 172.339 364.59 172.095 364.59 171.824C364.59 171.512 364.684 171.24 364.871 171.008C365.061 170.773 365.312 170.598 365.625 170.48C365.94 170.363 366.294 170.305 366.688 170.305C367.081 170.305 367.434 170.363 367.746 170.48C368.061 170.598 368.312 170.773 368.5 171.008C368.688 171.24 368.781 171.512 368.781 171.824C368.781 172.095 368.704 172.339 368.551 172.555C368.397 172.768 368.176 172.93 367.887 173.039V173.07C368.249 173.188 368.514 173.358 368.684 173.582C368.855 173.803 368.941 174.081 368.941 174.414C368.941 174.701 368.88 174.954 368.758 175.176C368.638 175.395 368.473 175.57 368.262 175.703C368.051 175.833 367.812 175.932 367.547 176ZM365.441 171.312C365.311 171.453 365.246 171.624 365.246 171.824C365.246 172.025 365.311 172.195 365.441 172.336C365.574 172.477 365.746 172.578 365.957 172.641C366.168 172.703 366.411 172.734 366.688 172.734C366.964 172.734 367.207 172.703 367.418 172.641C367.629 172.578 367.799 172.477 367.93 172.336C368.06 172.195 368.125 172.025 368.125 171.824C368.125 171.624 368.06 171.453 367.93 171.312C367.799 171.172 367.628 171.07 367.414 171.008C367.203 170.943 366.961 170.91 366.688 170.91C366.414 170.91 366.171 170.943 365.957 171.008C365.746 171.07 365.574 171.172 365.441 171.312ZM365.117 174.414C365.117 174.604 365.156 174.771 365.234 174.914C365.315 175.055 365.428 175.167 365.574 175.25C365.72 175.331 365.885 175.391 366.07 175.43C366.255 175.469 366.461 175.488 366.688 175.488C366.914 175.488 367.12 175.469 367.305 175.43C367.49 175.391 367.654 175.331 367.797 175.25C367.943 175.167 368.055 175.055 368.133 174.914C368.214 174.771 368.254 174.604 368.254 174.414C368.254 174.224 368.214 174.059 368.133 173.918C368.055 173.777 367.943 173.667 367.797 173.586C367.654 173.503 367.49 173.441 367.305 173.402C367.12 173.363 366.914 173.344 366.688 173.344C366.38 173.344 366.113 173.378 365.887 173.445C365.66 173.51 365.475 173.625 365.332 173.789C365.189 173.953 365.117 174.161 365.117 174.414ZM343.391 186.098C343.271 186.098 343.158 186.09 343.051 186.074C342.944 186.061 342.829 186.031 342.707 185.984C342.587 185.938 342.483 185.876 342.395 185.801C342.309 185.725 342.237 185.621 342.18 185.488C342.122 185.355 342.094 185.201 342.094 185.023C342.094 184.867 342.117 184.727 342.164 184.602C342.211 184.477 342.271 184.374 342.344 184.293C342.417 184.21 342.512 184.135 342.629 184.07C342.749 184.003 342.863 183.949 342.973 183.91C343.085 183.871 343.219 183.832 343.375 183.793L344.992 183.375V183.266C344.992 183.115 344.962 182.984 344.902 182.875C344.842 182.763 344.763 182.68 344.664 182.625C344.565 182.568 344.464 182.527 344.359 182.504C344.255 182.478 344.146 182.465 344.031 182.465C343.75 182.465 343.501 182.533 343.285 182.668C343.072 182.801 342.947 182.988 342.91 183.23H342.254C342.301 182.809 342.486 182.482 342.809 182.25C343.132 182.018 343.539 181.902 344.031 181.902C344.177 181.902 344.315 181.913 344.445 181.934C344.576 181.952 344.715 181.993 344.863 182.059C345.012 182.121 345.138 182.203 345.242 182.305C345.349 182.406 345.438 182.547 345.508 182.727C345.578 182.904 345.613 183.109 345.613 183.344V185.152C345.613 185.249 345.632 185.315 345.668 185.352C345.707 185.388 345.775 185.406 345.871 185.406H346.078V186H345.629C345.319 186 345.128 185.862 345.055 185.586L345.008 185.406H344.973C344.79 185.63 344.562 185.802 344.289 185.922C344.018 186.039 343.719 186.098 343.391 186.098ZM343.469 185.535C343.659 185.535 343.841 185.509 344.016 185.457C344.193 185.402 344.355 185.324 344.504 185.223C344.652 185.118 344.771 184.979 344.859 184.805C344.948 184.63 344.992 184.431 344.992 184.207V183.953L343.375 184.367C343.151 184.424 342.988 184.5 342.887 184.594C342.785 184.685 342.734 184.812 342.734 184.977C342.734 185.349 342.979 185.535 343.469 185.535ZM347.102 186V182H349.277C349.691 182 350.025 182.098 350.277 182.293C350.53 182.486 350.656 182.74 350.656 183.055C350.656 183.43 350.458 183.712 350.062 183.902V183.938C350.286 184.026 350.46 184.156 350.582 184.328C350.704 184.497 350.766 184.691 350.766 184.91C350.766 185.217 350.646 185.477 350.406 185.688C350.169 185.896 349.846 186 349.438 186H347.102ZM347.742 183.648H349.277C349.501 183.648 349.68 183.603 349.812 183.512C349.948 183.418 350.016 183.285 350.016 183.113C350.016 182.941 349.948 182.809 349.812 182.715C349.68 182.621 349.501 182.574 349.277 182.574H347.742V183.648ZM347.742 185.426H349.375C349.604 185.426 349.786 185.37 349.922 185.258C350.057 185.146 350.125 185.001 350.125 184.824C350.125 184.647 350.057 184.503 349.922 184.391C349.786 184.279 349.604 184.223 349.375 184.223H347.742V185.426ZM351.867 186V182H354.75V182.594H352.508V186H351.867ZM355.711 187.602V187.008H356.316C356.475 187.008 356.6 186.973 356.691 186.902C356.785 186.832 356.868 186.712 356.941 186.543L357.191 185.953L355.359 182H356.062L357.504 185.152H357.535L358.863 182H359.551L357.535 186.77C357.405 187.079 357.251 187.296 357.074 187.418C356.9 187.54 356.647 187.602 356.316 187.602H355.711ZM362.066 186.098C361.473 186.098 360.982 185.901 360.594 185.508C360.208 185.115 360.016 184.612 360.016 184C360.016 183.388 360.208 182.885 360.594 182.492C360.982 182.099 361.473 181.902 362.066 181.902C362.556 181.902 362.978 182.042 363.332 182.32C363.686 182.596 363.919 182.97 364.031 183.441H363.375C363.271 183.134 363.105 182.897 362.879 182.73C362.655 182.564 362.384 182.48 362.066 182.48C361.645 182.48 361.303 182.621 361.043 182.902C360.785 183.184 360.656 183.549 360.656 184C360.656 184.451 360.785 184.816 361.043 185.098C361.303 185.379 361.645 185.52 362.066 185.52C362.384 185.52 362.655 185.436 362.879 185.27C363.105 185.103 363.271 184.866 363.375 184.559H364.031C363.919 185.03 363.686 185.405 363.332 185.684C362.978 185.96 362.556 186.098 362.066 186.098ZM364.609 182.574V182H368.449V182.574H366.848V186H366.211V182.574H364.609ZM370.266 186.098C370.146 186.098 370.033 186.09 369.926 186.074C369.819 186.061 369.704 186.031 369.582 185.984C369.462 185.938 369.358 185.876 369.27 185.801C369.184 185.725 369.112 185.621 369.055 185.488C368.997 185.355 368.969 185.201 368.969 185.023C368.969 184.867 368.992 184.727 369.039 184.602C369.086 184.477 369.146 184.374 369.219 184.293C369.292 184.21 369.387 184.135 369.504 184.07C369.624 184.003 369.738 183.949 369.848 183.91C369.96 183.871 370.094 183.832 370.25 183.793L371.867 183.375V183.266C371.867 183.115 371.837 182.984 371.777 182.875C371.717 182.763 371.638 182.68 371.539 182.625C371.44 182.568 371.339 182.527 371.234 182.504C371.13 182.478 371.021 182.465 370.906 182.465C370.625 182.465 370.376 182.533 370.16 182.668C369.947 182.801 369.822 182.988 369.785 183.23H369.129C369.176 182.809 369.361 182.482 369.684 182.25C370.007 182.018 370.414 181.902 370.906 181.902C371.052 181.902 371.19 181.913 371.32 181.934C371.451 181.952 371.59 181.993 371.738 182.059C371.887 182.121 372.013 182.203 372.117 182.305C372.224 182.406 372.312 182.547 372.383 182.727C372.453 182.904 372.488 183.109 372.488 183.344V185.152C372.488 185.249 372.507 185.315 372.543 185.352C372.582 185.388 372.65 185.406 372.746 185.406H372.953V186H372.504C372.194 186 372.003 185.862 371.93 185.586L371.883 185.406H371.848C371.665 185.63 371.438 185.802 371.164 185.922C370.893 186.039 370.594 186.098 370.266 186.098ZM370.344 185.535C370.534 185.535 370.716 185.509 370.891 185.457C371.068 185.402 371.23 185.324 371.379 185.223C371.527 185.118 371.646 184.979 371.734 184.805C371.823 184.63 371.867 184.431 371.867 184.207V183.953L370.25 184.367C370.026 184.424 369.863 184.5 369.762 184.594C369.66 184.685 369.609 184.812 369.609 184.977C369.609 185.349 369.854 185.535 370.344 185.535Z" fill="white"/>
<line x1="470.5" y1="166.5" x2="470.5" y2="3.5" stroke="white" stroke-opacity="0.1" stroke-linecap="round"/>
<path opacity="0.7" d="M447.359 176V175.441L449.891 173.055C450.003 172.948 450.092 172.858 450.16 172.785C450.23 172.71 450.307 172.617 450.391 172.508C450.474 172.396 450.536 172.284 450.578 172.172C450.62 172.057 450.641 171.941 450.641 171.824C450.641 171.626 450.578 171.456 450.453 171.312C450.328 171.169 450.174 171.066 449.992 171.004C449.812 170.941 449.618 170.91 449.41 170.91C449.046 170.91 448.734 171.01 448.477 171.211C448.219 171.411 448.082 171.701 448.066 172.078H447.359C447.375 171.815 447.426 171.581 447.512 171.375C447.598 171.167 447.706 170.997 447.836 170.867C447.966 170.734 448.12 170.625 448.297 170.539C448.474 170.453 448.652 170.393 448.832 170.359C449.014 170.323 449.207 170.305 449.41 170.305C449.777 170.305 450.104 170.362 450.391 170.477C450.677 170.589 450.905 170.76 451.074 170.992C451.243 171.224 451.328 171.501 451.328 171.824C451.328 172.001 451.303 172.168 451.254 172.324C451.204 172.48 451.126 172.634 451.02 172.785C450.913 172.936 450.806 173.069 450.699 173.184C450.592 173.296 450.451 173.435 450.273 173.602L448.418 175.344V175.375H451.328V176H447.359ZM454.379 170.305C454.626 170.305 454.858 170.337 455.074 170.402C455.29 170.465 455.495 170.569 455.688 170.715C455.883 170.858 456.049 171.039 456.188 171.258C456.326 171.477 456.435 171.751 456.516 172.082C456.596 172.413 456.637 172.785 456.637 173.199C456.637 173.522 456.613 173.822 456.566 174.098C456.522 174.374 456.445 174.637 456.336 174.887C456.229 175.137 456.091 175.35 455.922 175.527C455.753 175.702 455.536 175.841 455.273 175.945C455.013 176.047 454.715 176.098 454.379 176.098C453.819 176.098 453.37 175.964 453.031 175.695C452.693 175.427 452.487 175.053 452.414 174.574H453.117C453.188 174.866 453.322 175.091 453.52 175.25C453.72 175.409 454.007 175.488 454.379 175.488C454.915 175.488 455.314 175.306 455.574 174.941C455.837 174.574 455.973 174.004 455.98 173.23H455.949C455.564 173.775 455.014 174.047 454.301 174.047C453.697 174.047 453.207 173.874 452.832 173.527C452.457 173.178 452.27 172.728 452.27 172.176C452.27 171.613 452.469 171.161 452.867 170.82C453.266 170.477 453.77 170.305 454.379 170.305ZM455.398 171.25C455.13 171.023 454.79 170.91 454.379 170.91C453.967 170.91 453.628 171.023 453.359 171.25C453.091 171.477 452.957 171.785 452.957 172.176C452.957 172.566 453.091 172.875 453.359 173.102C453.628 173.328 453.967 173.441 454.379 173.441C454.79 173.441 455.13 173.328 455.398 173.102C455.669 172.875 455.805 172.566 455.805 172.176C455.805 171.785 455.669 171.477 455.398 171.25ZM461.242 176.098C461.122 176.098 461.009 176.09 460.902 176.074C460.796 176.061 460.681 176.031 460.559 175.984C460.439 175.938 460.335 175.876 460.246 175.801C460.16 175.725 460.089 175.621 460.031 175.488C459.974 175.355 459.945 175.201 459.945 175.023C459.945 174.867 459.969 174.727 460.016 174.602C460.062 174.477 460.122 174.374 460.195 174.293C460.268 174.21 460.363 174.135 460.48 174.07C460.6 174.003 460.715 173.949 460.824 173.91C460.936 173.871 461.07 173.832 461.227 173.793L462.844 173.375V173.266C462.844 173.115 462.814 172.984 462.754 172.875C462.694 172.763 462.615 172.68 462.516 172.625C462.417 172.568 462.315 172.527 462.211 172.504C462.107 172.478 461.997 172.465 461.883 172.465C461.602 172.465 461.353 172.533 461.137 172.668C460.923 172.801 460.798 172.988 460.762 173.23H460.105C460.152 172.809 460.337 172.482 460.66 172.25C460.983 172.018 461.391 171.902 461.883 171.902C462.029 171.902 462.167 171.913 462.297 171.934C462.427 171.952 462.566 171.993 462.715 172.059C462.863 172.121 462.99 172.203 463.094 172.305C463.201 172.406 463.289 172.547 463.359 172.727C463.43 172.904 463.465 173.109 463.465 173.344V175.152C463.465 175.249 463.483 175.315 463.52 175.352C463.559 175.388 463.626 175.406 463.723 175.406H463.93V176H463.48C463.171 176 462.979 175.862 462.906 175.586L462.859 175.406H462.824C462.642 175.63 462.414 175.802 462.141 175.922C461.87 176.039 461.57 176.098 461.242 176.098ZM461.32 175.535C461.51 175.535 461.693 175.509 461.867 175.457C462.044 175.402 462.207 175.324 462.355 175.223C462.504 175.118 462.622 174.979 462.711 174.805C462.799 174.63 462.844 174.431 462.844 174.207V173.953L461.227 174.367C461.003 174.424 460.84 174.5 460.738 174.594C460.637 174.685 460.586 174.812 460.586 174.977C460.586 175.349 460.831 175.535 461.32 175.535ZM464.953 176V172H467.129C467.543 172 467.876 172.098 468.129 172.293C468.382 172.486 468.508 172.74 468.508 173.055C468.508 173.43 468.31 173.712 467.914 173.902V173.938C468.138 174.026 468.311 174.156 468.434 174.328C468.556 174.497 468.617 174.691 468.617 174.91C468.617 175.217 468.497 175.477 468.258 175.688C468.021 175.896 467.698 176 467.289 176H464.953ZM465.594 173.648H467.129C467.353 173.648 467.531 173.603 467.664 173.512C467.799 173.418 467.867 173.285 467.867 173.113C467.867 172.941 467.799 172.809 467.664 172.715C467.531 172.621 467.353 172.574 467.129 172.574H465.594V173.648ZM465.594 175.426H467.227C467.456 175.426 467.638 175.37 467.773 175.258C467.909 175.146 467.977 175.001 467.977 174.824C467.977 174.647 467.909 174.503 467.773 174.391C467.638 174.279 467.456 174.223 467.227 174.223H465.594V175.426ZM469.719 176V172H472.602V172.594H470.359V176H469.719ZM473.562 177.602V177.008H474.168C474.327 177.008 474.452 176.973 474.543 176.902C474.637 176.832 474.72 176.712 474.793 176.543L475.043 175.953L473.211 172H473.914L475.355 175.152H475.387L476.715 172H477.402L475.387 176.77C475.257 177.079 475.103 177.296 474.926 177.418C474.751 177.54 474.499 177.602 474.168 177.602H473.562ZM479.918 176.098C479.324 176.098 478.833 175.901 478.445 175.508C478.06 175.115 477.867 174.612 477.867 174C477.867 173.388 478.06 172.885 478.445 172.492C478.833 172.099 479.324 171.902 479.918 171.902C480.408 171.902 480.829 172.042 481.184 172.32C481.538 172.596 481.771 172.97 481.883 173.441H481.227C481.122 173.134 480.957 172.897 480.73 172.73C480.507 172.564 480.236 172.48 479.918 172.48C479.496 172.48 479.155 172.621 478.895 172.902C478.637 173.184 478.508 173.549 478.508 174C478.508 174.451 478.637 174.816 478.895 175.098C479.155 175.379 479.496 175.52 479.918 175.52C480.236 175.52 480.507 175.436 480.73 175.27C480.957 175.103 481.122 174.866 481.227 174.559H481.883C481.771 175.03 481.538 175.405 481.184 175.684C480.829 175.96 480.408 176.098 479.918 176.098ZM482.461 172.574V172H486.301V172.574H484.699V176H484.062V172.574H482.461ZM488.117 176.098C487.997 176.098 487.884 176.09 487.777 176.074C487.671 176.061 487.556 176.031 487.434 175.984C487.314 175.938 487.21 175.876 487.121 175.801C487.035 175.725 486.964 175.621 486.906 175.488C486.849 175.355 486.82 175.201 486.82 175.023C486.82 174.867 486.844 174.727 486.891 174.602C486.938 174.477 486.997 174.374 487.07 174.293C487.143 174.21 487.238 174.135 487.355 174.07C487.475 174.003 487.59 173.949 487.699 173.91C487.811 173.871 487.945 173.832 488.102 173.793L489.719 173.375V173.266C489.719 173.115 489.689 172.984 489.629 172.875C489.569 172.763 489.49 172.68 489.391 172.625C489.292 172.568 489.19 172.527 489.086 172.504C488.982 172.478 488.872 172.465 488.758 172.465C488.477 172.465 488.228 172.533 488.012 172.668C487.798 172.801 487.673 172.988 487.637 173.23H486.98C487.027 172.809 487.212 172.482 487.535 172.25C487.858 172.018 488.266 171.902 488.758 171.902C488.904 171.902 489.042 171.913 489.172 171.934C489.302 171.952 489.441 171.993 489.59 172.059C489.738 172.121 489.865 172.203 489.969 172.305C490.076 172.406 490.164 172.547 490.234 172.727C490.305 172.904 490.34 173.109 490.34 173.344V175.152C490.34 175.249 490.358 175.315 490.395 175.352C490.434 175.388 490.501 175.406 490.598 175.406H490.805V176H490.355C490.046 176 489.854 175.862 489.781 175.586L489.734 175.406H489.699C489.517 175.63 489.289 175.802 489.016 175.922C488.745 176.039 488.445 176.098 488.117 176.098ZM488.195 175.535C488.385 175.535 488.568 175.509 488.742 175.457C488.919 175.402 489.082 175.324 489.23 175.223C489.379 175.118 489.497 174.979 489.586 174.805C489.674 174.63 489.719 174.431 489.719 174.207V173.953L488.102 174.367C487.878 174.424 487.715 174.5 487.613 174.594C487.512 174.685 487.461 174.812 487.461 174.977C487.461 175.349 487.706 175.535 488.195 175.535ZM491.602 174V173.406H494.402V174H491.602ZM451.281 186V184.574H448.305V184.078L451.105 180.398H451.969V183.953H452.738V184.574H451.969V186H451.281ZM449.203 183.953H451.281V181.23H451.25L449.203 183.922V183.953ZM457.871 186.098C457.277 186.098 456.786 185.901 456.398 185.508C456.013 185.115 455.82 184.612 455.82 184C455.82 183.388 456.013 182.885 456.398 182.492C456.786 182.099 457.277 181.902 457.871 181.902C458.361 181.902 458.783 182.042 459.137 182.32C459.491 182.596 459.724 182.97 459.836 183.441H459.18C459.076 183.134 458.91 182.897 458.684 182.73C458.46 182.564 458.189 182.48 457.871 182.48C457.449 182.48 457.108 182.621 456.848 182.902C456.59 183.184 456.461 183.549 456.461 184C456.461 184.451 456.59 184.816 456.848 185.098C457.108 185.379 457.449 185.52 457.871 185.52C458.189 185.52 458.46 185.436 458.684 185.27C458.91 185.103 459.076 184.866 459.18 184.559H459.836C459.724 185.03 459.491 185.405 459.137 185.684C458.783 185.96 458.361 186.098 457.871 186.098ZM462.66 186.098C462.072 186.098 461.579 185.901 461.184 185.508C460.79 185.112 460.594 184.609 460.594 184C460.594 183.599 460.685 183.238 460.867 182.918C461.052 182.595 461.301 182.345 461.613 182.168C461.928 181.991 462.277 181.902 462.66 181.902C463.241 181.902 463.719 182.092 464.094 182.473C464.471 182.85 464.66 183.344 464.66 183.953L464.645 184.238H461.25C461.299 184.626 461.453 184.94 461.711 185.18C461.971 185.417 462.288 185.535 462.66 185.535C462.928 185.535 463.169 185.473 463.383 185.348C463.599 185.223 463.763 185.051 463.875 184.832H464.562C464.411 185.223 464.164 185.531 463.82 185.758C463.479 185.984 463.092 186.098 462.66 186.098ZM461.258 183.68H464.004C463.944 183.31 463.794 183.016 463.555 182.797C463.315 182.576 463.017 182.465 462.66 182.465C462.301 182.465 461.993 182.576 461.738 182.797C461.483 183.018 461.323 183.312 461.258 183.68ZM466.383 184.207V186H465.742V182H466.383V183.633H468.625V182H469.262V186H468.625V184.207H466.383ZM470.289 182.574V182H474.129V182.574H472.527V186H471.891V182.574H470.289ZM475.645 186H474.926L475.805 184.398C475.508 184.32 475.279 184.182 475.117 183.984C474.958 183.786 474.879 183.535 474.879 183.23C474.879 182.835 475.012 182.531 475.277 182.32C475.543 182.107 475.911 182 476.383 182H478.461V186H477.82V184.465H476.492L475.645 186ZM476.383 183.887H477.82V182.574H476.383C476.083 182.574 475.863 182.633 475.723 182.75C475.585 182.867 475.516 183.027 475.516 183.23C475.516 183.434 475.585 183.594 475.723 183.711C475.863 183.828 476.083 183.887 476.383 183.887ZM481.676 186.098C481.384 186.098 481.112 186.047 480.859 185.945C480.607 185.841 480.387 185.693 480.199 185.5C480.012 185.307 479.865 185.065 479.758 184.773C479.651 184.479 479.598 184.152 479.598 183.793C479.598 183.548 479.607 183.322 479.625 183.113C479.643 182.905 479.674 182.695 479.719 182.484C479.766 182.271 479.826 182.077 479.898 181.902C479.974 181.728 480.069 181.56 480.184 181.398C480.301 181.237 480.436 181.096 480.59 180.977C480.746 180.854 480.93 180.747 481.141 180.656C481.354 180.565 481.591 180.496 481.852 180.449L483.438 180.16V180.801L482.027 181.055C481.772 181.102 481.553 181.163 481.371 181.238C481.189 181.311 481.022 181.413 480.871 181.543C480.723 181.673 480.599 181.837 480.5 182.035C480.401 182.233 480.319 182.473 480.254 182.754H480.285C480.665 182.293 481.167 182.062 481.789 182.062C482.333 182.062 482.797 182.254 483.18 182.637C483.565 183.017 483.758 183.497 483.758 184.078C483.758 184.466 483.665 184.815 483.48 185.125C483.298 185.432 483.048 185.672 482.73 185.844C482.413 186.013 482.061 186.098 481.676 186.098ZM480.641 185.117C480.914 185.385 481.259 185.52 481.676 185.52C482.092 185.52 482.436 185.385 482.707 185.117C482.98 184.846 483.117 184.5 483.117 184.078C483.117 183.656 482.982 183.311 482.711 183.043C482.44 182.775 482.095 182.641 481.676 182.641C481.257 182.641 480.911 182.775 480.641 183.043C480.37 183.311 480.234 183.656 480.234 184.078C480.234 184.5 480.37 184.846 480.641 185.117ZM486.988 181.902C487.566 181.902 488.042 182.099 488.414 182.492C488.786 182.883 488.973 183.385 488.973 184C488.973 184.615 488.786 185.118 488.414 185.512C488.042 185.902 487.566 186.098 486.988 186.098C486.376 186.098 485.885 185.867 485.516 185.406H485.484V187.602H484.844V182H485.484V182.594H485.516C485.885 182.133 486.376 181.902 486.988 181.902ZM485.875 185.094C486.148 185.378 486.493 185.52 486.91 185.52C487.327 185.52 487.668 185.379 487.934 185.098C488.199 184.814 488.332 184.448 488.332 184C488.332 183.552 488.199 183.188 487.934 182.906C487.668 182.622 487.327 182.48 486.91 182.48C486.493 182.48 486.148 182.622 485.875 182.906C485.604 183.19 485.469 183.555 485.469 184C485.469 184.445 485.604 184.81 485.875 185.094ZM490.559 186H489.84L490.719 184.398C490.422 184.32 490.193 184.182 490.031 183.984C489.872 183.786 489.793 183.535 489.793 183.23C489.793 182.835 489.926 182.531 490.191 182.32C490.457 182.107 490.826 182 491.297 182H493.375V186H492.734V184.465H491.406L490.559 186ZM491.297 183.887H492.734V182.574H491.297C490.997 182.574 490.777 182.633 490.637 182.75C490.499 182.867 490.43 183.027 490.43 183.23C490.43 183.434 490.499 183.594 490.637 183.711C490.777 183.828 490.997 183.887 491.297 183.887Z" fill="white"/>
<line x1="583.5" y1="166.5" x2="583.5" y2="3.5" stroke="white" stroke-opacity="0.1" stroke-linecap="round"/>
<path opacity="0.7" d="M578.816 176.098C578.262 176.098 577.789 175.956 577.398 175.672C577.008 175.388 576.781 175.007 576.719 174.527H577.426C577.499 174.822 577.659 175.059 577.906 175.238C578.154 175.415 578.457 175.504 578.816 175.504C579.246 175.504 579.599 175.382 579.875 175.137C580.151 174.892 580.289 174.572 580.289 174.176C580.289 173.78 580.155 173.46 579.887 173.215C579.618 172.97 579.277 172.848 578.863 172.848C578.569 172.848 578.303 172.917 578.066 173.055C577.832 173.19 577.65 173.388 577.52 173.648H576.816L577.215 170.398H580.656V171.023H577.824L577.617 172.734H577.648C578.013 172.417 578.456 172.258 578.977 172.258C579.336 172.258 579.667 172.336 579.969 172.492C580.271 172.646 580.514 172.871 580.699 173.168C580.884 173.462 580.977 173.798 580.977 174.176C580.977 174.556 580.88 174.893 580.688 175.188C580.497 175.482 580.238 175.707 579.91 175.863C579.585 176.02 579.22 176.098 578.816 176.098ZM582.02 174V173.406H584.82V174H582.02ZM586.957 176V171.289L585.727 171.887L585.484 171.312L587.355 170.398H587.645V176H586.957ZM590.27 176V171.289L589.039 171.887L588.797 171.312L590.668 170.398H590.957V176H590.27ZM567.113 186.098C566.52 186.098 566.029 185.901 565.641 185.508C565.255 185.115 565.062 184.612 565.062 184C565.062 183.388 565.255 182.885 565.641 182.492C566.029 182.099 566.52 181.902 567.113 181.902C567.603 181.902 568.025 182.042 568.379 182.32C568.733 182.596 568.966 182.97 569.078 183.441H568.422C568.318 183.134 568.152 182.897 567.926 182.73C567.702 182.564 567.431 182.48 567.113 182.48C566.691 182.48 566.35 182.621 566.09 182.902C565.832 183.184 565.703 183.549 565.703 184C565.703 184.451 565.832 184.816 566.09 185.098C566.35 185.379 566.691 185.52 567.113 185.52C567.431 185.52 567.702 185.436 567.926 185.27C568.152 185.103 568.318 184.866 568.422 184.559H569.078C568.966 185.03 568.733 185.405 568.379 185.684C568.025 185.96 567.603 186.098 567.113 186.098ZM571.902 186.098C571.314 186.098 570.822 185.901 570.426 185.508C570.033 185.112 569.836 184.609 569.836 184C569.836 183.599 569.927 183.238 570.109 182.918C570.294 182.595 570.543 182.345 570.855 182.168C571.171 181.991 571.52 181.902 571.902 181.902C572.483 181.902 572.961 182.092 573.336 182.473C573.714 182.85 573.902 183.344 573.902 183.953L573.887 184.238H570.492C570.542 184.626 570.695 184.94 570.953 185.18C571.214 185.417 571.53 185.535 571.902 185.535C572.171 185.535 572.411 185.473 572.625 185.348C572.841 185.223 573.005 185.051 573.117 184.832H573.805C573.654 185.223 573.406 185.531 573.062 185.758C572.721 185.984 572.335 186.098 571.902 186.098ZM570.5 183.68H573.246C573.186 183.31 573.036 183.016 572.797 182.797C572.557 182.576 572.259 182.465 571.902 182.465C571.543 182.465 571.236 182.576 570.98 182.797C570.725 183.018 570.565 183.312 570.5 183.68ZM575.625 184.207V186H574.984V182H575.625V183.633H577.867V182H578.504V186H577.867V184.207H575.625ZM579.531 182.574V182H583.371V182.574H581.77V186H581.133V182.574H579.531ZM584.887 186H584.168L585.047 184.398C584.75 184.32 584.521 184.182 584.359 183.984C584.201 183.786 584.121 183.535 584.121 183.23C584.121 182.835 584.254 182.531 584.52 182.32C584.785 182.107 585.154 182 585.625 182H587.703V186H587.062V184.465H585.734L584.887 186ZM585.625 183.887H587.062V182.574H585.625C585.326 182.574 585.105 182.633 584.965 182.75C584.827 182.867 584.758 183.027 584.758 183.23C584.758 183.434 584.827 183.594 584.965 183.711C585.105 183.828 585.326 183.887 585.625 183.887ZM590.918 186.098C590.626 186.098 590.354 186.047 590.102 185.945C589.849 185.841 589.629 185.693 589.441 185.5C589.254 185.307 589.107 185.065 589 184.773C588.893 184.479 588.84 184.152 588.84 183.793C588.84 183.548 588.849 183.322 588.867 183.113C588.885 182.905 588.917 182.695 588.961 182.484C589.008 182.271 589.068 182.077 589.141 181.902C589.216 181.728 589.311 181.56 589.426 181.398C589.543 181.237 589.678 181.096 589.832 180.977C589.988 180.854 590.172 180.747 590.383 180.656C590.596 180.565 590.833 180.496 591.094 180.449L592.68 180.16V180.801L591.27 181.055C591.014 181.102 590.796 181.163 590.613 181.238C590.431 181.311 590.264 181.413 590.113 181.543C589.965 181.673 589.841 181.837 589.742 182.035C589.643 182.233 589.561 182.473 589.496 182.754H589.527C589.908 182.293 590.409 182.062 591.031 182.062C591.576 182.062 592.039 182.254 592.422 182.637C592.807 183.017 593 183.497 593 184.078C593 184.466 592.908 184.815 592.723 185.125C592.54 185.432 592.29 185.672 591.973 185.844C591.655 186.013 591.303 186.098 590.918 186.098ZM589.883 185.117C590.156 185.385 590.501 185.52 590.918 185.52C591.335 185.52 591.678 185.385 591.949 185.117C592.223 184.846 592.359 184.5 592.359 184.078C592.359 183.656 592.224 183.311 591.953 183.043C591.682 182.775 591.337 182.641 590.918 182.641C590.499 182.641 590.154 182.775 589.883 183.043C589.612 183.311 589.477 183.656 589.477 184.078C589.477 184.5 589.612 184.846 589.883 185.117ZM596.23 181.902C596.809 181.902 597.284 182.099 597.656 182.492C598.029 182.883 598.215 183.385 598.215 184C598.215 184.615 598.029 185.118 597.656 185.512C597.284 185.902 596.809 186.098 596.23 186.098C595.618 186.098 595.128 185.867 594.758 185.406H594.727V187.602H594.086V182H594.727V182.594H594.758C595.128 182.133 595.618 181.902 596.23 181.902ZM595.117 185.094C595.391 185.378 595.736 185.52 596.152 185.52C596.569 185.52 596.91 185.379 597.176 185.098C597.441 184.814 597.574 184.448 597.574 184C597.574 183.552 597.441 183.188 597.176 182.906C596.91 182.622 596.569 182.48 596.152 182.48C595.736 182.48 595.391 182.622 595.117 182.906C594.846 183.19 594.711 183.555 594.711 184C594.711 184.445 594.846 184.81 595.117 185.094ZM599.801 186H599.082L599.961 184.398C599.664 184.32 599.435 184.182 599.273 183.984C599.115 183.786 599.035 183.535 599.035 183.23C599.035 182.835 599.168 182.531 599.434 182.32C599.699 182.107 600.068 182 600.539 182H602.617V186H601.977V184.465H600.648L599.801 186ZM600.539 183.887H601.977V182.574H600.539C600.24 182.574 600.02 182.633 599.879 182.75C599.741 182.867 599.672 183.027 599.672 183.23C599.672 183.434 599.741 183.594 599.879 183.711C600.02 183.828 600.24 183.887 600.539 183.887Z" fill="white"/>
<path d="M17 160C17 160 57.0939 146.921 87.5375 130.546C124.15 110.853 144.952 70.7022 189.425 70.9195C235.943 71.1469 248.266 124.809 293.45 116.178C337.196 107.822 316.145 51.8086 359.712 42.9023C418.444 30.8961 406.681 127.886 467.3 130.546C534.213 133.482 587 35 587 35" stroke="url(#paint1_linear_578_10078)" stroke-width="1.42023" stroke-dasharray="2.84 2.84"/>
<path d="M17 160C17 160 57.0939 146.921 87.5375 130.546C124.15 110.853 144.952 70.7022 189.425 70.9195C235.943 71.1469 248.266 124.809 293.45 116.178C337.196 107.822 316.145 51.8086 359.712 42.9023C418.444 30.8961 406.681 127.886 467.3 130.546C534.213 133.482 587 35 587 35" stroke="white" stroke-opacity="0.2" stroke-width="1.42023" stroke-dasharray="2.84 2.84"/>
<path d="M89.1429 69.087C46.3623 77.6496 17 135.841 17 135.841V182H587V58.4349C587 58.4349 574.03 105.632 543.429 118.087C493.943 138.228 478.049 51.883 422.714 58.4349C395.733 61.6296 387.866 82.8823 360.571 83.2899C321.084 83.8796 321.495 35.0803 282 35.0001C230.298 34.8951 255.892 108.956 205.571 118.087C155.064 127.251 139.364 59.0353 89.1429 69.087Z" fill="url(#paint2_linear_578_10078)"/>
<path d="M17 135C17 135 46.3623 77.294 89.1429 68.8029C139.364 58.8349 155.064 126.482 205.571 117.394C255.892 108.34 230.298 34.896 282 35.0001C321.495 35.0797 321.084 83.4721 360.571 82.8874C387.866 82.4832 395.733 61.4076 422.714 58.2395C478.049 51.7423 493.943 137.367 543.429 117.394C574.03 105.043 587 58.2395 587 58.2395" stroke="url(#paint3_linear_578_10078)" stroke-width="2.84046" stroke-linecap="round"/>
<path d="M248 8C248 3.58172 251.582 0 256 0H302C306.418 0 310 3.58172 310 8V16C310 20.4183 306.418 24 302 24H256C251.582 24 248 20.4183 248 16V8Z" fill="#291F2F"/>
<path d="M259.269 15.1221C258.897 15.1221 258.556 15.0798 258.243 14.9951C257.931 14.9105 257.652 14.7852 257.408 14.6191C257.164 14.4499 256.969 14.2285 256.822 13.9551C256.676 13.6784 256.591 13.3594 256.568 12.998H257.433C257.462 13.431 257.654 13.7663 258.009 14.0039C258.364 14.2415 258.784 14.3604 259.269 14.3604C259.483 14.3604 259.688 14.3359 259.884 14.2871C260.079 14.2383 260.26 14.1634 260.426 14.0625C260.592 13.9583 260.724 13.8167 260.821 13.6377C260.922 13.4587 260.973 13.252 260.973 13.0176C260.973 12.64 260.842 12.3324 260.582 12.0947C260.325 11.8571 259.928 11.7383 259.391 11.7383H258.351V10.9619H259.352C259.856 10.9619 260.229 10.861 260.47 10.6592C260.711 10.4541 260.831 10.1807 260.831 9.83887C260.831 9.65332 260.797 9.48893 260.729 9.3457C260.663 9.20247 260.577 9.08691 260.47 8.99902C260.362 8.91113 260.235 8.83952 260.089 8.78418C259.946 8.72884 259.804 8.69141 259.664 8.67188C259.524 8.64909 259.379 8.6377 259.229 8.6377C258.715 8.6377 258.303 8.75651 257.994 8.99414C257.688 9.22852 257.521 9.53125 257.491 9.90234H256.632C256.664 9.45312 256.796 9.07552 257.027 8.76953C257.262 8.46029 257.564 8.23568 257.936 8.0957C258.307 7.95247 258.738 7.88086 259.229 7.88086C259.581 7.88086 259.903 7.91829 260.196 7.99316C260.493 8.06803 260.753 8.18034 260.978 8.33008C261.202 8.47982 261.376 8.67676 261.5 8.9209C261.627 9.16504 261.69 9.44499 261.69 9.76074C261.69 10.4606 261.391 10.9603 260.792 11.2598V11.2988C261.134 11.4583 261.393 11.6911 261.568 11.9971C261.744 12.2998 261.832 12.6546 261.832 13.0615C261.832 13.4163 261.765 13.7288 261.632 13.999C261.502 14.266 261.318 14.4808 261.08 14.6436C260.842 14.8031 260.572 14.9219 260.27 15C259.967 15.0814 259.633 15.1221 259.269 15.1221ZM265.802 15.1221C265.431 15.1221 265.089 15.0798 264.776 14.9951C264.464 14.9105 264.186 14.7852 263.941 14.6191C263.697 14.4499 263.502 14.2285 263.355 13.9551C263.209 13.6784 263.124 13.3594 263.102 12.998H263.966C263.995 13.431 264.187 13.7663 264.542 14.0039C264.897 14.2415 265.317 14.3604 265.802 14.3604C266.017 14.3604 266.222 14.3359 266.417 14.2871C266.612 14.2383 266.793 14.1634 266.959 14.0625C267.125 13.9583 267.257 13.8167 267.354 13.6377C267.455 13.4587 267.506 13.252 267.506 13.0176C267.506 12.64 267.376 12.3324 267.115 12.0947C266.858 11.8571 266.461 11.7383 265.924 11.7383H264.884V10.9619H265.885C266.389 10.9619 266.762 10.861 267.003 10.6592C267.244 10.4541 267.364 10.1807 267.364 9.83887C267.364 9.65332 267.33 9.48893 267.262 9.3457C267.197 9.20247 267.11 9.08691 267.003 8.99902C266.896 8.91113 266.769 8.83952 266.622 8.78418C266.479 8.72884 266.337 8.69141 266.197 8.67188C266.057 8.64909 265.912 8.6377 265.763 8.6377C265.248 8.6377 264.837 8.75651 264.527 8.99414C264.221 9.22852 264.054 9.53125 264.024 9.90234H263.165C263.198 9.45312 263.329 9.07552 263.561 8.76953C263.795 8.46029 264.098 8.23568 264.469 8.0957C264.84 7.95247 265.271 7.88086 265.763 7.88086C266.114 7.88086 266.437 7.91829 266.729 7.99316C267.026 8.06803 267.286 8.18034 267.511 8.33008C267.735 8.47982 267.91 8.67676 268.033 8.9209C268.16 9.16504 268.224 9.44499 268.224 9.76074C268.224 10.4606 267.924 10.9603 267.325 11.2598V11.2988C267.667 11.4583 267.926 11.6911 268.102 11.9971C268.277 12.2998 268.365 12.6546 268.365 13.0615C268.365 13.4163 268.299 13.7288 268.165 13.999C268.035 14.266 267.851 14.4808 267.613 14.6436C267.376 14.8031 267.105 14.9219 266.803 15C266.5 15.0814 266.166 15.1221 265.802 15.1221ZM275.235 15.1221C274.864 15.1221 274.522 15.0798 274.21 14.9951C273.897 14.9105 273.619 14.7852 273.375 14.6191C273.131 14.4499 272.936 14.2285 272.789 13.9551C272.643 13.6784 272.558 13.3594 272.535 12.998H273.399C273.429 13.431 273.621 13.7663 273.976 14.0039C274.33 14.2415 274.75 14.3604 275.235 14.3604C275.45 14.3604 275.655 14.3359 275.851 14.2871C276.046 14.2383 276.227 14.1634 276.393 14.0625C276.559 13.9583 276.69 13.8167 276.788 13.6377C276.889 13.4587 276.939 13.252 276.939 13.0176C276.939 12.64 276.809 12.3324 276.549 12.0947C276.292 11.8571 275.895 11.7383 275.357 11.7383H274.317V10.9619H275.318C275.823 10.9619 276.196 10.861 276.437 10.6592C276.677 10.4541 276.798 10.1807 276.798 9.83887C276.798 9.65332 276.764 9.48893 276.695 9.3457C276.63 9.20247 276.544 9.08691 276.437 8.99902C276.329 8.91113 276.202 8.83952 276.056 8.78418C275.912 8.72884 275.771 8.69141 275.631 8.67188C275.491 8.64909 275.346 8.6377 275.196 8.6377C274.682 8.6377 274.27 8.75651 273.961 8.99414C273.655 9.22852 273.487 9.53125 273.458 9.90234H272.599C272.631 9.45312 272.763 9.07552 272.994 8.76953C273.229 8.46029 273.531 8.23568 273.902 8.0957C274.273 7.95247 274.705 7.88086 275.196 7.88086C275.548 7.88086 275.87 7.91829 276.163 7.99316C276.459 8.06803 276.72 8.18034 276.944 8.33008C277.169 8.47982 277.343 8.67676 277.467 8.9209C277.594 9.16504 277.657 9.44499 277.657 9.76074C277.657 10.4606 277.358 10.9603 276.759 11.2598V11.2988C277.101 11.4583 277.359 11.6911 277.535 11.9971C277.711 12.2998 277.799 12.6546 277.799 13.0615C277.799 13.4163 277.732 13.7288 277.599 13.999C277.468 14.266 277.285 14.4808 277.047 14.6436C276.809 14.8031 276.539 14.9219 276.236 15C275.934 15.0814 275.6 15.1221 275.235 15.1221ZM281.793 15.1221C281.1 15.1221 280.509 14.9447 280.021 14.5898C279.532 14.235 279.249 13.7581 279.171 13.1592H280.055C280.146 13.527 280.346 13.8232 280.655 14.0479C280.965 14.2692 281.344 14.3799 281.793 14.3799C282.33 14.3799 282.771 14.2269 283.116 13.9209C283.461 13.6149 283.634 13.2145 283.634 12.7197C283.634 12.2249 283.466 11.8245 283.131 11.5186C282.796 11.2126 282.369 11.0596 281.852 11.0596C281.484 11.0596 281.152 11.1458 280.855 11.3184C280.562 11.4876 280.335 11.735 280.172 12.0605H279.293L279.791 7.99805H284.093V8.7793H280.553L280.294 10.918H280.333C280.789 10.5208 281.342 10.3223 281.993 10.3223C282.442 10.3223 282.856 10.4199 283.233 10.6152C283.611 10.8073 283.915 11.0889 284.146 11.46C284.378 11.8278 284.493 12.2477 284.493 12.7197C284.493 13.195 284.373 13.6165 284.132 13.9844C283.894 14.3522 283.57 14.6338 283.16 14.8291C282.753 15.0244 282.298 15.1221 281.793 15.1221ZM290.597 14.1406C290.066 14.7949 289.379 15.1221 288.536 15.1221C287.693 15.1221 287.005 14.7949 286.471 14.1406C285.94 13.4831 285.675 12.6025 285.675 11.499C285.675 10.3955 285.94 9.5166 286.471 8.8623C287.005 8.20801 287.693 7.88086 288.536 7.88086C289.379 7.88086 290.066 8.20801 290.597 8.8623C291.131 9.5166 291.397 10.3955 291.397 11.499C291.397 12.6025 291.131 13.4831 290.597 14.1406ZM287.086 13.584C287.457 14.0885 287.94 14.3408 288.536 14.3408C289.132 14.3408 289.614 14.0885 289.981 13.584C290.353 13.0762 290.538 12.3812 290.538 11.499C290.538 10.6169 290.353 9.9235 289.981 9.41895C289.614 8.91439 289.132 8.66211 288.536 8.66211C287.94 8.66211 287.457 8.91439 287.086 9.41895C286.718 9.9235 286.534 10.6169 286.534 11.499C286.534 12.3812 286.718 13.0762 287.086 13.584ZM299.015 12.1582H295.572V11.3818H296.456V7.99805H299.015C299.705 7.99805 300.263 8.18685 300.689 8.56445C301.119 8.94206 301.334 9.44661 301.334 10.0781C301.334 10.7096 301.119 11.2142 300.689 11.5918C300.263 11.9694 299.705 12.1582 299.015 12.1582ZM297.315 8.7793V11.3818H299.015C299.49 11.3818 299.851 11.2581 300.099 11.0107C300.349 10.7633 300.475 10.4525 300.475 10.0781C300.475 9.70378 300.349 9.39453 300.099 9.15039C299.851 8.90299 299.49 8.7793 299.015 8.7793H297.315ZM295.572 13.54V12.7588H299.776V13.54H297.315V15H296.456V13.54H295.572Z" fill="white"/>
<circle cx="282" cy="35" r="4" fill="#291F2F" stroke="white" stroke-width="2" stroke-linecap="round"/>
<defs>
<linearGradient id="paint0_linear_578_10078" x1="564.274" y1="35.0001" x2="30" y2="34.9995" gradientUnits="userSpaceOnUse">
<stop stop-color="white" stop-opacity="0"/>
<stop offset="0.489583" stop-color="white" stop-opacity="0.7"/>
<stop offset="1" stop-color="white" stop-opacity="0"/>
</linearGradient>
<linearGradient id="paint1_linear_578_10078" x1="345.7" y1="68.3333" x2="345.472" y2="157.095" gradientUnits="userSpaceOnUse">
<stop stop-color="#93ABFB"/>
<stop offset="1" stop-color="#6747E9"/>
</linearGradient>
<linearGradient id="paint2_linear_578_10078" x1="302" y1="35" x2="302" y2="182" gradientUnits="userSpaceOnUse">
<stop stop-color="#8741E1" stop-opacity="0.12"/>
<stop offset="1" stop-color="#8741E1" stop-opacity="0.01"/>
</linearGradient>
<linearGradient id="paint3_linear_578_10078" x1="139.254" y1="98.759" x2="142.644" y2="171.207" gradientUnits="userSpaceOnUse">
<stop stop-color="#EEADFF"/>
<stop offset="1" stop-color="#A057D9"/>
</linearGradient>
</defs>
</svg>
