<svg width="19" height="19" viewBox="0 0 19 19" fill="none" xmlns="http://www.w3.org/2000/svg">
<path fill-rule="evenodd" clip-rule="evenodd" d="M4.84108 11.0147C4.87391 11.0258 4.90705 11.0336 4.94015 11.0384C4.97625 11.1233 5.0229 11.233 5.07732 11.3614C5.21012 11.6746 5.38907 12.0982 5.57377 12.5401C5.95046 13.4414 6.33042 14.3705 6.41433 14.6364C6.51821 14.9651 6.62802 15.1886 6.7479 15.3412C6.80988 15.4201 6.88157 15.489 6.96545 15.5412C7.00767 15.5674 7.05228 15.589 7.09884 15.605C7.10089 15.6057 7.10294 15.6064 7.10499 15.6071C7.345 15.6977 7.56382 15.66 7.70082 15.6138C7.77413 15.5891 7.83344 15.5593 7.87548 15.5351C7.89691 15.5228 7.91502 15.5113 7.92946 15.5016L7.93287 15.4993L10.0525 14.1774L12.5009 16.0545C12.5371 16.0823 12.5764 16.1055 12.6182 16.1237C12.9123 16.2521 13.1972 16.2968 13.4651 16.2602C13.7326 16.2237 13.945 16.1113 14.103 15.9848C14.2579 15.861 14.3628 15.7223 14.4282 15.6192C14.4615 15.5665 14.4866 15.52 14.5043 15.4843C14.5131 15.4664 14.5203 15.451 14.5258 15.4386L14.5329 15.4222L14.5355 15.4158L14.5366 15.413L14.5372 15.4118L14.5376 15.4106C14.5505 15.3784 14.5604 15.3452 14.5671 15.3112L16.8023 4.04205C16.8094 4.00601 16.813 3.96936 16.813 3.93262C16.813 3.60261 16.6887 3.28881 16.3963 3.09839C16.1464 2.93564 15.868 2.92863 15.6921 2.94199C15.5023 2.95639 15.327 3.00324 15.2094 3.04068C15.1482 3.06016 15.0969 3.07896 15.0599 3.0933C15.0413 3.10051 15.026 3.10669 15.0147 3.11141L15.0062 3.115L2.47087 8.03241L2.46924 8.03299C2.46125 8.0359 2.451 8.03972 2.43881 8.04447C2.41454 8.05392 2.38202 8.06724 2.34403 8.08445C2.26994 8.11803 2.166 8.17051 2.05935 8.24355C1.88896 8.36023 1.49709 8.67981 1.56307 9.20728C1.61572 9.62809 1.904 9.88653 2.07964 10.0108C2.17609 10.079 2.26771 10.1278 2.33444 10.1596C2.36539 10.1744 2.42967 10.2005 2.45755 10.2118L2.46459 10.2147L4.84108 11.0147ZM15.4448 4.1509L15.4431 4.15166C15.4369 4.15437 15.4306 4.15697 15.4242 4.15946L2.87373 9.08284C2.86717 9.08541 2.86057 9.08785 2.85393 9.09018L2.84694 9.09283C2.83891 9.09595 2.8254 9.10144 2.80843 9.10913C2.79881 9.11349 2.78877 9.11825 2.77853 9.12335C2.7926 9.13127 2.80606 9.13815 2.81802 9.14385C2.8295 9.14931 2.83826 9.15305 2.84305 9.15502L5.20002 9.94851C5.24316 9.96304 5.28338 9.98228 5.3203 10.0055L13.1029 5.44961L13.1101 5.4453C13.1158 5.44195 13.1233 5.43765 13.1322 5.4326C13.1499 5.42259 13.1742 5.40926 13.2032 5.39453C13.2572 5.36704 13.3436 5.32623 13.441 5.29614C13.5088 5.27519 13.7086 5.21617 13.9247 5.28548C14.058 5.32825 14.1961 5.42021 14.2859 5.57599C14.3305 5.65338 14.3543 5.73112 14.3658 5.80229C14.3964 5.9144 14.3916 6.0251 14.3676 6.12068C14.3161 6.32656 14.1714 6.48715 14.0398 6.60999C13.927 6.7153 12.468 8.12219 11.0286 9.51101C10.3108 10.2036 9.60037 10.8893 9.06934 11.402L8.72055 11.7387L13.1245 15.115C13.2255 15.1512 13.2852 15.1493 13.3128 15.1456C13.3458 15.1411 13.3727 15.1284 13.4002 15.1064C13.431 15.0818 13.4579 15.0485 13.478 15.0168L13.4788 15.0155L15.6467 4.08576C15.6145 4.0935 15.582 4.1027 15.5506 4.11268C15.5151 4.12399 15.4858 4.13475 15.4664 4.14228C15.4568 4.146 15.4499 4.14883 15.4461 4.15039L15.4448 4.1509ZM9.0989 13.4463L8.22029 12.7727L8.00739 14.127L9.0989 13.4463ZM7.41427 11.4361L8.288 10.5926C8.81907 10.0799 9.5296 9.39409 10.2475 8.70143L10.9768 7.99775L6.08682 10.8603L6.11306 10.9222C6.24634 11.2365 6.42608 11.662 6.61176 12.1063C6.75061 12.4385 6.8958 12.7883 7.02805 13.1122L7.24032 11.7619C7.26079 11.6317 7.32439 11.519 7.41427 11.4361Z" fill="currentColor"/>
</svg>
