<svg width="32" height="32" viewBox="0 0 32 32" fill="none" xmlns="http://www.w3.org/2000/svg">
<path d="M17.0007 9.3335C17.0007 8.78121 16.5529 8.3335 16.0007 8.3335C15.4484 8.3335 15.0007 8.78121 15.0007 9.3335V16.0002C15.0007 16.345 15.1783 16.6654 15.4707 16.8482L19.4707 19.3482C19.939 19.6409 20.5559 19.4985 20.8486 19.0302C21.1414 18.5618 20.999 17.9449 20.5306 17.6522L17.0007 15.4459V9.3335Z" fill="white"/>
<path fill-rule="evenodd" clip-rule="evenodd" d="M16.0007 4.3335C9.55733 4.3335 4.33398 9.55684 4.33398 16.0002C4.33398 22.4435 9.55733 27.6668 16.0007 27.6668C22.444 27.6668 27.6673 22.4435 27.6673 16.0002C27.6673 9.55684 22.444 4.3335 16.0007 4.3335ZM6.33398 16.0002C6.33398 10.6614 10.6619 6.3335 16.0007 6.3335C21.3394 6.3335 25.6673 10.6614 25.6673 16.0002C25.6673 21.3389 21.3394 25.6668 16.0007 25.6668C10.6619 25.6668 6.33398 21.3389 6.33398 16.0002Z" fill="white"/>
</svg>
