<svg width="37" height="21" viewBox="0 0 37 21" fill="none" xmlns="http://www.w3.org/2000/svg">
<g clip-path="url(#clip0_938_8046)">
<path d="M27.0018 0.50177H9.99822C4.47635 0.50177 0 4.97812 0 10.5C0 16.0218 4.47635 20.4982 9.99822 20.4982H27.0018C32.5236 20.4982 37 16.0218 37 10.5C37 4.97812 32.5236 0.50177 27.0018 0.50177Z" fill="#303030"/>
<path d="M5.80035 5.64227H16.5715V11.0593C16.5715 12.4481 15.83 13.7317 14.6281 14.4261L11.1859 16.4135L7.74375 14.4261C6.54032 13.7317 5.80035 12.4481 5.80035 11.0593V5.64227Z" fill="#FFDD2D"/>
<path fill-rule="evenodd" clip-rule="evenodd" d="M8.75552 8.49374V10.1779C8.98647 9.91712 9.40437 9.74116 9.88354 9.74116H10.4036V11.7003C10.4036 12.2219 10.2622 12.6775 10.0516 12.9288H12.3155C12.1066 12.6775 11.9652 12.2219 11.9652 11.7018V9.74274H12.4852C12.9644 9.74274 13.3839 9.91869 13.6132 10.1795V8.49532H8.75395L8.75552 8.49374Z" fill="#333333"/>
<path d="M22.7206 13.8966V7.5307H20.7128V13.8966H22.7206Z" fill="white"/>
<path d="M27.5595 13.8966C30.0999 13.8966 31.3568 12.5455 31.3568 10.7137C31.3568 8.88181 30.0983 7.5307 27.7732 7.5307H24.1896V13.8966H27.5611H27.5595ZM27.3568 9.05463C28.7347 9.05463 29.3097 9.67048 29.3097 10.7137C29.3097 11.6767 28.7362 12.412 27.3568 12.412H26.1267V9.05463H27.3568Z" fill="white"/>
</g>
<defs>
<clipPath id="clip0_938_8046">
<rect width="37" height="19.9964" fill="white" transform="translate(0 0.50177)"/>
</clipPath>
</defs>
</svg>
