<svg width="32" height="32" viewBox="0 0 32 32" fill="none" xmlns="http://www.w3.org/2000/svg">
<path d="M23.305 18.3273C24.3774 18.3273 25.2468 17.4579 25.2468 16.3855C25.2468 15.313 24.3774 14.4436 23.305 14.4436C22.2326 14.4436 21.3632 15.313 21.3632 16.3855C21.3632 17.4579 22.2326 18.3273 23.305 18.3273Z" fill="white"/>
<path fill-rule="evenodd" clip-rule="evenodd" d="M3.73752 9.90969C4.13057 8.20649 5.64718 7 7.39514 7H24.9749C26.7228 7 28.2394 8.20649 28.6325 9.90969C29.6158 14.1709 29.6158 18.6 28.6325 22.8612C28.2394 24.5644 26.7228 25.7709 24.9749 25.7709H7.39514C5.64718 25.7709 4.13057 24.5644 3.73752 22.8612C2.75416 18.6 2.75416 14.1709 3.73752 9.90969ZM7.39514 8.94182C6.5514 8.94182 5.81933 9.52418 5.62962 10.3463C4.71257 14.3202 4.71257 18.4507 5.62962 22.4246C5.81933 23.2467 6.5514 23.8291 7.39514 23.8291H24.9749C25.8186 23.8291 26.5507 23.2467 26.7404 22.4246C26.8312 22.0312 26.913 21.6362 26.9858 21.24H19.4536C18.2134 21.24 17.1549 20.3433 16.951 19.12C16.6492 17.3095 16.6492 15.4615 16.951 13.651C17.1549 12.4276 18.2134 11.5309 19.4536 11.5309H26.9858C26.913 11.1347 26.8312 10.7397 26.7404 10.3463C26.5507 9.52418 25.8186 8.94182 24.9749 8.94182H7.39514ZM19.4536 13.4727H27.2698C27.481 15.4088 27.481 17.3621 27.2698 19.2982H19.4536C19.1626 19.2982 18.9142 19.0878 18.8664 18.8007C18.5999 17.2016 18.5999 15.5693 18.8664 13.9702C18.9142 13.6831 19.1626 13.4727 19.4536 13.4727Z" fill="white"/>
</svg>
