<svg width="20" height="20" viewBox="0 0 20 20" fill="none" xmlns="http://www.w3.org/2000/svg">
<path d="M11 6.99956C11 7.55185 10.5523 7.99956 10 7.99956C9.44771 7.99956 9 7.55185 9 6.99956C9 6.44728 9.44771 5.99956 10 5.99956C10.5523 5.99956 11 6.44728 11 6.99956Z" fill="#FFC700"/>
<path d="M10 9.74956C10.4142 9.74956 10.75 10.0853 10.75 10.4996V15.4996C10.75 15.9138 10.4142 16.2496 10 16.2496C9.58579 16.2496 9.25 15.9138 9.25 15.4996V10.4996C9.25 10.0853 9.58579 9.74956 10 9.74956Z" fill="#FFC700"/>
<path fill-rule="evenodd" clip-rule="evenodd" d="M12.2703 1.9922C11.1784 0.394532 8.82159 0.394526 7.72961 1.99219L7.29769 2.62414C4.59165 6.58335 2.26669 10.79 0.353957 15.1876L0.263742 15.3951C-0.410313 16.9448 0.608051 18.7045 2.2876 18.8923C7.41323 19.4651 12.5867 19.4651 17.7124 18.8923C19.3919 18.7045 20.4103 16.9448 19.7362 15.3951L19.646 15.1876C17.7333 10.79 15.4083 6.58336 12.7023 2.62414L12.2703 1.9922ZM8.96799 2.8386C9.46434 2.11239 10.5356 2.11239 11.032 2.83861L11.4639 3.47055C14.1165 7.35157 16.3955 11.4751 18.2705 15.7859L18.3607 15.9933C18.6321 16.6174 18.222 17.326 17.5458 17.4015C12.5309 17.962 7.46911 17.962 2.4542 17.4015C1.77791 17.326 1.36785 16.6174 1.63927 15.9933L1.72948 15.7859C3.60443 11.4751 5.88348 7.35157 8.53607 3.47055L8.96799 2.8386Z" fill="#FFC700"/>
</svg>
