<svg width="25" height="25" viewBox="0 0 25 25" fill="none" xmlns="http://www.w3.org/2000/svg">
<path d="M11.9694 9.03014C12.11 9.1708 12.3008 9.24981 12.4997 9.24981C12.6986 9.24981 12.8894 9.1708 13.03 9.03014L14.03 8.03014C14.2445 7.81565 14.3087 7.49306 14.1926 7.2128C14.0765 6.93255 13.803 6.74981 13.4997 6.74981H11.4997C11.1963 6.74981 10.9229 6.93255 10.8068 7.2128C10.6907 7.49306 10.7549 7.81565 10.9694 8.03014L11.9694 9.03014Z" fill="#5F5F5F"/>
<path d="M11.9694 15.9695C12.11 15.8288 12.3008 15.7498 12.4997 15.7498C12.6986 15.7498 12.8894 15.8288 13.03 15.9695L14.03 16.9695C14.2445 17.184 14.3087 17.5066 14.1926 17.7868C14.0765 18.0671 13.803 18.2498 13.4997 18.2498H11.4997C11.1963 18.2498 10.9229 18.0671 10.8068 17.7868C10.6907 17.5066 10.7549 17.184 10.9694 16.9695L11.9694 15.9695Z" fill="#5F5F5F"/>
<path fill-rule="evenodd" clip-rule="evenodd" d="M13.6487 12.4998L13.836 12.3384C15.8115 10.6364 17.4539 8.58261 18.6799 6.28129C19.161 5.37822 18.5637 4.27714 17.5444 4.18801L16.3708 4.08541C13.795 3.8602 11.2044 3.8602 8.62859 4.08541L7.45505 4.18802C6.43571 4.27714 5.83841 5.37822 6.31951 6.28129C7.54553 8.58261 9.18796 10.6364 11.1634 12.3384L11.3507 12.4998L11.1634 12.6612C9.18796 14.3632 7.54553 16.417 6.31951 18.7183C5.83841 19.6214 6.43571 20.7225 7.45505 20.8116L8.62859 20.9142C11.2044 21.1394 13.795 21.1394 16.3708 20.9142L17.5444 20.8116C18.5637 20.7225 19.161 19.6214 18.6799 18.7183C17.4539 16.417 15.8115 14.3632 13.836 12.6612L13.6487 12.4998ZM12.5033 11.5061C12.5038 11.5059 12.5046 11.5056 12.5062 11.5042L12.8569 11.2021C14.664 9.64507 16.1711 7.77111 17.3042 5.67274L16.2402 5.57971C13.7513 5.3621 11.2481 5.3621 8.75924 5.57971L7.69524 5.67274C8.82829 7.77111 10.3354 9.64507 12.1425 11.2021L12.4932 11.5042C12.4942 11.5051 12.4949 11.5055 12.4954 11.5058C12.4952 11.5057 12.4957 11.5059 12.4954 11.5058C12.4962 11.5061 12.4981 11.5067 12.4997 11.5067C12.5013 11.5067 12.5026 11.5064 12.5033 11.5061ZM12.5062 13.4954C12.5046 13.494 12.5038 13.4937 12.5033 13.4935C12.503 13.4934 12.5025 13.4933 12.5019 13.4932C12.5013 13.4931 12.5006 13.493 12.4997 13.493C12.4981 13.493 12.4968 13.4933 12.4961 13.4935C12.4956 13.4937 12.4948 13.494 12.4932 13.4954L12.1425 13.7976C10.3354 15.3546 8.82829 17.2285 7.69524 19.3269L8.75924 19.4199C11.2481 19.6375 13.7513 19.6375 16.2402 19.4199L17.3042 19.3269C16.1711 17.2285 14.664 15.3546 12.8569 13.7976L12.5062 13.4954Z" fill="#5F5F5F"/>
</svg>
