<svg width="25" height="24" viewBox="0 0 25 24" fill="none" xmlns="http://www.w3.org/2000/svg">
<path fill-rule="evenodd" clip-rule="evenodd" d="M16.2573 4.41833C13.6642 3.9836 11.0021 3.9836 8.40899 4.41833C7.92099 4.50014 7.5334 4.87507 7.43612 5.35801C6.55104 9.75199 6.50275 14.2735 7.29377 18.6854L7.45732 19.5976L11.1279 16.1106C11.8033 15.4689 12.863 15.4689 13.5385 16.1106L17.209 19.5976L17.3726 18.6854C18.1636 14.2735 18.1153 9.75199 17.2302 5.35801C17.1329 4.87507 16.7453 4.50014 16.2573 4.41833ZM8.16098 2.93898C10.9183 2.47672 13.748 2.47672 16.5054 2.93898C17.6046 3.12326 18.4802 3.96707 18.7007 5.06181C19.623 9.64072 19.6733 14.3525 18.849 18.9501L18.6275 20.1854C18.4416 21.2223 17.1776 21.6367 16.4139 20.9112L12.5054 17.1981C12.4089 17.1064 12.2575 17.1064 12.161 17.1981L8.25244 20.9112C7.48874 21.6367 6.2247 21.2223 6.0388 20.1854L5.81732 18.9501C4.993 14.3525 5.04332 9.64073 5.96565 5.06181C6.18617 3.96707 7.06176 3.12326 8.16098 2.93898Z" fill="white"/>
</svg>
