<svg width="24" height="24" viewBox="0 0 24 24" fill="none" xmlns="http://www.w3.org/2000/svg">
<path fill-rule="evenodd" clip-rule="evenodd" d="M4.39434 14.5525C2.14682 9.03583 6.20531 3 12.1622 3H12.4836C16.9385 3 20.55 6.61146 20.55 11.0664C20.55 16.0265 16.5291 20.0474 11.569 20.0474H3.74993C3.43172 20.0474 3.14816 19.8466 3.04255 19.5464C2.93694 19.2462 3.03227 18.9121 3.28038 18.7128L5.25157 17.1298C5.33776 17.0606 5.36825 16.943 5.32654 16.8406L4.39434 14.5525ZM12.1622 4.49977C7.27043 4.49977 3.93761 9.45637 5.78327 13.9866L6.71547 16.2747C7.00742 16.9913 6.794 17.8146 6.19067 18.2992L5.88127 18.5476H11.569C15.7008 18.5476 19.0502 15.1982 19.0502 11.0664C19.0502 7.43976 16.1102 4.49977 12.4836 4.49977H12.1622Z" fill="white"/>
</svg>
