<svg width="25" height="24" viewBox="0 0 25 24" fill="none" xmlns="http://www.w3.org/2000/svg">
<path fill-rule="evenodd" clip-rule="evenodd" d="M10.6746 1.50804C10.8564 1.29895 11.1385 1.20705 11.4085 1.26904C15.0174 2.09755 16.8415 6.05217 16.4125 9.5903C16.2458 10.9657 15.8338 12.0439 15.2271 12.9018C15.2234 12.9071 15.2197 12.9123 15.216 12.9175C15.3538 12.8498 15.4809 12.7767 15.5999 12.6995C16.1918 12.3153 16.6262 11.8083 17.1919 11.1481C17.2603 11.0683 17.3306 10.9863 17.4033 10.902C17.5667 10.7125 17.8138 10.6169 18.0622 10.6473C18.3106 10.6776 18.5275 10.8299 18.6405 11.0531C19.138 12.0363 19.418 13.1479 19.418 14.3226C19.418 18.3267 16.172 21.5726 12.168 21.5726C8.1639 21.5726 4.91797 18.3267 4.91797 14.3226C4.91797 11.7856 6.22168 9.5535 8.19228 8.25905L8.25984 8.19098C8.29454 8.15601 8.33261 8.12454 8.37349 8.09703C9.23935 7.51439 9.86109 7.03786 10.2797 6.47743C10.6751 5.94801 10.918 5.3022 10.918 4.32264C10.918 3.59736 10.784 2.90512 10.5403 2.26809C10.4412 2.00936 10.4929 1.71713 10.6746 1.50804ZM12.3392 3.25081C12.3911 3.60079 12.418 3.95872 12.418 4.32264C12.418 5.59106 12.0903 6.55995 11.4815 7.37505C10.9097 8.14054 10.1182 8.72847 9.27263 9.2999L9.20033 9.37275C9.16159 9.41179 9.11868 9.44644 9.07236 9.4761C7.47444 10.4991 6.41797 12.2877 6.41797 14.3226C6.41797 17.4983 8.99233 20.0726 12.168 20.0726C15.3436 20.0726 17.918 17.4983 17.918 14.3226C17.918 13.8028 17.8492 13.2997 17.7203 12.8217C17.3401 13.2334 16.9204 13.6307 16.4165 13.9577C15.4932 14.5569 14.3379 14.899 12.668 14.899C12.3257 14.899 12.0269 14.6673 11.9416 14.3358C11.8564 14.0044 12.0063 13.6572 12.3061 13.4921C12.9849 13.1181 13.5603 12.661 14.0024 12.0357C14.4436 11.4118 14.7817 10.5787 14.9234 9.40975C15.2303 6.879 14.1829 4.38107 12.3392 3.25081Z" fill="white"/>
</svg>
