<svg width="25" height="24" viewBox="0 0 25 24" fill="none" xmlns="http://www.w3.org/2000/svg">
<path fill-rule="evenodd" clip-rule="evenodd" d="M14.0569 5.53423C13.1863 4.69887 11.8118 4.69887 10.9413 5.53423L6.31482 9.97357C6.20147 10.0823 6.12522 10.224 6.09689 10.3785C5.54276 13.4004 5.50185 16.494 5.9759 19.5295L6.08842 20.25H9.06488V14.0387C9.06488 13.6244 9.40066 13.2887 9.81488 13.2887H15.1833C15.5975 13.2887 15.9333 13.6244 15.9333 14.0387V20.25H18.9098L19.0223 19.5295C19.4963 16.494 19.4554 13.4004 18.9013 10.3785C18.8729 10.224 18.7967 10.0823 18.6833 9.97357L14.0569 5.53423ZM9.90271 4.45191C11.3537 3.05965 13.6445 3.05965 15.0955 4.45191L19.7219 8.89125C20.0625 9.21804 20.2915 9.64373 20.3767 10.108C20.9612 13.2956 21.0044 16.559 20.5043 19.7609L20.3235 20.9184C20.2488 21.3971 19.8365 21.75 19.352 21.75H15.1833C14.7691 21.75 14.4333 21.4142 14.4333 21V14.7887H10.5649V21C10.5649 21.4142 10.2291 21.75 9.81488 21.75H5.64615C5.16166 21.75 4.74938 21.3971 4.67462 20.9184L4.49386 19.7609C3.99381 16.559 4.03696 13.2956 4.62149 10.108C4.70662 9.64373 4.93571 9.21804 5.27628 8.89125L9.90271 4.45191Z" fill="#F8F8F8" />
</svg>
